<svg width="1280" height="720" xmlns="http://www.w3.org/2000/svg" xmlns:xlink="http://www.w3.org/1999/xlink" overflow="hidden"><defs><clipPath id="clip0"><path d="M0 0 1280 0 1280 720 0 720Z" fill-rule="evenodd" clip-rule="evenodd"/></clipPath></defs><g clip-path="url(#clip0)"><rect x="0" y="0" width="1280" height="720" fill="#FFFFFF"/><rect x="88.5001" y="227.5" width="151" height="37" stroke="#2F528F" stroke-width="1.33333" stroke-miterlimit="8" fill="#F2F2F2"/><text fill="#0D0D0D" font-family="Calibri,Calibri_MSFontService,sans-serif" font-weight="400" font-size="24" transform="translate(142.341 253)">Coal</text><rect x="88.5001" y="276.5" width="151" height="37" stroke="#2F528F" stroke-width="1.33333" stroke-miterlimit="8" fill="#F2F2F2"/><text fill="#0D0D0D" font-family="Calibri,Calibri_MSFontService,sans-serif" font-weight="400" font-size="24" transform="translate(134.007 302)">Diesel</text><rect x="88.5001" y="325.5" width="151" height="38" stroke="#2F528F" stroke-width="1.33333" stroke-miterlimit="8" fill="#F2F2F2"/><text fill="#0D0D0D" font-family="Calibri,Calibri_MSFontService,sans-serif" font-weight="400" font-size="24" transform="translate(108.837 351)">Natural gas</text><rect x="88.5001" y="374.5" width="151" height="38" stroke="#2F528F" stroke-width="1.33333" stroke-miterlimit="8" fill="#F2F2F2"/><text fill="#0D0D0D" font-family="Calibri,Calibri_MSFontService,sans-serif" font-weight="400" font-size="24" transform="translate(142.781 400)">HFO</text><rect x="88.5001" y="423.5" width="151" height="38" stroke="#2F528F" stroke-width="1.33333" stroke-miterlimit="8" fill="#F2F2F2"/><text fill="#0D0D0D" font-family="Calibri,Calibri_MSFontService,sans-serif" font-weight="400" font-size="24" transform="translate(134.414 449)">Rivers</text><rect x="88.5001" y="470.5" width="151" height="38" stroke="#2F528F" stroke-width="1.33333" stroke-miterlimit="8" fill="#F2F2F2"/><text fill="#0D0D0D" font-family="Calibri,Calibri_MSFontService,sans-serif" font-weight="400" font-size="24" transform="translate(124.034 497)">Sunlight</text><rect x="88.5001" y="612.5" width="151" height="38" stroke="#2F528F" stroke-width="1.33333" stroke-miterlimit="8" fill="#F2F2F2"/><text fill="#0D0D0D" font-family="Calibri,Calibri_MSFontService,sans-serif" font-weight="400" font-size="24" transform="translate(133.187 639)">Waste</text><rect x="88.5001" y="178.5" width="151" height="37" stroke="#2F528F" stroke-width="1.33333" stroke-miterlimit="8" fill="#F2F2F2"/><text fill="#0D0D0D" font-family="Calibri,Calibri_MSFontService,sans-serif" font-weight="400" font-size="24" transform="translate(123.341 204)">Biomass</text><rect x="88.5001" y="517.5" width="151" height="38" stroke="#2F528F" stroke-width="1.33333" stroke-miterlimit="8" fill="#F2F2F2"/><text fill="#0D0D0D" font-family="Calibri,Calibri_MSFontService,sans-serif" font-weight="400" font-size="24" transform="translate(137.507 544)">Wind</text><rect x="88.5001" y="564.5" width="151" height="38" stroke="#2F528F" stroke-width="1.33333" stroke-miterlimit="8" fill="#F2F2F2"/><text fill="#0D0D0D" font-family="Calibri,Calibri_MSFontService,sans-serif" font-weight="400" font-size="24" transform="translate(121.254 591)">Uranium</text><rect x="327.5" y="227.5" width="265" height="37" stroke="#2F528F" stroke-width="1.33333" stroke-miterlimit="8" fill="#F2F2F2"/><text fill="#0D0D0D" font-family="Calibri,Calibri_MSFontService,sans-serif" font-weight="400" font-size="24" transform="translate(379.382 253)">Coal powerplant</text><rect x="327.5" y="276.5" width="265" height="37" stroke="#2F528F" stroke-width="1.33333" stroke-miterlimit="8" fill="#F2F2F2"/><text fill="#0D0D0D" font-family="Calibri,Calibri_MSFontService,sans-serif" font-weight="400" font-size="24" transform="translate(371.048 302)">Diesel <tspan x="64.6667" y="0">powerplant</tspan></text><rect x="327.5" y="325.5" width="265" height="38" stroke="#2F528F" stroke-width="1.33333" stroke-miterlimit="8" fill="#F2F2F2"/><text fill="#0D0D0D" font-family="Calibri,Calibri_MSFontService,sans-serif" font-weight="400" font-size="24" transform="translate(345.878 351)">Natural gas <tspan x="115.007" y="0">powerplant</tspan></text><rect x="327.5" y="374.5" width="265" height="38" stroke="#2F528F" stroke-width="1.33333" stroke-miterlimit="8" fill="#F2F2F2"/><text fill="#0D0D0D" font-family="Calibri,Calibri_MSFontService,sans-serif" font-weight="400" font-size="24" transform="translate(379.822 400)">HFO powerplant</text><rect x="327.5" y="423.5" width="265" height="38" stroke="#2F528F" stroke-width="1.33333" stroke-miterlimit="8" fill="#F2F2F2"/><text fill="#0D0D0D" font-family="Calibri,Calibri_MSFontService,sans-serif" font-weight="400" font-size="24" transform="translate(371.215 449)">Hydro <tspan x="64.3333" y="0">powerplant</tspan></text><rect x="327.5" y="470.5" width="265" height="38" stroke="#2F528F" stroke-width="1.33333" stroke-miterlimit="8" fill="#F2F2F2"/><text fill="#0D0D0D" font-family="Calibri,Calibri_MSFontService,sans-serif" font-weight="400" font-size="24" transform="translate(419.512 497)">Solar PV</text><rect x="327.5" y="612.5" width="265" height="38" stroke="#2F528F" stroke-width="1.33333" stroke-miterlimit="8" fill="#F2F2F2"/><text fill="#0D0D0D" font-family="Calibri,Calibri_MSFontService,sans-serif" font-weight="400" font-size="24" transform="translate(343.802 639)">Waste<tspan x="60.8067" y="0">-</tspan><tspan x="68.14" y="0">fired </tspan><tspan x="119.16" y="0">powerplant</tspan></text><rect x="327.5" y="178.5" width="265" height="37" stroke="#2F528F" stroke-width="1.33333" stroke-miterlimit="8" fill="#F2F2F2"/><text fill="#0D0D0D" font-family="Calibri,Calibri_MSFontService,sans-serif" font-weight="400" font-size="24" transform="translate(419.452 204)">Biomass</text><rect x="327.5" y="517.5" width="265" height="38" stroke="#2F528F" stroke-width="1.33333" stroke-miterlimit="8" fill="#F2F2F2"/><text fill="#0D0D0D" font-family="Calibri,Calibri_MSFontService,sans-serif" font-weight="400" font-size="24" transform="translate(407.935 544)">Wind farm</text><rect x="327.5" y="564.5" width="265" height="38" stroke="#2F528F" stroke-width="1.33333" stroke-miterlimit="8" fill="#F2F2F2"/><text fill="#0D0D0D" font-family="Calibri,Calibri_MSFontService,sans-serif" font-weight="400" font-size="24" transform="translate(362.798 591)">Nuclear <tspan x="81.1667" y="0">powerplant</tspan></text><rect x="965.5" y="227.5" width="227" height="37" stroke="#2F528F" stroke-width="1.33333" stroke-miterlimit="8" fill="#F2F2F2"/><text fill="#0D0D0D" font-family="Calibri,Calibri_MSFontService,sans-serif" font-weight="400" font-size="24" transform="translate(989.581 253)">Industrial demand</text><rect x="965.5" y="276.5" width="227" height="37" stroke="#2F528F" stroke-width="1.33333" stroke-miterlimit="8" fill="#F2F2F2"/><text fill="#0D0D0D" font-family="Calibri,Calibri_MSFontService,sans-serif" font-weight="400" font-size="24" transform="translate(977.291 302)">Commercial demand</text><rect x="965.5" y="325.5" width="227" height="38" stroke="#2F528F" stroke-width="1.33333" stroke-miterlimit="8" fill="#F2F2F2"/><text fill="#0D0D0D" font-family="Calibri,Calibri_MSFontService,sans-serif" font-weight="400" font-size="24" transform="translate(979.111 351)">Agricultural demand</text><rect x="965.5" y="374.5" width="227" height="38" stroke="#2F528F" stroke-width="1.33333" stroke-miterlimit="8" fill="#F2F2F2"/><text fill="#0D0D0D" font-family="Calibri,Calibri_MSFontService,sans-serif" font-weight="400" font-size="24" transform="translate(988.938 400)">Transport demand</text><rect x="965.5" y="178.5" width="227" height="37" stroke="#2F528F" stroke-width="1.33333" stroke-miterlimit="8" fill="#F2F2F2"/><text fill="#0D0D0D" font-family="Calibri,Calibri_MSFontService,sans-serif" font-weight="400" font-size="24" transform="translate(982.017 204)">Residential demand</text><rect x="680.5" y="227.5" width="189" height="37" stroke="#2F528F" stroke-width="1.33333" stroke-miterlimit="8" fill="#F2F2F2"/><text fill="#0D0D0D" font-family="Calibri,Calibri_MSFontService,sans-serif" font-weight="400" font-size="24" transform="translate(692.307 253)">Electricity export</text><rect x="680.5" y="178.5" width="189" height="37" stroke="#2F528F" stroke-width="1.33333" stroke-miterlimit="8" fill="#F2F2F2"/><text fill="#0D0D0D" font-family="Calibri,Calibri_MSFontService,sans-serif" font-weight="400" font-size="24" transform="translate(711.867 204)">Transmission</text><path d="M239.5 195.167 321.07 195.167 321.07 197.833 239.5 197.833ZM319.737 192.5 327.737 196.5 319.737 200.5Z" fill="#4472C4"/><path d="M239.5 244.167 321.07 244.167 321.07 246.833 239.5 246.833ZM319.737 241.5 327.737 245.5 319.737 249.5Z" fill="#4472C4"/><path d="M239.5 294.167 321.07 294.167 321.07 296.833 239.5 296.833ZM319.737 291.5 327.737 295.5 319.737 299.5Z" fill="#4472C4"/><path d="M239.5 343.167 321.07 343.167 321.07 345.833 239.5 345.833ZM319.737 340.5 327.737 344.5 319.737 348.5Z" fill="#4472C4"/><path d="M239.5 392.167 321.07 392.167 321.07 394.833 239.5 394.833ZM319.737 389.5 327.737 393.5 319.737 397.5Z" fill="#4472C4"/><path d="M239.5 441.167 321.07 441.167 321.07 443.833 239.5 443.833ZM319.737 438.5 327.737 442.5 319.737 446.5Z" fill="#4472C4"/><path d="M239.5 488.167 321.07 488.167 321.07 490.833 239.5 490.833ZM319.737 485.5 327.737 489.5 319.737 493.5Z" fill="#4472C4"/><path d="M239.5 535.167 321.07 535.167 321.07 537.833 239.5 537.833ZM319.737 532.5 327.737 536.5 319.737 540.5Z" fill="#4472C4"/><path d="M239.5 582.167 321.07 582.167 321.07 584.833 239.5 584.833ZM319.737 579.5 327.737 583.5 319.737 587.5Z" fill="#4472C4"/><path d="M239.5 630.167 321.07 630.167 321.07 632.833 239.5 632.833ZM319.737 627.5 327.737 631.5 319.737 635.5Z" fill="#4472C4"/><path d="M592.5 195.167 674.07 195.167 674.07 197.833 592.5 197.833ZM672.737 192.5 680.737 196.5 672.737 200.5Z" fill="#4472C4"/><path d="M869.5 195.167 958.863 195.167 958.863 197.833 869.5 197.833ZM957.53 192.5 965.53 196.5 957.53 200.5Z" fill="#4472C4"/><path d="M869.5 195.167 918.848 195.167 918.848 245.576 917.515 244.242 958.863 244.242 958.863 246.909 916.182 246.909 916.182 196.5 917.515 197.833 869.5 197.833ZM957.53 241.576 965.53 245.576 957.53 249.576Z" fill="#4472C4"/><path d="M869.5 195.167 918.848 195.167 918.848 294.651 917.515 293.318 958.863 293.318 958.863 295.985 916.182 295.985 916.182 196.5 917.515 197.833 869.5 197.833ZM957.53 290.651 965.53 294.651 957.53 298.651Z" fill="#4472C4"/><path d="M869.5 195.167 918.848 195.167 918.848 343.727 917.515 342.394 958.863 342.394 958.863 345.06 916.182 345.06 916.182 196.5 917.515 197.833 869.5 197.833ZM957.53 339.727 965.53 343.727 957.53 347.727Z" fill="#4472C4"/><path d="M869.5 195.167 918.848 195.167 918.848 392.803 917.515 391.469 958.863 391.469 958.863 394.136 916.182 394.136 916.182 196.5 917.515 197.833 869.5 197.833ZM957.53 388.803 965.53 392.803 957.53 396.803Z" fill="#4472C4"/><path d="M636.5 244.167 673.952 244.167 673.952 246.833 636.5 246.833ZM672.619 241.5 680.619 245.5 672.619 249.5Z" fill="#4472C4"/><path d="M635.5 196.5 635.5 631.495" stroke="#4472C4" stroke-width="2.66667" stroke-miterlimit="8" fill="none" fill-rule="evenodd"/><path d="M0 0 50.4418 0.000104987" stroke="#4472C4" stroke-width="2.66667" stroke-miterlimit="8" fill="none" fill-rule="evenodd" transform="matrix(1 0 0 -1 592.5 245.5)"/><path d="M0 0 42.4615 0.0583727" stroke="#4472C4" stroke-width="2.66667" stroke-miterlimit="8" fill="none" fill-rule="evenodd" transform="matrix(1 0 0 -1 592.5 344.558)"/><path d="M594.5 394.5 637.379 394.5" stroke="#4472C4" stroke-width="2.66667" stroke-miterlimit="8" fill="none" fill-rule="evenodd"/><path d="M0 0 41.6875 0.000104987" stroke="#4472C4" stroke-width="2.66667" stroke-miterlimit="8" fill="none" fill-rule="evenodd" transform="matrix(1 0 0 -1 593.5 444.5)"/><rect x="682.5" y="277.5" width="189" height="38" stroke="#2F528F" stroke-width="1.33333" stroke-miterlimit="8" fill="#F2F2F2"/><text fill="#0D0D0D" font-family="Calibri,Calibri_MSFontService,sans-serif" font-weight="400" font-size="24" transform="translate(692.502 304)">Electricity import</text><path d="M3.13174e-06-1.33333 38.0314-1.33324 38.0314 1.33342-3.13174e-06 1.33333ZM36.6981-3.99991 44.6981 0.000104987 36.698 4.00009Z" fill="#4472C4" transform="matrix(-1 -8.74228e-08 -8.74228e-08 1 682.198 296.5)"/><path d="M0 0 41.6875 0.000104987" stroke="#4472C4" stroke-width="2.66667" stroke-miterlimit="8" fill="none" fill-rule="evenodd" transform="matrix(1 0 0 -1 593.5 489.5)"/><path d="M0 0 41.6875 0.000104987" stroke="#4472C4" stroke-width="2.66667" stroke-miterlimit="8" fill="none" fill-rule="evenodd" transform="matrix(1 0 0 -1 592.5 537.5)"/><path d="M0 0 41.6875 0.000104987" stroke="#4472C4" stroke-width="2.66667" stroke-miterlimit="8" fill="none" fill-rule="evenodd" transform="matrix(1 0 0 -1 592.5 583.5)"/><path d="M0 0 41.6875 0.000104987" stroke="#4472C4" stroke-width="2.66667" stroke-miterlimit="8" fill="none" fill-rule="evenodd" transform="matrix(1 0 0 -1 593.5 631.5)"/><path d="M0 0 41.6875 0.000104987" stroke="#4472C4" stroke-width="2.66667" stroke-miterlimit="8" fill="none" fill-rule="evenodd" transform="matrix(1 0 0 -1 593.5 297.5)"/></g></svg>