<svg width="1280" height="720" xmlns="http://www.w3.org/2000/svg" xmlns:xlink="http://www.w3.org/1999/xlink" overflow="hidden"><defs><clipPath id="clip0"><path d="M0 0 1280 0 1280 720 0 720Z" fill-rule="evenodd" clip-rule="evenodd"/></clipPath></defs><g clip-path="url(#clip0)"><rect x="0" y="0" width="1280" height="720" fill="#FFFFFF"/><rect x="561.5" y="105.5" width="320" height="518" stroke="#000000" stroke-width="1.33333" stroke-miterlimit="8" fill="none"/><rect x="276.5" y="131.5" width="265" height="105" stroke="#000000" stroke-width="1.33333" stroke-miterlimit="8" fill="#FFFFFF"/><text font-family="Calibri,Calibri_MSFontService,sans-serif" font-weight="700" font-size="16" transform="translate(355.03 179)">LND<tspan fill="#0070C0" x="27.5" y="0">CP01</tspan><tspan fill="#00B050" x="60.8333" y="0">H</tspan><tspan fill="#4472C4" x="71" y="0">R</tspan><tspan fill="#FF0000" x="80" y="0">ETH</tspan><tspan font-weight="400" x="-52.3267" y="19">(</tspan><tspan fill="#0070C0" font-weight="400" x="-47.4933" y="19">Crop 1</tspan><tspan font-weight="400" x="-5.08667" y="19">|</tspan><tspan fill="#00B050" font-weight="400" x="2.24667" y="19">High</tspan><tspan font-weight="400" x="31.7467" y="19">|</tspan><tspan fill="#4472C4" font-weight="400" x="39.08" y="19">Rain</tspan><tspan fill="#4472C4" font-weight="400" x="67.4133" y="19">-</tspan><tspan fill="#4472C4" font-weight="400" x="72.2467" y="19">fed</tspan><tspan font-weight="400" x="93.0133" y="19">|</tspan><tspan fill="#FF0000" font-weight="400" x="100.347" y="19">Ethiopia</tspan><tspan font-weight="400" x="153.493" y="19">)</tspan></text><rect x="576.5" y="499.5" width="298" height="104" stroke="#000000" stroke-width="1.33333" stroke-miterlimit="8" stroke-dasharray="10.6667 4" fill="#F2F2F2"/><rect x="276.5" y="499.5" width="265" height="104" stroke="#000000" stroke-width="1.33333" stroke-miterlimit="8" fill="#FFFFFF"/><text font-family="Calibri,Calibri_MSFontService,sans-serif" font-weight="700" font-size="16" transform="translate(357.363 547)">LND<tspan fill="#0070C0" x="27.5" y="0">CP08</tspan><tspan fill="#00B050" x="60.8333" y="0">H</tspan><tspan fill="#4472C4" x="71" y="0">I</tspan><tspan fill="#FF0000" x="75.3333" y="0">ETH</tspan><tspan font-weight="400" x="-56.9667" y="19">(</tspan><tspan fill="#0070C0" font-weight="400" x="-52.1333" y="19">Crop 8</tspan><tspan font-weight="400" x="-9.72665" y="19">|</tspan><tspan fill="#00B050" font-weight="400" x="-2.39334" y="19">High</tspan><tspan font-weight="400" x="27.1067" y="19">|</tspan><tspan fill="#4472C4" font-weight="400" x="34.44" y="19">Irrigated</tspan><tspan font-weight="400" x="92.9867" y="19">|</tspan><tspan fill="#FF0000" font-weight="400" x="100.32" y="19">Ethiopia</tspan><tspan font-weight="400" x="153.467" y="19">)</tspan></text><rect x="276.5" y="278.5" width="265" height="105" stroke="#000000" stroke-width="1.33333" stroke-miterlimit="8" fill="#FFFFFF"/><text font-family="Calibri,Calibri_MSFontService,sans-serif" font-weight="700" font-size="16" transform="translate(356.697 326)">LND<tspan fill="#0070C0" x="27.5" y="0">CP01</tspan><tspan fill="#00B050" x="60.8333" y="0">L</tspan><tspan fill="#4472C4" x="67.6667" y="0">R</tspan><tspan fill="#FF0000" x="76.6667" y="0">ETH</tspan><tspan font-weight="400" x="-54.38" y="19">(</tspan><tspan fill="#0070C0" font-weight="400" x="-49.5467" y="19">Crop 1</tspan><tspan font-weight="400" x="-7.14001" y="19">|</tspan><tspan fill="#00B050" font-weight="400" x="0.193329" y="19">Low</tspan><tspan font-weight="400" x="26.8" y="19">|</tspan><tspan fill="#4472C4" font-weight="400" x="34.1333" y="19">Rain</tspan><tspan fill="#4472C4" font-weight="400" x="62.4667" y="19">-</tspan><tspan fill="#4472C4" font-weight="400" x="67.3" y="19">fed</tspan><tspan font-weight="400" x="91.7333" y="19">|</tspan><tspan fill="#FF0000" font-weight="400" x="99.0667" y="19">Ethiopia</tspan><tspan font-weight="400" x="152.213" y="19">)</tspan><tspan x="314.917" y="-204">LNDAGRETHC01</tspan></text><rect x="576.5" y="131.5" width="298" height="105" stroke="#000000" stroke-width="1.33333" stroke-miterlimit="8" stroke-dasharray="10.6667 4" fill="#F2F2F2"/><text font-family="Calibri,Calibri_MSFontService,sans-serif" font-weight="400" font-size="16" transform="translate(697.58 151)">Mode 1: <tspan x="-74.9933" y="19">Crop 1|High|Rain</tspan><tspan x="39.9134" y="19">-</tspan><tspan x="44.7467" y="19">fed |Ethiopia</tspan><tspan x="-4.07996" y="368">Mode </tspan><tspan x="38.0867" y="368">43: </tspan><tspan x="-73.6333" y="387">Crop 8|High|Irrigated|Ethiopia</tspan></text><rect x="576.5" y="278.5" width="298" height="105" stroke="#000000" stroke-width="1.33333" stroke-miterlimit="8" stroke-dasharray="10.6667 4" fill="#F2F2F2"/><text font-family="Calibri,Calibri_MSFontService,sans-serif" font-weight="400" font-size="16" transform="translate(697.58 298)">Mode 2: <tspan x="-73.5466" y="19">Crop 1|Low|Rain</tspan><tspan x="38.4667" y="19">-</tspan><tspan x="43.3" y="19">fed |Ethiopia</tspan></text><path d="M0.00878926-1.99998 25.6521-1.88729 25.6346 2.11267-0.00878926 1.99998ZM23.6697-5.89604 35.6433 0.15664 23.617 6.10385Z" transform="matrix(1 0 0 -1 541 183.157)"/><path d="M541 549 566.643 549 566.643 553 541 553ZM564.643 545 576.643 551 564.643 557Z"/><path d="M541 328 566.643 328 566.643 332 541 332ZM564.643 324 576.643 330 564.643 336Z"/><path d="M678.5 411C678.5 407.41 681.186 404.5 684.5 404.5 687.814 404.5 690.5 407.41 690.5 411 690.5 414.59 687.814 417.5 684.5 417.5 681.186 417.5 678.5 414.59 678.5 411Z" stroke="#000000" stroke-width="1.33333" stroke-miterlimit="8" fill-rule="evenodd"/><path d="M678.5 432.5C678.5 429.186 681.186 426.5 684.5 426.5 687.814 426.5 690.5 429.186 690.5 432.5 690.5 435.814 687.814 438.5 684.5 438.5 681.186 438.5 678.5 435.814 678.5 432.5Z" stroke="#000000" stroke-width="1.33333" stroke-miterlimit="8" fill-rule="evenodd"/><path d="M678.5 453.5C678.5 450.186 681.186 447.5 684.5 447.5 687.814 447.5 690.5 450.186 690.5 453.5 690.5 456.814 687.814 459.5 684.5 459.5 681.186 459.5 678.5 456.814 678.5 453.5Z" stroke="#000000" stroke-width="1.33333" stroke-miterlimit="8" fill-rule="evenodd"/><path d="M678.5 474.5C678.5 471.186 681.186 468.5 684.5 468.5 687.814 468.5 690.5 471.186 690.5 474.5 690.5 477.814 687.814 480.5 684.5 480.5 681.186 480.5 678.5 477.814 678.5 474.5Z" stroke="#000000" stroke-width="1.33333" stroke-miterlimit="8" fill-rule="evenodd"/><path d="M384.5 411C384.5 407.41 387.186 404.5 390.5 404.5 393.814 404.5 396.5 407.41 396.5 411 396.5 414.59 393.814 417.5 390.5 417.5 387.186 417.5 384.5 414.59 384.5 411Z" stroke="#000000" stroke-width="1.33333" stroke-miterlimit="8" fill-rule="evenodd"/><path d="M384.5 432.5C384.5 429.186 387.186 426.5 390.5 426.5 393.814 426.5 396.5 429.186 396.5 432.5 396.5 435.814 393.814 438.5 390.5 438.5 387.186 438.5 384.5 435.814 384.5 432.5Z" stroke="#000000" stroke-width="1.33333" stroke-miterlimit="8" fill-rule="evenodd"/><path d="M384.5 453.5C384.5 450.186 387.186 447.5 390.5 447.5 393.814 447.5 396.5 450.186 396.5 453.5 396.5 456.814 393.814 459.5 390.5 459.5 387.186 459.5 384.5 456.814 384.5 453.5Z" stroke="#000000" stroke-width="1.33333" stroke-miterlimit="8" fill-rule="evenodd"/><path d="M384.5 474.5C384.5 471.186 387.186 468.5 390.5 468.5 393.814 468.5 396.5 471.186 396.5 474.5 396.5 477.814 393.814 480.5 390.5 480.5 387.186 480.5 384.5 477.814 384.5 474.5Z" stroke="#000000" stroke-width="1.33333" stroke-miterlimit="8" fill-rule="evenodd"/><text font-family="Calibri,Calibri_MSFontService,sans-serif" font-weight="400" font-size="16" transform="translate(401.841 446)">(43 <tspan x="24.8333" y="0">technologies)</tspan><tspan x="291.802" y="0">(</tspan><tspan x="296.635" y="0">43 </tspan>modes of operation)</text><path d="M1.11852e-05-2 27.545-1.99985 27.545 2.00015-1.11852e-05 2ZM25.545-5.99986 37.545 0.000209974 25.545 6.00014Z" transform="matrix(1 0 0 -1 874 551)"/><text font-family="Calibri,Calibri_MSFontService,sans-serif" font-weight="700" font-size="16" transform="translate(930.257 243)">CRPCP01<tspan font-weight="400" x="-11.3333" y="19">(Demand for </tspan><tspan font-weight="400" x="6.88" y="38">crop 1)</tspan></text><path d="M874 181 962.258 181 962.258 213.083 958.258 213.083 958.258 183 960.258 185 874 185ZM966.258 211.083 960.258 223.083 954.258 211.083Z"/><path d="M0-2 88.2576-2 88.2576 29.0623 84.2576 29.0623 84.2576 0 86.2576 2 0 2ZM92.2576 27.0623 86.2576 39.0623 80.2576 27.0623Z" transform="matrix(1 0 0 -1 874 330.062)"/><text font-family="Calibri,Calibri_MSFontService,sans-serif" font-weight="700" font-size="16" transform="translate(940.801 537)">CRPCP08<tspan font-weight="400" x="-11.3333" y="19">(Demand for </tspan><tspan font-weight="400" x="6.88" y="38">crop 8)</tspan></text><path d="M901.5 411C901.5 407.41 904.41 404.5 908 404.5 911.59 404.5 914.5 407.41 914.5 411 914.5 414.59 911.59 417.5 908 417.5 904.41 417.5 901.5 414.59 901.5 411Z" stroke="#000000" stroke-width="1.33333" stroke-miterlimit="8" fill-rule="evenodd"/><path d="M901.5 432.5C901.5 429.186 904.41 426.5 908 426.5 911.59 426.5 914.5 429.186 914.5 432.5 914.5 435.814 911.59 438.5 908 438.5 904.41 438.5 901.5 435.814 901.5 432.5Z" stroke="#000000" stroke-width="1.33333" stroke-miterlimit="8" fill-rule="evenodd"/><path d="M901.5 453.5C901.5 450.186 904.41 447.5 908 447.5 911.59 447.5 914.5 450.186 914.5 453.5 914.5 456.814 911.59 459.5 908 459.5 904.41 459.5 901.5 456.814 901.5 453.5Z" stroke="#000000" stroke-width="1.33333" stroke-miterlimit="8" fill-rule="evenodd"/><path d="M901.5 474.5C901.5 471.186 904.41 468.5 908 468.5 911.59 468.5 914.5 471.186 914.5 474.5 914.5 477.814 911.59 480.5 908 480.5 904.41 480.5 901.5 477.814 901.5 474.5Z" stroke="#000000" stroke-width="1.33333" stroke-miterlimit="8" fill-rule="evenodd"/><text font-family="Calibri,Calibri_MSFontService,sans-serif" font-weight="400" font-size="16" transform="translate(918.198 448)">(8 crop demands)</text></g></svg>