<svg width="1280" height="720" xmlns="http://www.w3.org/2000/svg" xmlns:xlink="http://www.w3.org/1999/xlink" overflow="hidden"><defs><clipPath id="clip0"><path d="M0 0 1280 0 1280 720 0 720Z" fill-rule="evenodd" clip-rule="evenodd"/></clipPath></defs><g clip-path="url(#clip0)"><rect x="0" y="0" width="1280" height="720" fill="#FFFFFF"/><rect x="824.5" y="77.5001" width="319" height="487" stroke="#000000" stroke-width="1.33333" stroke-miterlimit="8" fill="none"/><rect x="836.5" y="440.5" width="297" height="105" stroke="#000000" stroke-width="1.33333" stroke-miterlimit="8" stroke-dasharray="10.6667 4" fill="#F2F2F2"/><rect x="177.5" y="147.5" width="265" height="188" stroke="#000000" stroke-width="1.33333" stroke-miterlimit="8" fill="#FFFFFF"/><text font-family="Calibri,Calibri_MSFontService,sans-serif" font-weight="700" font-size="16" transform="translate(254.746 235)">LND<tspan fill="#0070C0" x="27.5" y="0">CP01</tspan><tspan fill="#00B050" x="60.8333" y="0">H</tspan><tspan fill="#4472C4" font-size="21" x="71" y="0">R</tspan><tspan fill="#FF0000" x="83" y="0">ET</tspan><tspan fill="#FF0000" x="98.8333" y="0">H</tspan><tspan font-weight="400" x="-59.9267" y="26">(</tspan><tspan fill="#0070C0" font-weight="400" x="-55.0933" y="26">Crop 1</tspan><tspan font-weight="400" x="-12.6867" y="26">|</tspan><tspan fill="#00B050" font-weight="400" x="-5.35333" y="26">High</tspan><tspan font-weight="400" x="24.1467" y="26">|</tspan><tspan fill="#4472C4" font-weight="400" font-size="21" x="31.48" y="26">Rain</tspan><tspan fill="#4472C4" font-weight="400" font-size="21" x="69.3133" y="26">-</tspan><tspan fill="#4472C4" font-weight="400" font-size="21" x="75.8133" y="26">fed</tspan><tspan font-weight="400" x="103.613" y="26">|</tspan><tspan fill="#FF0000" font-weight="400" x="110.947" y="26">Ethiopia</tspan><tspan font-weight="400" x="164.093" y="26">)</tspan><tspan x="679.25" y="-140">LNDAGRETHC01</tspan></text><rect x="839.5" y="103.5" width="297" height="105" stroke="#000000" stroke-width="1.33333" stroke-miterlimit="8" stroke-dasharray="10.6667 4" fill="#F2F2F2"/><text font-family="Calibri,Calibri_MSFontService,sans-serif" font-weight="400" font-size="16" transform="translate(959.963 123)">Mode 1: <tspan x="-74.9933" y="19">Crop 1|High|Rain</tspan><tspan x="39.9133" y="19">-</tspan><tspan x="44.7467" y="19">fed </tspan><tspan x="69.1801" y="19">|Ethiopia</tspan><tspan x="-6.93512" y="337">Mode </tspan><tspan x="35.2316" y="337">4</tspan><tspan x="43.3983" y="337">3</tspan><tspan x="51.5649" y="337">: </tspan><tspan x="-76.4885" y="356">Crop 8|High|Irrigated</tspan><tspan x="64.9648" y="356">|Ethiopia</tspan><tspan x="-635.322" y="256">(</tspan><tspan x="-630.489" y="256">43 </tspan>technologies in total)<tspan x="37.4396" y="245">(</tspan><tspan x="42.2729" y="245">4</tspan><tspan x="50.4396" y="245">3</tspan><tspan x="62.273" y="245">modes of </tspan><tspan x="37.4396" y="264">operation</tspan><tspan x="100.8" y="264">)</tspan></text><path d="M1.11852e-05-2 27.545-1.99985 27.545 2.00015-1.11852e-05 2ZM25.545-5.99986 37.545 0.000209974 25.545 6.00014Z" transform="matrix(1 0 0 -1 1137 486)"/><text font-family="Calibri,Calibri_MSFontService,sans-serif" font-weight="700" font-size="16" transform="translate(1192.64 215)">CRPCP01<tspan font-weight="400" x="-11.3334" y="19">(Demand for </tspan><tspan font-weight="400" x="6.88" y="38">crop 1)</tspan></text><path d="M1136 154 1224.26 154 1224.26 186.083 1220.26 186.083 1220.26 156 1222.26 158 1136 158ZM1228.26 184.083 1222.26 196.083 1216.26 184.083Z"/><path d="M0-2 88.2576-2 88.2576 29.0623 84.2576 29.0623 84.2576 0 86.2576 2 0 2ZM92.2576 27.0623 86.2576 39.0623 80.2576 27.0623Z" transform="matrix(1 0 0 -1 1136 303.062)"/><text font-family="Calibri,Calibri_MSFontService,sans-serif" font-weight="700" font-size="16" transform="translate(1188.46 494)">CRPCP08<tspan font-weight="400" x="-11.3333" y="19">(Demand for </tspan><tspan font-weight="400" x="6.88" y="38">crop 8)</tspan><tspan font-weight="400" x="-3.3689" y="-121">(8 crop </tspan><tspan font-weight="400" x="-3.3689" y="-102">demands)</tspan></text><path d="M40.5001 193 167.436 193 167.436 196 40.5001 196ZM165.936 190 174.936 194.5 165.936 199Z" fill="#0070C0"/><text font-family="Calibri,Calibri_MSFontService,sans-serif" font-weight="400" font-size="19" transform="translate(74.1365 181)">Precipitation</text><path d="M440.5 289 624.521 289 624.521 292 440.5 292ZM623.021 286 632.021 290.5 623.021 295Z" fill="#A5A5A5"/><text font-family="Calibri,Calibri_MSFontService,sans-serif" font-weight="400" font-size="19" transform="translate(456.453 277)">Evapotranspiration<tspan x="23.5167" y="-52">Groundwater </tspan><tspan x="58.29" y="-29">recharge</tspan></text><path d="M0.00649371-1.49999 193.208-0.663584 193.195 2.33639-0.00649371 1.49999ZM191.721-3.67005 200.701 0.868871 191.682 5.32987Z" fill="#0070C0" transform="matrix(1 0 0 -1 443.5 231.369)"/><path d="M443 170 827.748 170 827.748 174 443 174ZM825.748 166 837.748 172 825.748 178Z"/><path d="M44.5001 265 171.436 265 171.436 268 44.5001 268ZM169.936 262 178.936 266.5 169.936 271Z" fill="#ED7D31"/><text font-family="Calibri,Calibri_MSFontService,sans-serif" font-weight="400" font-size="19" transform="translate(57.1291 253)">Land resource</text><path d="M41.5001 315 168.436 315 168.436 318 41.5001 318ZM166.936 312 175.936 316.5 166.936 321Z" fill="#00B050"/><text font-family="Calibri,Calibri_MSFontService,sans-serif" font-weight="400" font-size="19" transform="translate(49.9464 304)">Energy resource</text><rect x="176.5" y="414.5" width="265" height="188" stroke="#000000" stroke-width="1.33333" stroke-miterlimit="8" fill="#FFFFFF"/><text font-family="Calibri,Calibri_MSFontService,sans-serif" font-weight="700" font-size="16" transform="translate(256.892 503)">LND<tspan fill="#0070C0" x="27.5" y="0">CP08</tspan><tspan fill="#00B050" x="60.8333" y="0">H</tspan><tspan fill="#4472C4" font-size="21" x="71" y="0">I</tspan><tspan fill="#FF0000" x="76.6667" y="0">ET</tspan><tspan fill="#FF0000" x="92.5" y="0">H</tspan><tspan font-weight="400" x="-67.4533" y="26">(</tspan><tspan fill="#0070C0" font-weight="400" x="-62.62" y="26">Crop 8</tspan><tspan font-weight="400" x="-20.2133" y="26">|</tspan><tspan fill="#00B050" font-weight="400" x="-12.88" y="26">High</tspan><tspan font-weight="400" x="16.62" y="26">|</tspan><tspan fill="#4472C4" font-weight="400" font-size="21" x="23.9533" y="26">Irrigated</tspan><tspan font-weight="400" x="97.4667" y="26">||</tspan><tspan fill="#FF0000" font-weight="400" x="112.133" y="26">Ethiopia</tspan><tspan font-weight="400" x="165.28" y="26">)</tspan></text><path d="M40.5001 441 167.436 441 167.436 444 40.5001 444ZM165.936 438 174.936 442.5 165.936 447Z" fill="#0070C0"/><text font-family="Calibri,Calibri_MSFontService,sans-serif" font-weight="400" font-size="19" transform="translate(74.1206 429)">Precipitation</text><path d="M439.004 453 824.002 453.865 823.993 457.865 438.996 457ZM822.011 449.861 833.998 455.888 821.984 461.861Z"/><path d="M43.5001 533 170.436 533 170.436 536 43.5001 536ZM168.936 530 177.936 534.5 168.936 539Z" fill="#ED7D31"/><text font-family="Calibri,Calibri_MSFontService,sans-serif" font-weight="400" font-size="19" transform="translate(66.1143 520)">Land resource</text><path d="M40.5001 583 167.436 583 167.436 586 40.5001 586ZM165.936 580 174.936 584.5 165.936 589Z" fill="#00B050"/><text font-family="Calibri,Calibri_MSFontService,sans-serif" font-weight="400" font-size="19" transform="translate(48.9227 571)">Energy resource</text><path d="M40.5001 481 167.436 481 167.436 484 40.5001 484ZM165.936 478 174.936 482.5 165.936 487Z" fill="#0070C0"/><text font-family="Calibri,Calibri_MSFontService,sans-serif" font-weight="400" font-size="19" transform="translate(101.327 469)">Irrigation</text><path d="M296.5 353C296.5 349.41 299.186 346.5 302.5 346.5 305.814 346.5 308.5 349.41 308.5 353 308.5 356.59 305.814 359.5 302.5 359.5 299.186 359.5 296.5 356.59 296.5 353Z" stroke="#000000" stroke-width="1.33333" stroke-miterlimit="8" fill-rule="evenodd"/><path d="M296.5 374.5C296.5 371.186 299.186 368.5 302.5 368.5 305.814 368.5 308.5 371.186 308.5 374.5 308.5 377.814 305.814 380.5 302.5 380.5 299.186 380.5 296.5 377.814 296.5 374.5Z" stroke="#000000" stroke-width="1.33333" stroke-miterlimit="8" fill-rule="evenodd"/><path d="M296.5 395.5C296.5 392.186 299.186 389.5 302.5 389.5 305.814 389.5 308.5 392.186 308.5 395.5 308.5 398.814 305.814 401.5 302.5 401.5 299.186 401.5 296.5 398.814 296.5 395.5Z" stroke="#000000" stroke-width="1.33333" stroke-miterlimit="8" fill-rule="evenodd"/><path d="M968.5 358.5C968.5 355.186 971.186 352.5 974.5 352.5 977.814 352.5 980.5 355.186 980.5 358.5 980.5 361.814 977.814 364.5 974.5 364.5 971.186 364.5 968.5 361.814 968.5 358.5Z" stroke="#000000" stroke-width="1.33333" stroke-miterlimit="8" fill-rule="evenodd"/><path d="M968.5 379.5C968.5 376.186 971.186 373.5 974.5 373.5 977.814 373.5 980.5 376.186 980.5 379.5 980.5 382.814 977.814 385.5 974.5 385.5 971.186 385.5 968.5 382.814 968.5 379.5Z" stroke="#000000" stroke-width="1.33333" stroke-miterlimit="8" fill-rule="evenodd"/><path d="M968.5 401C968.5 397.41 971.186 394.5 974.5 394.5 977.814 394.5 980.5 397.41 980.5 401 980.5 404.59 977.814 407.5 974.5 407.5 971.186 407.5 968.5 404.59 968.5 401Z" stroke="#000000" stroke-width="1.33333" stroke-miterlimit="8" fill-rule="evenodd"/><rect x="840.5" y="221.5" width="298" height="105" stroke="#000000" stroke-width="1.33333" stroke-miterlimit="8" stroke-dasharray="10.6667 4" fill="#F2F2F2"/><text font-family="Calibri,Calibri_MSFontService,sans-serif" font-weight="400" font-size="16" transform="translate(961.628 241)">Mode 2: <tspan x="-73.5467" y="19">Crop 1|Low|Rain</tspan><tspan x="38.4667" y="19">-</tspan><tspan x="43.3" y="19">fed </tspan><tspan x="67.7333" y="19">|Ethiopia</tspan></text><path d="M0-1.5 66.1268-1.5 66.1268 103.004 64.6268 101.504 121.754 101.504 121.754 104.504 63.1268 104.504 63.1268 0 64.6268 1.5 0 1.5ZM120.254 98.5036 129.254 103.004 120.254 107.504Z" transform="matrix(1 0 0 -1 709.5 373.504)"/><path d="M1163.5 357.5C1163.5 354.186 1166.19 351.5 1169.5 351.5 1172.81 351.5 1175.5 354.186 1175.5 357.5 1175.5 360.814 1172.81 363.5 1169.5 363.5 1166.19 363.5 1163.5 360.814 1163.5 357.5Z" stroke="#000000" stroke-width="1.33333" stroke-miterlimit="8" fill-rule="evenodd"/><path d="M1163.5 378.5C1163.5 375.186 1166.19 372.5 1169.5 372.5 1172.81 372.5 1175.5 375.186 1175.5 378.5 1175.5 381.814 1172.81 384.5 1169.5 384.5 1166.19 384.5 1163.5 381.814 1163.5 378.5Z" stroke="#000000" stroke-width="1.33333" stroke-miterlimit="8" fill-rule="evenodd"/><path d="M1163.5 399.5C1163.5 396.186 1166.19 393.5 1169.5 393.5 1172.81 393.5 1175.5 396.186 1175.5 399.5 1175.5 402.814 1172.81 405.5 1169.5 405.5 1166.19 405.5 1163.5 402.814 1163.5 399.5Z" stroke="#000000" stroke-width="1.33333" stroke-miterlimit="8" fill-rule="evenodd"/><path d="M441.5 321 584.239 321 584.239 324 441.5 324ZM582.739 318 591.739 322.5 582.739 327Z" fill="#7030A0"/><text font-family="Calibri,Calibri_MSFontService,sans-serif" font-weight="400" font-size="19" transform="translate(489.109 316)">Run<tspan x="29.8333" y="0">-</tspan><tspan x="35.5" y="0">off</tspan></text><path d="M440.5 552 624.521 552 624.521 555 440.5 555ZM623.021 549 632.021 553.5 623.021 558Z" fill="#A5A5A5"/><text font-family="Calibri,Calibri_MSFontService,sans-serif" font-weight="400" font-size="19" transform="translate(459.455 544)">Evapotranspiration<tspan x="20.4638" y="-55">Groundwater </tspan><tspan x="55.2371" y="-32">recharge</tspan></text><path d="M0.00649371-1.49999 193.208-0.663584 193.195 2.33639-0.00649371 1.49999ZM191.721-3.67005 200.701 0.868871 191.682 5.32987Z" fill="#0070C0" transform="matrix(1 0 0 -1 441.5 495.369)"/><path d="M441.5 584 584.239 584 584.239 587 441.5 587ZM582.739 581 591.739 585.5 582.739 590Z" fill="#7030A0"/><text font-family="Calibri,Calibri_MSFontService,sans-serif" font-weight="400" font-size="19" transform="translate(489.109 580)">Run<tspan x="29.8333" y="0">-</tspan><tspan x="35.5" y="0">off</tspan></text><path d="M0-1.5 392.383-1.5 392.33 222.31 389.33 222.31 389.383-0.000355962 390.883 1.5 0 1.5ZM395.38 220.969 390.566 229.805 386.386 220.653Z" fill="#0070C0" transform="matrix(-4.37114e-08 1 1 4.37114e-08 643.5 229.5)"/><path d="M0-1.5 387.411-1.5 387.411 206.919 384.411 206.919 384.411 0 385.911 1.5 0 1.5ZM390.411 205.419 385.911 214.419 381.411 205.419Z" fill="#A5A5A5" transform="matrix(-4.37114e-08 1 1 4.37114e-08 626.5 288.5)"/><rect x="873.5" y="602.5" width="168" height="32" stroke="#0070C0" stroke-width="3" stroke-linejoin="round" stroke-miterlimit="10" fill="none"/><text font-family="Calibri,Calibri_MSFontService,sans-serif" font-weight="400" font-size="19" transform="translate(906.304 623)">Groundwater</text><rect x="840.5" y="657.5" width="168" height="33" stroke="#A5A5A5" stroke-width="3" stroke-linejoin="round" stroke-miterlimit="10" fill="none"/><text font-family="Calibri,Calibri_MSFontService,sans-serif" font-weight="400" font-size="19" transform="translate(852.253 679)">Evapotranspiration<tspan x="-183.814" y="32">Towards end</tspan><tspan x="-87.8409" y="32">-</tspan><tspan x="-82.1743" y="32">uses</tspan></text><path d="M0-1.5 385.46-1.5 385.46 57.0192 382.46 57.0192 382.46 0 383.96 1.5 0 1.5ZM388.46 55.5192 383.96 64.5192 379.46 55.5192Z" fill="#7030A0" transform="matrix(-4.37114e-08 1 1 4.37114e-08 590.5 322.5)"/></g></svg>