<svg xmlns="http://www.w3.org/2000/svg" xmlns:xlink="http://www.w3.org/1999/xlink" xmlns:lucid="lucid" width="1400" height="1107"><g transform="translate(-55 -1209)" lucid:page-tab-id="64BbHKmIaJ1b8"><g class="lucid-layer" lucid:layer-id="54r27JG-rWGy" display="block"><path d="M80 1237c0-2.76 2.24-5 5-5h876.64c2.76 0 5 2.24 5 5v634c0 2.76 2.24 4.98 5 4.96l447.36-3.92c2.76-.02 5 2.2 5 4.96v406c0 2.76-2.24 5-5 5H85c-2.76 0-5-2.24-5-5z" stroke="#000" stroke-opacity=".5" stroke-width="2" fill="#fff"/><path d="M1104 1237c0-2.76 2.24-5 5-5h310c2.76 0 5 2.24 5 5v598c0 2.76-2.24 5-5 5h-310c-2.76 0-5-2.24-5-5z" stroke="#000" stroke-opacity=".5" stroke-width="2" fill="#fff"/><path d="M1104 1237c0-2.76 2.24-5 5-5h310c2.76 0 5 2.24 5 5v26.63c0 2.76-2.24 5-5 5h-310c-2.76 0-5-2.24-5-5z" stroke="#000" stroke-opacity="0" stroke-width="2" fill="#fff" fill-opacity="0"/><use xlink:href="#a" transform="matrix(1,0,0,1,1124,1232) translate(78.63606770833333 29.551432291666668)"/><path d="M496 1300h368v956H496z" stroke="#000" stroke-width="1.33" fill="#e5e5e5"/><path d="M858.17 1364h264.2" stroke="#c92d39" stroke-width="3" fill="none"/><path d="M858.2 1365.5h-1.53v-3h1.54z" fill="#c92d39"/><path d="M1138.15 1364l-14.27 4.64v-9.28z" stroke="#c92d39" stroke-width="3" fill="#c92d39"/><path d="M504 1358.67c0-5.9 4.78-10.67 10.67-10.67h330.66c5.9 0 10.67 4.78 10.67 10.67v10.66c0 5.9-4.78 10.67-10.67 10.67H514.67c-5.9 0-10.67-4.78-10.67-10.67z" stroke="#666" stroke-width="1.33" fill="#ffbbb1"/><use xlink:href="#b" transform="matrix(1,0,0,1,524,1348) translate(190.06640625 22.8408203125)"/><use xlink:href="#c" transform="matrix(1,0,0,1,524,1348) translate(264.55859375 22.8408203125)"/><use xlink:href="#d" transform="matrix(1,0,0,1,524,1348) translate(275.310546875 22.8408203125)"/><path d="M858.17 1396h131.66c5.53 0 10-4.48 10-10v-12c0-5.52 4.48-10 10-10h112.55" stroke="#c92d39" stroke-width="3" fill="none"/><path d="M858.2 1397.5h-1.53v-3h1.54z" fill="#c92d39"/><path d="M1138.15 1364l-14.27 4.64v-9.28z" stroke="#c92d39" stroke-width="3" fill="#c92d39"/><path d="M504 1390.67c0-5.9 4.78-10.67 10.67-10.67h330.66c5.9 0 10.67 4.78 10.67 10.67v10.66c0 5.9-4.78 10.67-10.67 10.67H514.67c-5.9 0-10.67-4.78-10.67-10.67z" stroke="#666" stroke-width="1.33" fill="#ffbbb1"/><use xlink:href="#b" transform="matrix(1,0,0,1,524,1380) translate(115.583984375 22.8408203125)"/><use xlink:href="#c" transform="matrix(1,0,0,1,524,1380) translate(190.076171875 22.8408203125)"/><use xlink:href="#e" transform="matrix(1,0,0,1,524,1380) translate(200.828125 22.8408203125)"/><path d="M857.27 1428h132.1c5.54 0 10-4.48 10-10v-44c0-5.52 4.5-10 10-10h113" stroke="#c92d39" stroke-width="3" fill="none"/><path d="M857.3 1429.5h-1.53v-3h1.54z" fill="#c92d39"/><path d="M1138.15 1364l-14.27 4.64v-9.28z" stroke="#c92d39" stroke-width="3" fill="#c92d39"/><path d="M857.27 1428h132.1c5.54 0 10-4.48 10-10v-44c0-5.52 4.5-10 10-10h113" stroke="#c92d39" stroke-width="3" fill="none"/><path d="M857.3 1429.5h-1.53v-3h1.54z" fill="#c92d39"/><path d="M1138.15 1364l-14.27 4.64v-9.28z" stroke="#c92d39" stroke-width="3" fill="#c92d39"/><path d="M503.1 1422.67c0-5.9 4.78-10.67 10.67-10.67h330.66c5.9 0 10.67 4.78 10.67 10.67v10.66c0 5.9-4.78 10.67-10.67 10.67H513.77c-5.9 0-10.67-4.78-10.67-10.67z" stroke="#666" stroke-width="1.33" fill="#ffbbb1"/><use xlink:href="#b" transform="matrix(1,0,0,1,523.0999999999999,1412) translate(185.623046875 22.8408203125)"/><use xlink:href="#c" transform="matrix(1,0,0,1,523.0999999999999,1412) translate(260.115234375 22.8408203125)"/><use xlink:href="#f" transform="matrix(1,0,0,1,523.0999999999999,1412) translate(270.8671875 22.8408203125)"/><path d="M857.27 1460h132.1c5.54 0 10-4.48 10-10v-76c0-5.52 4.5-10 10-10h113" stroke="#c92d39" stroke-width="3" fill="none"/><path d="M857.3 1461.5h-1.53v-3h1.54z" fill="#c92d39"/><path d="M1138.15 1364l-14.27 4.64v-9.28z" stroke="#c92d39" stroke-width="3" fill="#c92d39"/><path d="M503.1 1454.67c0-5.9 4.78-10.67 10.67-10.67h330.66c5.9 0 10.67 4.78 10.67 10.67v10.66c0 5.9-4.78 10.67-10.67 10.67H513.77c-5.9 0-10.67-4.78-10.67-10.67z" stroke="#666" stroke-width="1.33" fill="#ffbbb1"/><use xlink:href="#g" transform="matrix(1,0,0,1,523.0999999999999,1444) translate(111.150390625 22.8408203125)"/><use xlink:href="#c" transform="matrix(1,0,0,1,523.0999999999999,1444) translate(190.076171875 22.8408203125)"/><use xlink:href="#e" transform="matrix(1,0,0,1,523.0999999999999,1444) translate(200.828125 22.8408203125)"/><path d="M857.27 1492h132.1c5.54 0 10-4.48 10-10v-108c0-5.52 4.5-10 10-10h113" stroke="#c92d39" stroke-width="3" fill="none"/><path d="M857.3 1493.5h-1.53v-3h1.54z" fill="#c92d39"/><path d="M1138.15 1364l-14.27 4.64v-9.28z" stroke="#c92d39" stroke-width="3" fill="#c92d39"/><path d="M503.1 1486.67c0-5.9 4.78-10.67 10.67-10.67h330.66c5.9 0 10.67 4.78 10.67 10.67v10.66c0 5.9-4.78 10.67-10.67 10.67H513.77c-5.9 0-10.67-4.78-10.67-10.67z" stroke="#666" stroke-width="1.33" fill="#ffbbb1"/><use xlink:href="#g" transform="matrix(1,0,0,1,523.0999999999999,1476) translate(181.189453125 22.8408203125)"/><use xlink:href="#c" transform="matrix(1,0,0,1,523.0999999999999,1476) translate(260.115234375 22.8408203125)"/><use xlink:href="#f" transform="matrix(1,0,0,1,523.0999999999999,1476) translate(270.8671875 22.8408203125)"/><path d="M496 1300h368v32H496z" stroke="#000" stroke-opacity=".5" stroke-width="1.33" fill="#e5e5e5"/><use xlink:href="#h" transform="matrix(1,0,0,1,516,1300) translate(85.54622395833331 24.683268229166668)"/><use xlink:href="#i" transform="matrix(1,0,0,1,516,1300) translate(176.55642361111111 24.683268229166668)"/><use xlink:href="#j" transform="matrix(1,0,0,1,516,1300) translate(196.94270833333334 24.683268229166668)"/><use xlink:href="#k" transform="matrix(1,0,0,1,516,1300) translate(226.14952256944446 24.683268229166668)"/><path d="M856.57 1620H1014c5.52 0 10-4.48 10-10v-130c0-5.52 4.48-10 10-10h88.38" stroke="#ef8d22" stroke-width="3" fill="none"/><path d="M856.6 1621.5h-1.53v-3h1.54z" fill="#ef8d22"/><path d="M1138.15 1470l-14.27 4.64v-9.28z" stroke="#ef8d22" stroke-width="3" fill="#ef8d22"/><path d="M502.4 1614.67c0-5.9 4.78-10.67 10.67-10.67h330.66c5.9 0 10.67 4.78 10.67 10.67v10.66c0 5.9-4.78 10.67-10.67 10.67H513.07c-5.9 0-10.67-4.78-10.67-10.67z" stroke="#666" stroke-width="1.33" fill="#ffdba9"/><use xlink:href="#b" transform="matrix(1,0,0,1,522.4000000000001,1604) translate(190.06640625 22.8408203125)"/><use xlink:href="#c" transform="matrix(1,0,0,1,522.4000000000001,1604) translate(264.55859375 22.8408203125)"/><use xlink:href="#d" transform="matrix(1,0,0,1,522.4000000000001,1604) translate(275.310546875 22.8408203125)"/><path d="M856.57 1652H1014c5.52 0 10-4.48 10-10v-162c0-5.52 4.48-10 10-10h88.38" stroke="#ef8d22" stroke-width="3" fill="none"/><path d="M856.6 1653.5h-1.53v-3h1.54z" fill="#ef8d22"/><path d="M1138.15 1470l-14.27 4.64v-9.28z" stroke="#ef8d22" stroke-width="3" fill="#ef8d22"/><path d="M502.4 1646.67c0-5.9 4.78-10.67 10.67-10.67h330.66c5.9 0 10.67 4.78 10.67 10.67v10.66c0 5.9-4.78 10.67-10.67 10.67H513.07c-5.9 0-10.67-4.78-10.67-10.67z" stroke="#666" stroke-width="1.33" fill="#ffdba9"/><use xlink:href="#b" transform="matrix(1,0,0,1,522.4000000000001,1636) translate(115.583984375 22.8408203125)"/><use xlink:href="#c" transform="matrix(1,0,0,1,522.4000000000001,1636) translate(190.076171875 22.8408203125)"/><use xlink:href="#e" transform="matrix(1,0,0,1,522.4000000000001,1636) translate(200.828125 22.8408203125)"/><path d="M856.57 1684H1014c5.52 0 10-4.48 10-10v-194c0-5.52 4.48-10 10-10h88.38" stroke="#ef8d22" stroke-width="3" fill="none"/><path d="M856.6 1685.5h-1.53v-3h1.54z" fill="#ef8d22"/><path d="M1138.15 1470l-14.27 4.64v-9.28z" stroke="#ef8d22" stroke-width="3" fill="#ef8d22"/><path d="M502.4 1678.67c0-5.9 4.78-10.67 10.67-10.67h330.66c5.9 0 10.67 4.78 10.67 10.67v10.66c0 5.9-4.78 10.67-10.67 10.67H513.07c-5.9 0-10.67-4.78-10.67-10.67z" stroke="#666" stroke-width="1.33" fill="#ffdba9"/><use xlink:href="#b" transform="matrix(1,0,0,1,522.4000000000001,1668) translate(185.623046875 22.8408203125)"/><use xlink:href="#c" transform="matrix(1,0,0,1,522.4000000000001,1668) translate(260.115234375 22.8408203125)"/><use xlink:href="#f" transform="matrix(1,0,0,1,522.4000000000001,1668) translate(270.8671875 22.8408203125)"/><path d="M856.57 1716H1014c5.52 0 10-4.48 10-10v-226c0-5.52 4.48-10 10-10h88.38" stroke="#ef8d22" stroke-width="3" fill="none"/><path d="M856.6 1717.5h-1.53v-3h1.54z" fill="#ef8d22"/><path d="M1138.15 1470l-14.27 4.64v-9.28z" stroke="#ef8d22" stroke-width="3" fill="#ef8d22"/><path d="M502.4 1710.67c0-5.9 4.78-10.67 10.67-10.67h330.66c5.9 0 10.67 4.78 10.67 10.67v10.66c0 5.9-4.78 10.67-10.67 10.67H513.07c-5.9 0-10.67-4.78-10.67-10.67z" stroke="#666" stroke-width="1.33" fill="#ffdba9"/><use xlink:href="#g" transform="matrix(1,0,0,1,522.4000000000001,1700) translate(111.150390625 22.8408203125)"/><use xlink:href="#c" transform="matrix(1,0,0,1,522.4000000000001,1700) translate(190.076171875 22.8408203125)"/><use xlink:href="#e" transform="matrix(1,0,0,1,522.4000000000001,1700) translate(200.828125 22.8408203125)"/><path d="M856.57 1748H1014c5.52 0 10-4.48 10-10v-258c0-5.52 4.48-10 10-10h88.38" stroke="#ef8d22" stroke-width="3" fill="none"/><path d="M856.6 1749.5h-1.53v-3h1.54z" fill="#ef8d22"/><path d="M1138.15 1470l-14.27 4.64v-9.28z" stroke="#ef8d22" stroke-width="3" fill="#ef8d22"/><path d="M502.4 1742.67c0-5.9 4.78-10.67 10.67-10.67h330.66c5.9 0 10.67 4.78 10.67 10.67v10.66c0 5.9-4.78 10.67-10.67 10.67H513.07c-5.9 0-10.67-4.78-10.67-10.67z" stroke="#666" stroke-width="1.33" fill="#ffdba9"/><use xlink:href="#g" transform="matrix(1,0,0,1,522.4000000000001,1732) translate(181.189453125 22.8408203125)"/><use xlink:href="#c" transform="matrix(1,0,0,1,522.4000000000001,1732) translate(260.115234375 22.8408203125)"/><use xlink:href="#f" transform="matrix(1,0,0,1,522.4000000000001,1732) translate(270.8671875 22.8408203125)"/><path d="M504 1790.67c0-5.9 4.78-10.67 10.67-10.67h330.66c5.9 0 10.67 4.78 10.67 10.67v58.66c0 5.9-4.78 10.67-10.67 10.67H514.67c-5.9 0-10.67-4.78-10.67-10.67z" stroke="#666" stroke-width="1.33" fill="#999"/><use xlink:href="#l" transform="matrix(1,0,0,1,524,1780) translate(100.4287109375 47.1044921875)"/><use xlink:href="#m" transform="matrix(1,0,0,1,524,1780) translate(170.4580078125 47.1044921875)"/><path d="M858.17 1916H1038c5.52 0 10-4.48 10-10v-320c0-5.52 4.48-10 10-10h64.38" stroke="#834187" stroke-width="3" fill="none"/><path d="M858.2 1917.5h-1.53v-3h1.54z" fill="#834187"/><path d="M1138.15 1576l-14.27 4.64v-9.28z" stroke="#834187" stroke-width="3" fill="#834187"/><path d="M504 1886.67c0-5.9 4.78-10.67 10.67-10.67h330.66c5.9 0 10.67 4.78 10.67 10.67v58.66c0 5.9-4.78 10.67-10.67 10.67H514.67c-5.9 0-10.67-4.78-10.67-10.67z" stroke="#666" stroke-width="1.33" fill="#b391b5"/><use xlink:href="#n" transform="matrix(1,0,0,1,524,1876) translate(94.9013671875 47.1044921875)"/><use xlink:href="#m" transform="matrix(1,0,0,1,524,1876) translate(175.9853515625 47.1044921875)"/><path d="M858.17 2012H1054c5.52 0 10-4.48 10-10v-310c0-5.52 4.48-10 10-10h48.38" stroke="#7ab648" stroke-width="3" fill="none"/><path d="M858.2 2013.5h-1.53v-3h1.54z" fill="#7ab648"/><path d="M1138.15 1682l-14.27 4.64v-9.28z" stroke="#7ab648" stroke-width="3" fill="#7ab648"/><path d="M504 1982.67c0-5.9 4.78-10.67 10.67-10.67h330.66c5.9 0 10.67 4.78 10.67 10.67v58.66c0 5.9-4.78 10.67-10.67 10.67H514.67c-5.9 0-10.67-4.78-10.67-10.67z" stroke="#666" stroke-width="1.33" fill="#7ab648"/><use xlink:href="#o" transform="matrix(1,0,0,1,524,1972) translate(119.876953125 47.1044921875)"/><path d="M858.17 2108H1070c5.52 0 10-4.48 10-10v-300c0-5.52 4.48-10 10-10h32.38" stroke="#19967d" stroke-width="3" fill="none"/><path d="M858.2 2109.5h-1.53v-3h1.54z" fill="#19967d"/><path d="M1138.15 1788l-14.27 4.64v-9.28z" stroke="#19967d" stroke-width="3" fill="#19967d"/><path d="M504 2078.67c0-5.9 4.78-10.67 10.67-10.67h330.66c5.9 0 10.67 4.78 10.67 10.67v58.66c0 5.9-4.78 10.67-10.67 10.67H514.67c-5.9 0-10.67-4.78-10.67-10.67z" stroke="#666" stroke-width="1.33" fill="#19967d"/><use xlink:href="#p" transform="matrix(1,0,0,1,524,2068) translate(25.970703125 47.1044921875)"/><use xlink:href="#q" transform="matrix(1,0,0,1,524,2068) translate(140.47265625 47.1044921875)"/><use xlink:href="#r" transform="matrix(1,0,0,1,524,2068) translate(181.5859375 47.1044921875)"/><path d="M504 2174.67c0-5.9 4.78-10.67 10.67-10.67h330.66c5.9 0 10.67 4.78 10.67 10.67v58.66c0 5.9-4.78 10.67-10.67 10.67H514.67c-5.9 0-10.67-4.78-10.67-10.67z" stroke="#666" stroke-width="1.33" fill="#3aa6dd"/><use xlink:href="#s" transform="matrix(1,0,0,1,524,2164) translate(93.5830078125 47.1044921875)"/><use xlink:href="#t" transform="matrix(1,0,0,1,524,2164) translate(153.9638671875 47.1044921875)"/><path d="M1144 1339c0-2.76 2.24-5 5-5h230c2.76 0 5 2.24 5 5v50c0 2.76-2.24 5-5 5h-230c-2.76 0-5-2.24-5-5z" stroke="#666" stroke-width="2" fill="#ffbbb1"/><use xlink:href="#u" transform="matrix(1,0,0,1,1164,1334) translate(27.2119140625 37.1044921875)"/><use xlink:href="#v" transform="matrix(1,0,0,1,1164,1334) translate(79.4287109375 37.1044921875)"/><use xlink:href="#w" transform="matrix(1,0,0,1,1164,1334) translate(96.1083984375 37.1044921875)"/><path d="M1144 1445c0-2.76 2.24-5 5-5h230c2.76 0 5 2.24 5 5v50c0 2.76-2.24 5-5 5h-230c-2.76 0-5-2.24-5-5z" stroke="#666" stroke-width="2" fill="#ff8000" fill-opacity=".3"/><use xlink:href="#u" transform="matrix(1,0,0,1,1164,1440) translate(26.2841796875 37.1044921875)"/><use xlink:href="#x" transform="matrix(1,0,0,1,1164,1440) translate(78.5009765625 37.1044921875)"/><use xlink:href="#w" transform="matrix(1,0,0,1,1164,1440) translate(97.0361328125 37.1044921875)"/><path d="M1144 1657c0-2.76 2.24-5 5-5h230c2.76 0 5 2.24 5 5v50c0 2.76-2.24 5-5 5h-230c-2.76 0-5-2.24-5-5z" stroke="#666" stroke-width="2" fill="#7ab648"/><use xlink:href="#y" transform="matrix(1,0,0,1,1164,1652) translate(14.4287109375 37.1044921875)"/><use xlink:href="#z" transform="matrix(1,0,0,1,1164,1652) translate(100.0146484375 37.1044921875)"/><path d="M1144 1551c0-2.76 2.24-5 5-5h230c2.76 0 5 2.24 5 5v50c0 2.76-2.24 5-5 5h-230c-2.76 0-5-2.24-5-5z" stroke="#666" stroke-width="2" fill="#b391b5"/><use xlink:href="#A" transform="matrix(1,0,0,1,1164,1546) translate(3.8720703125 27.1962890625)"/><use xlink:href="#B" transform="matrix(1,0,0,1,1164,1546) translate(67.2119140625 27.1962890625)"/><use xlink:href="#C" transform="matrix(1,0,0,1,1164,1546) translate(18.3154296875 47.0126953125)"/><use xlink:href="#D" transform="matrix(1,0,0,1,1164,1546) translate(141.6650390625 47.0126953125)"/><path d="M1144 1763c0-2.76 2.24-5 5-5h230c2.76 0 5 2.24 5 5v50c0 2.76-2.24 5-5 5h-230c-2.76 0-5-2.24-5-5z" stroke="#666" stroke-width="2" fill="#19967d"/><use xlink:href="#E" transform="matrix(1,0,0,1,1164,1758) translate(53.8671875 37.1044921875)"/><path d="M1161.3 1936.83c-.72-2.67.94-4.83 3.7-4.83h214c2.76 0 4.42 2.16 3.7 4.83l-18.75 70.34c-.7 2.67-3.52 4.83-6.28 4.83h-171.34c-2.76 0-5.57-2.16-6.28-4.83z" stroke="#666" stroke-width="2" fill="#3aa6dd"/><use xlink:href="#F" transform="matrix(1,0,0,1,1216,1932) translate(-35.1279296875 47.1044921875)"/><path d="M1150.33 1969.02H925c-2.76 0-5-2.24-5-5v-585.46c0-2.76-2.24-5-5-5h-58.24" stroke="#0c7cba" stroke-width="2" fill="none"/><path d="M1165.6 1969.02l-14.27 4.63v-9.27z" stroke="#0c7cba" stroke-width="2" fill="#0c7cba"/><path d="M856.78 1374.56h-1.44l.83-2h.6z" fill="#0c7cba"/><path d="M1150.33 1969.02H925c-2.76 0-5-2.24-5-5v-550.9c0-2.76-2.24-5-5-5h-59.7" stroke="#0c7cba" stroke-width="2" fill="none"/><path d="M1165.6 1969.02l-14.27 4.63v-9.27z" stroke="#0c7cba" stroke-width="2" fill="#0c7cba"/><path d="M855.32 1409.12h-1.8l1.54-2h.26z" fill="#0c7cba"/><path d="M1150.33 1969.02H925c-2.76 0-5-2.24-5-5v-518.7c0-2.75-2.24-5-5-5h-60.76" stroke="#0c7cba" stroke-width="2" fill="none"/><path d="M1165.6 1969.02l-14.27 4.63v-9.27z" stroke="#0c7cba" stroke-width="2" fill="#0c7cba"/><path d="M854.26 1441.33h-1.8l1.54-2h.26z" fill="#0c7cba"/><path d="M1150.33 1969.02H925c-2.76 0-5-2.24-5-5v-488.84c0-2.76-2.24-5-5-5h-59.4" stroke="#0c7cba" stroke-width="2" fill="none"/><path d="M1165.6 1969.02l-14.27 4.63v-9.27z" stroke="#0c7cba" stroke-width="2" fill="#0c7cba"/><path d="M855.62 1471.18h-1.5l.14-.18.75-1.82h.62z" fill="#0c7cba"/><path d="M1150.33 1969.02H925c-2.76 0-5-2.24-5-5v-455.14c0-2.76-2.24-5-5-5h-60.42" stroke="#0c7cba" stroke-width="2" fill="none"/><path d="M1165.6 1969.02l-14.27 4.63v-9.27z" stroke="#0c7cba" stroke-width="2" fill="#0c7cba"/><path d="M854.6 1504.88h-1.8l1.46-1.88.05-.12h.3z" fill="#0c7cba"/><path d="M1150.33 1969.02H925c-2.76 0-5-2.24-5-5v-326.2c0-2.75-2.24-5-5-5h-61.85" stroke="#0c7cba" stroke-width="2" fill="none"/><path d="M1165.6 1969.02l-14.27 4.63v-9.27z" stroke="#0c7cba" stroke-width="2" fill="#0c7cba"/><path d="M853.18 1633.83h-2.05l.62-.48 1.17-1.52h.26z" fill="#0c7cba"/><path d="M1150.33 1969.02H925c-2.76 0-5-2.24-5-5V1668.7c0-2.77-2.24-5-5-5h-60.98" stroke="#0c7cba" stroke-width="2" fill="none"/><path d="M1165.6 1969.02l-14.27 4.63v-9.27z" stroke="#0c7cba" stroke-width="2" fill="#0c7cba"/><path d="M854.05 1664.7h-1.8l1.3-1.7.13-.3h.37z" fill="#0c7cba"/><path d="M1150.33 1969.02H925c-2.76 0-5-2.24-5-5v-266.34c0-2.76-2.24-5-5-5h-59.48" stroke="#0c7cba" stroke-width="2" fill="none"/><path d="M1165.6 1969.02l-14.27 4.63v-9.27z" stroke="#0c7cba" stroke-width="2" fill="#0c7cba"/><path d="M855.54 1693.68h-1.44l.6-1.4.06-.6h.78z" fill="#0c7cba"/><path d="M1150.33 1969.02H925c-2.76 0-5-2.24-5-5V1730.5c0-2.76-2.24-5-5-5h-59.82" stroke="#0c7cba" stroke-width="2" fill="none"/><path d="M1165.6 1969.02l-14.27 4.63v-9.27z" stroke="#0c7cba" stroke-width="2" fill="#0c7cba"/><path d="M855.2 1726.5h-1.44l.83-2h.6z" fill="#0c7cba"/><path d="M1150.33 1969.02H925c-2.76 0-5-2.24-5-5v-200.44c0-2.77-2.24-5-5-5h-60.27" stroke="#0c7cba" stroke-width="2" fill="none"/><path d="M1165.6 1969.02l-14.27 4.63v-9.27z" stroke="#0c7cba" stroke-width="2" fill="#0c7cba"/><path d="M854.76 1759.58h-1.65l.46-.58.6-1.42h.6z" fill="#0c7cba"/><path d="M1161.3 2044.83c-.72-2.67.94-4.83 3.7-4.83h214c2.76 0 4.42 2.16 3.7 4.83l-18.75 70.34c-.7 2.67-3.52 4.83-6.28 4.83h-171.34c-2.76 0-5.57-2.16-6.28-4.83z" stroke="#666" stroke-width="2" fill="#3aa6dd"/><use xlink:href="#G" transform="matrix(1,0,0,1,1216,2040) translate(-6.2265625 38.84765625)"/><use xlink:href="#H" transform="matrix(1,0,0,1,1216,2040) translate(13.75390625 55.361328125)"/><path d="M1150.33 1969.02H925c-2.76 0-5-2.24-5-5v-120.38c0-2.76-2.24-5-5-5h-57.33" stroke="#0c7cba" stroke-width="2" fill="none"/><path d="M1165.6 1969.02l-14.27 4.63v-9.27z" stroke="#0c7cba" stroke-width="2" fill="#0c7cba"/><path d="M857.7 1839.64h-1.03v-2h1.02z" fill="#0c7cba"/><path d="M1150.33 1969.02H925c-2.76 0-5-2.24-5-5v-17.5c0-2.76-2.24-5-5-5h-57.33" stroke="#0c7cba" stroke-width="2" fill="none"/><path d="M1165.6 1969.02l-14.27 4.63v-9.27z" stroke="#0c7cba" stroke-width="2" fill="#0c7cba"/><path d="M857.7 1942.52h-1.03v-2h1.02z" fill="#0c7cba"/><path d="M1150.33 1969.02H925c-2.76 0-5 2.24-5 5v62.6c0 2.76-2.24 5-5 5h-59.5" stroke="#0c7cba" stroke-width="2" fill="none"/><path d="M1165.6 1969.02l-14.27 4.63v-9.27z" stroke="#0c7cba" stroke-width="2" fill="#0c7cba"/><path d="M855.53 2041.62h-4.02" stroke="#0c7cba" stroke-width="2" fill="none"/><path d="M1161.3 2152.83c-.72-2.67.94-4.83 3.7-4.83h214c2.76 0 4.42 2.16 3.7 4.83l-18.75 70.34c-.7 2.67-3.52 4.83-6.28 4.83h-171.34c-2.76 0-5.57-2.16-6.28-4.83z" stroke="#666" stroke-width="2" fill="#3aa6dd"/><use xlink:href="#I" transform="matrix(1,0,0,1,1216,2148) translate(19.3154296875 38.84765625)"/><use xlink:href="#J" transform="matrix(1,0,0,1,1216,2148) translate(23.79296875 55.361328125)"/><path d="M161.3 1331.8c-.72-2.66.94-4.82 3.7-4.82h214c2.76 0 4.42 2.16 3.7 4.83l-18.75 70.35c-.7 2.67-3.52 4.83-6.28 4.83H186.33c-2.76 0-5.57-2.16-6.28-4.83z" stroke="#666" stroke-width="2" fill="#3aa6dd"/><use xlink:href="#K" transform="matrix(1,0,0,1,216,1326.9810427346113) translate(-4.56640625 47.1044921875)"/><path d="M161.3 1528.83c-.72-2.67.94-4.83 3.7-4.83h214c2.76 0 4.42 2.16 3.7 4.83l-18.75 70.34c-.7 2.67-3.52 4.83-6.28 4.83H186.33c-2.76 0-5.57-2.16-6.28-4.83z" stroke="#666" stroke-width="2" fill="#3aa6dd"/><use xlink:href="#L" transform="matrix(1,0,0,1,216,1524) translate(12.6650390625 47.1044921875)"/><path d="M1376.16 2077.02H1388c2.76 0 5 2.24 5 5V2267c0 2.76-2.24 5-5 5H124c-2.76 0-5-2.24-5-5v-714.76c0-2.76 2.24-5 5-5h22.66" stroke="#0c7cba" stroke-width="2" fill="none"/><path d="M1376.2 2078.02h-1.3l.53-2h.76z" fill="#0c7cba"/><path d="M161.93 1547.24l-14.27 4.64v-9.27z" stroke="#0c7cba" stroke-width="2" fill="#0c7cba"/><path d="M376.16 1364H411c2.76 0 5 2.24 5 5v22c0 2.76 2.24 5 5 5h63.83" stroke="#0c7cba" stroke-width="2" fill="none"/><path d="M376.2 1365h-1.3l.53-2h.76z" fill="#0c7cba"/><path d="M500.1 1396l-14.27 4.64v-9.28z" stroke="#0c7cba" stroke-width="2" fill="#0c7cba"/><path d="M376.16 1364H411c2.76 0 5 2.24 5 5v54c0 2.76 2.24 5 5 5h62.93" stroke="#0c7cba" stroke-width="2" fill="none"/><path d="M376.2 1365h-1.3l.53-2h.76z" fill="#0c7cba"/><path d="M499.2 1428l-14.27 4.64v-9.28z" stroke="#0c7cba" stroke-width="2" fill="#0c7cba"/><path d="M376.16 1364H411c2.76 0 5 2.24 5 5v86c0 2.76 2.24 5 5 5h62.93" stroke="#0c7cba" stroke-width="2" fill="none"/><path d="M376.2 1365h-1.3l.53-2h.76z" fill="#0c7cba"/><path d="M499.2 1460l-14.27 4.64v-9.28z" stroke="#0c7cba" stroke-width="2" fill="#0c7cba"/><path d="M376.16 1364H411c2.76 0 5 2.24 5 5v118c0 2.76 2.24 5 5 5h62.93" stroke="#0c7cba" stroke-width="2" fill="none"/><path d="M376.2 1365h-1.3l.53-2h.76z" fill="#0c7cba"/><path d="M499.2 1492l-14.27 4.64v-9.28z" stroke="#0c7cba" stroke-width="2" fill="#0c7cba"/><path d="M376.16 1561.02h3.05m4.08 0h6.1m4.07 0h6.1m4.07 0h6.1m4.06 0h6.1m4.07 0H427l2.2-.72m2.12-2.12l.43-.58.25-1.58v-3.04m0-4.04v-6.07m0-4.04v-6.07m0-4.05v-6.05m0-4.05v-6.07m0-4.04v-6.08m0-4.05v-6.06m0-4.04v-6.07m0-4.05v-6.07m0-4.05V1465l.72-2.2m2.12-2.12l.58-.43 1.58-.25h2.82m3.75 0h5.63m3.76 0h5.63m3.74 0h5.63m3.76 0h5.63m3.76 0h2.8" stroke="#0c7cba" stroke-width="2" fill="none"/><path d="M376.2 1562.02h-1.3l.53-2h.76z" fill="#0c7cba"/><path d="M499.2 1460l-14.27 4.64v-9.28z" stroke="#0c7cba" stroke-width="2" fill="#0c7cba"/><path d="M376.16 1561.02h2.87m3.82 0h5.73m3.82 0h5.72m3.82 0h5.73m3.82 0h5.72m3.82 0h5.73m3.82 0h5.72m3.82 0H443l2.2-.72m2.12-2.12l.43-.58.25-1.58v-2.95m0-3.94v-5.9m0-3.93v-5.9m0-3.94v-5.9m0-3.94v-5.9m0-3.93v-5.9m0-3.95V1497l.72-2.2m2.12-2.12l.58-.43 1.58-.25h3.1m4.12 0h6.18m4.13 0h6.18m4.14 0h3.1" stroke="#0c7cba" stroke-width="2" fill="none"/><path d="M376.2 1562.02h-1.3l.53-2h.76z" fill="#0c7cba"/><path d="M499.2 1492l-14.27 4.64v-9.28z" stroke="#0c7cba" stroke-width="2" fill="#0c7cba"/><path d="M376.16 1364H411c2.76 0 5 2.24 5 5v246c0 2.76 2.24 5 5 5h62.23" stroke="#0c7cba" stroke-width="2" fill="none"/><path d="M376.2 1365h-1.3l.53-2h.76z" fill="#0c7cba"/><path d="M498.5 1620l-14.27 4.64v-9.28z" stroke="#0c7cba" stroke-width="2" fill="#0c7cba"/><path d="M1376.16 2185.02H1388c2.76 0 5 2.24 5 5V2267c0 2.76-2.24 5-5 5H124c-2.76 0-5-2.24-5-5v-682.55c0-2.76 2.24-5 5-5h31.25" stroke="#0c7cba" stroke-width="2" fill="none"/><path d="M1376.2 2186.02h-1.3l.53-2h.76z" fill="#0c7cba"/><path d="M170.52 1579.45l-14.27 4.64v-9.28z" stroke="#0c7cba" stroke-width="2" fill="#0c7cba"/><path d="M376.16 1364H411c2.76 0 5 2.24 5 5v278c0 2.76 2.24 5 5 5h62.23" stroke="#0c7cba" stroke-width="2" fill="none"/><path d="M376.2 1365h-1.3l.53-2h.76z" fill="#0c7cba"/><path d="M498.5 1652l-14.27 4.64v-9.28z" stroke="#0c7cba" stroke-width="2" fill="#0c7cba"/><path d="M376.16 1364H411c2.76 0 5 2.24 5 5v310c0 2.76 2.24 5 5 5h62.23" stroke="#0c7cba" stroke-width="2" fill="none"/><path d="M376.2 1365h-1.3l.53-2h.76z" fill="#0c7cba"/><path d="M498.5 1684l-14.27 4.64v-9.28z" stroke="#0c7cba" stroke-width="2" fill="#0c7cba"/><path d="M376.16 1364H411c2.76 0 5 2.24 5 5v342c0 2.76 2.24 5 5 5h62.23" stroke="#0c7cba" stroke-width="2" fill="none"/><path d="M376.2 1365h-1.3l.53-2h.76z" fill="#0c7cba"/><path d="M498.5 1716l-14.27 4.64v-9.28z" stroke="#0c7cba" stroke-width="2" fill="#0c7cba"/><path d="M376.16 1364H411c2.76 0 5 2.24 5 5v374c0 2.76 2.24 5 5 5h62.23" stroke="#0c7cba" stroke-width="2" fill="none"/><path d="M376.2 1365h-1.3l.53-2h.76z" fill="#0c7cba"/><path d="M498.5 1748l-14.27 4.64v-9.28z" stroke="#0c7cba" stroke-width="2" fill="#0c7cba"/><path d="M376.16 1364H411c2.76 0 5 2.24 5 5v446c0 2.76 2.24 5 5 5h63.83" stroke="#0c7cba" stroke-width="2" fill="none"/><path d="M376.2 1365h-1.3l.53-2h.76z" fill="#0c7cba"/><path d="M500.1 1820l-14.27 4.64v-9.28z" stroke="#0c7cba" stroke-width="2" fill="#0c7cba"/><path d="M376.16 1364H411c2.76 0 5 2.24 5 5v542c0 2.76 2.24 5 5 5h63.83" stroke="#0c7cba" stroke-width="2" fill="none"/><path d="M376.2 1365h-1.3l.53-2h.76z" fill="#0c7cba"/><path d="M500.1 1916l-14.27 4.64v-9.28z" stroke="#0c7cba" stroke-width="2" fill="#0c7cba"/><path d="M376.16 1364H411c2.76 0 5 2.24 5 5v638c0 2.76 2.24 5 5 5h63.83" stroke="#0c7cba" stroke-width="2" fill="none"/><path d="M376.2 1365h-1.3l.53-2h.76z" fill="#0c7cba"/><path d="M500.1 2012l-14.27 4.64v-9.28z" stroke="#0c7cba" stroke-width="2" fill="#0c7cba"/><path d="M376.16 1364H411c2.76 0 5 2.24 5 5v734c0 2.76 2.24 5 5 5h63.83" stroke="#0c7cba" stroke-width="2" fill="none"/><path d="M376.2 1365h-1.3l.53-2h.76z" fill="#0c7cba"/><path d="M500.1 2108l-14.27 4.64v-9.28z" stroke="#0c7cba" stroke-width="2" fill="#0c7cba"/><path d="M376.16 1364H411c2.76 0 5 2.24 5 5v830c0 2.76 2.24 5 5 5h63.83" stroke="#0c7cba" stroke-width="2" fill="none"/><path d="M376.2 1365h-1.3l.53-2h.76z" fill="#0c7cba"/><path d="M500.1 2204l-14.27 4.64v-9.28z" stroke="#0c7cba" stroke-width="2" fill="#0c7cba"/><path d="M376.16 1561.02h2.87m3.82 0h5.73m3.82 0h5.72m3.82 0h5.73m3.82 0h5.72m3.82 0h5.73m3.82 0h5.72m3.82 0H443l2.2.72m2.12 2.1l.43.6.25 1.58v3.1m0 4.15v6.2m0 4.15v6.22m0 4.14v6.2m0 4.16v6.2m0 4.15v6.2m0 4.15v6.2m0 4.15v6.22m0 4.14v6.2m0 4.15v6.23m0 4.14v6.2m0 4.16v6.2m0 4.15v6.22m0 4.14v6.2m0 4.15v3.1l.72 2.2m2.12 2.12l.58.43 1.58.25h3.02m4.03 0h6.05m4.03 0h6.05m4.03 0h3.03" stroke="#0c7cba" stroke-width="2" fill="none"/><path d="M376.2 1562.02h-1.3l.53-2h.76z" fill="#0c7cba"/><path d="M498.5 1716l-14.27 4.64v-9.28z" stroke="#0c7cba" stroke-width="2" fill="#0c7cba"/><path d="M376.16 1561.02h3.05m4.08 0h6.1m4.07 0h6.1m4.07 0h6.1m4.06 0h6.1m4.07 0H427l2.2.72m2.12 2.1l.43.6.25 1.58v2.95m0 3.93v5.9m0 3.93v5.9m0 3.94v5.9m0 3.93v5.9m0 3.93v5.9m0 3.93v5.9m0 3.94v5.9m0 3.93v5.9m0 3.93v5.9m0 3.93v5.9m0 3.92v5.9m0 3.94v5.9m0 3.93v5.9m0 3.92v5.9m0 3.93v5.9m0 3.94v5.9m0 3.92v5.9m0 3.93v2.95l.72 2.2m2.12 2.12l.58.43 1.58.25h2.77m3.7 0h5.55m3.7 0h5.55m3.7 0h5.54m3.7 0h5.56m3.7 0h2.77" stroke="#0c7cba" stroke-width="2" fill="none"/><path d="M376.2 1562.02h-1.3l.53-2h.76z" fill="#0c7cba"/><path d="M498.5 1748l-14.27 4.64v-9.28z" stroke="#0c7cba" stroke-width="2" fill="#0c7cba"/><path d="M376.16 1364h108.67" stroke="#0c7cba" stroke-width="2" fill="none"/><path d="M376.2 1365h-1.3l.53-2h.76z" fill="#0c7cba"/><path d="M500.1 1364l-14.27 4.64v-9.28z" stroke="#0c7cba" stroke-width="2" fill="#0c7cba"/><path d="M336 1237c0-2.76 2.24-5 5-5h374c2.76 0 5 2.24 5 5v34c0 2.76-2.24 5-5 5H341c-2.76 0-5-2.24-5-5z" stroke="#000" stroke-opacity="0" stroke-width="3" fill="#fff" fill-opacity="0"/><g><use xlink:href="#M" transform="matrix(1,0,0,1,356,1232) translate(12.950520833333314 33.05143229166667)"/><use xlink:href="#N" transform="matrix(1,0,0,1,356,1232) translate(211.72439236111114 33.05143229166667)"/></g><path d="M682 1556c0 2.5-2 4.5-4.5 4.5s-4.5-2-4.5-4.5 2-4.5 4.5-4.5 4.5 2 4.5 4.5zM682 1575.5c0 2.5-2 4.5-4.5 4.5s-4.5-2-4.5-4.5 2-4.5 4.5-4.5 4.5 2 4.5 4.5zM682 1536.5c0 2.5-2 4.5-4.5 4.5s-4.5-2-4.5-4.5 2-4.5 4.5-4.5 4.5 2 4.5 4.5z" stroke="#000"/><path d="M1150.33 2077.02H925c-2.76 0-5-2.24-5-5v-25.4c0-2.76-2.24-5-5-5h-59.5" stroke="#0c7cba" stroke-width="2" fill="none"/><path d="M1165.6 2077.02l-14.27 4.63v-9.27z" stroke="#0c7cba" stroke-width="2" fill="#0c7cba"/><path d="M855.53 2041.62h-4.02M1150.33 2185.02H925c-2.76 0-5-2.24-5-5v-133.4c0-2.76-2.24-5-5-5h-59.5" stroke="#0c7cba" stroke-width="2" fill="none"/><path d="M1165.6 2185.02l-14.27 4.63v-9.27z" stroke="#0c7cba" stroke-width="2" fill="#0c7cba"/><path d="M855.53 2041.62h-4.02" stroke="#0c7cba" stroke-width="2" fill="none"/><path d="M504 1359.03c0-5.9 4.78-10.67 10.67-10.67h98.66c5.9 0 10.67 4.78 10.67 10.67v137.94c0 5.9-4.78 10.67-10.67 10.67h-98.66c-5.9 0-10.67-4.78-10.67-10.67z" stroke="#666" stroke-width="1.33" fill="#ffbbb1"/><g><use xlink:href="#O" transform="matrix(1,0,0,1,524,1348.3633366777142) translate(8.330078125 87.1044921875)"/><use xlink:href="#P" transform="matrix(1,0,0,1,524,1348.3633366777142) translate(60.546875 87.1044921875)"/></g><path d="M502.4 1615.03c0-5.9 4.78-10.67 10.67-10.67h98.66c5.9 0 10.67 4.78 10.67 10.67v137.94c0 5.9-4.78 10.67-10.67 10.67h-98.66c-5.9 0-10.67-4.78-10.67-10.67z" stroke="#666" stroke-width="1.33" fill="#ffdba9"/><g><use xlink:href="#O" transform="matrix(1,0,0,1,522.4000000000001,1604.3633366777142) translate(7.2216796875 87.1044921875)"/><use xlink:href="#Q" transform="matrix(1,0,0,1,522.4000000000001,1604.3633366777142) translate(59.4384765625 87.1044921875)"/></g></g><defs><path d="M995 0L381-1085c12 105 18 190 18 254V0H137v-1409h337l623 1094c-12-101-18-192-18-275v-819h262V0H995" id="R"/><path d="M972 12c-145 0-202-73-217-205h-6C670-51 552 20 393 20 187 20 58-100 60-306c3-242 172-345 427-346l233-4c5-152-16-266-158-264-112 2-147 49-160 153l-293-14c38-217 204-321 465-321 262 0 427 133 427 388v394c3 101 7 160 89 160 21 0 42-2 62-6v152c-57 15-108 27-180 26zM483-176c165 0 247-140 237-325-89 1-231-1-283 23-55 25-84 70-84 150 0 94 44 152 130 152" id="S"/><path d="M440-330c0 98 31 152 123 154 22 0 53-5 94-14v174C588 7 509 18 420 18c-170-1-258-95-258-272v-638H25v-190h151l88-254h176v254h205v190H440v562" id="T"/><path d="M143-1277v-207h281v207H143zM143 0v-1082h281V0H143" id="U"/><path d="M627-1102c355 0 544 203 544 560 0 345-207 562-550 562C283 20 80-201 80-542c0-343 204-560 547-560zM375-542c0 208 60 370 243 370 173 0 259-123 259-370 0-129-21-222-63-280s-103-87-183-87c-171 0-256 122-256 367" id="V"/><path d="M768-1103c243 0 356 161 356 416V0H844v-607c0-190-64-285-193-285-148 1-227 151-227 312V0H143c-4-356 9-741-8-1082h268c4 18 14 191 13 215h4c67-145 160-236 348-236" id="W"/><path d="M143 0v-1484h281V0H143" id="X"/><g id="a"><use transform="matrix(0.015190972222222224,0,0,0.015190972222222224,0,0)" xlink:href="#R"/><use transform="matrix(0.015190972222222224,0,0,0.015190972222222224,22.467447916666668,0)" xlink:href="#S"/><use transform="matrix(0.015190972222222224,0,0,0.015190972222222224,39.769965277777786,0)" xlink:href="#T"/><use transform="matrix(0.015190972222222224,0,0,0.015190972222222224,50.13020833333334,0)" xlink:href="#U"/><use transform="matrix(0.015190972222222224,0,0,0.015190972222222224,58.773871527777786,0)" xlink:href="#V"/><use transform="matrix(0.015190972222222224,0,0,0.015190972222222224,77.77777777777779,0)" xlink:href="#W"/><use transform="matrix(0.015190972222222224,0,0,0.015190972222222224,96.78168402777779,0)" xlink:href="#S"/><use transform="matrix(0.015190972222222224,0,0,0.015190972222222224,114.0842013888889,0)" xlink:href="#X"/></g><path d="M1328-1006c0 221-145 368-344 399L1384 0h-220L798-585H359V0H168v-1409h663c292-4 497 130 497 403zM820-736c188 2 316-89 316-268s-133-252-324-252H359v520h461" id="Y"/><path d="M797-207C713-60 620 16 414 20 203 24 88-98 87-302c0-112 37-198 111-258s192-93 356-96l243-4c10-201-43-307-232-305-154 2-223 43-242 172l-188-17c31-195 175-292 434-292s410 116 410 364v466c3 95 12 159 101 161 17 0 37-2 59-7V-6c-45 11-92 16-139 16-143-2-188-76-197-217h-6zm-525-92c-1 116 66 187 183 184 230-7 361-164 342-419-124 5-305-2-389 30-83 32-136 92-136 205" id="Z"/><path d="M137-1312v-172h180v172H137zM137 0v-1082h180V0H137" id="aa"/><path d="M663-1102c251 0 343 119 343 381V0H825v-686c0-183-40-279-223-277-184 2-280 141-280 336V0H142c-3-345 6-754-6-1082h170c5 68 6 94 8 185h3c76-134 157-205 346-205" id="ab"/><path d="M492-1341c-103 3-130 49-131 162v97h211v131H361V0H181v-951H29v-131h152v-122c0-192 78-276 264-278 50 0 92 4 127 12v137c-30-5-57-8-80-8" id="ac"/><path d="M87-548c0-338 159-553 484-554 325-2 484 204 477 599H276c-1 227 88 385 302 388 146 2 246-65 283-166l158 45C954-65 807 20 578 20 240 20 87-193 87-548zm775-93c-19-206-90-328-294-328-185 0-285 140-290 328h584" id="ad"/><path d="M835 0c-5-29-11-137-10-174h-4C759-45 663 20 484 20 177 20 86-201 86-536c0-377 133-566 398-566 178 1 273 67 339 188-4-187-1-380-2-570h180v1261c0 113 2 187 6 223H835zm-14-554c0-255-58-415-289-415-91 0-151 37-196 101-76 109-77 543-1 651 44 63 105 98 195 98 235 0 291-173 291-435" id="ae"/><g id="b"><use transform="matrix(0.009765625,0,0,0.009765625,0,0)" xlink:href="#Y"/><use transform="matrix(0.009765625,0,0,0.009765625,14.443359375,0)" xlink:href="#Z"/><use transform="matrix(0.009765625,0,0,0.009765625,25.56640625,0)" xlink:href="#aa"/><use transform="matrix(0.009765625,0,0,0.009765625,30.009765625,0)" xlink:href="#ab"/><use transform="matrix(0.009765625,0,0,0.009765625,41.1328125,0)" xlink:href="#ac"/><use transform="matrix(0.009765625,0,0,0.009765625,46.689453125,0)" xlink:href="#ad"/><use transform="matrix(0.009765625,0,0,0.009765625,57.8125,0)" xlink:href="#ae"/></g><path d="M183 434v-1918h166V434H183" id="af"/><use transform="matrix(0.009765625,0,0,0.009765625,0,0)" xlink:href="#af" id="c"/><path d="M168 0v-1409h191v1253h712V0H168" id="ag"/><path d="M571-1102c350 0 480 196 482 560 2 357-151 562-488 562C233 20 86-198 86-542c0-373 162-560 485-560zm-8 989c244 0 301-164 301-429 0-266-49-427-290-427-239 0-299 165-299 427 0 252 61 429 288 429" id="ah"/><path d="M740-934C689-691 665-619 508 0H300L-3-1082h178c78 327 154 591 226 933 77-315 163-621 243-933h193c78 311 160 619 235 933 72-318 158-621 236-933h176L1174 0H965c-74-312-158-615-225-934" id="ai"/><g id="d"><use transform="matrix(0.009765625,0,0,0.009765625,0,0)" xlink:href="#ag"/><use transform="matrix(0.009765625,0,0,0.009765625,11.123046875,0)" xlink:href="#ah"/><use transform="matrix(0.009765625,0,0,0.009765625,22.24609375,0)" xlink:href="#ai"/></g><path d="M189 0v-1409h191V0H189" id="aj"/><path d="M336-268c2 98 22 139 114 141 24 0 59-5 104-14V-8C495 8 434 16 372 16c-144 0-216-82-216-245v-722H31v-131h132l53-242h120v242h200v131H336v683" id="ak"/><path d="M318-861c55-157 83-241 257-241 24 0 48 3 73 10v165c-24-7-56-10-96-10-75 0-132 33-171 97s-59 156-59 276V0H142c-3-364 6-725-6-1082h170c5 123 8 196 8 221h4" id="al"/><path d="M1195-963c-175 0-249 144-249 336V0H768v-686c-5-190-26-277-198-277-171 0-249 147-249 336V0H142c-3-345 6-754-6-1082h170c5 68 6 94 8 185h3c69-134 140-205 316-205 171 0 257 66 294 205h3c67-129 152-205 328-205 238 0 313 127 313 381V0h-178v-686c-5-190-26-277-198-277" id="am"/><g id="e"><use transform="matrix(0.009765625,0,0,0.009765625,0,0)" xlink:href="#aj"/><use transform="matrix(0.009765625,0,0,0.009765625,5.556640625,0)" xlink:href="#ab"/><use transform="matrix(0.009765625,0,0,0.009765625,16.6796875,0)" xlink:href="#ak"/><use transform="matrix(0.009765625,0,0,0.009765625,22.236328125,0)" xlink:href="#ad"/><use transform="matrix(0.009765625,0,0,0.009765625,33.359375,0)" xlink:href="#al"/><use transform="matrix(0.009765625,0,0,0.009765625,40.01953125,0)" xlink:href="#am"/><use transform="matrix(0.009765625,0,0,0.009765625,56.6796875,0)" xlink:href="#ad"/><use transform="matrix(0.009765625,0,0,0.009765625,67.802734375,0)" xlink:href="#ae"/><use transform="matrix(0.009765625,0,0,0.009765625,78.92578125,0)" xlink:href="#aa"/><use transform="matrix(0.009765625,0,0,0.009765625,83.369140625,0)" xlink:href="#Z"/><use transform="matrix(0.009765625,0,0,0.009765625,94.4921875,0)" xlink:href="#ak"/><use transform="matrix(0.009765625,0,0,0.009765625,100.048828125,0)" xlink:href="#ad"/></g><path d="M1121 0v-653H359V0H168v-1409h191v596h762v-596h191V0h-191" id="an"/><path d="M824-897c-1-17 6-175 12-185h171c-12 319-6 716-6 1051 0 304-151 456-453 456-226 0-374-90-417-267l181-26c24 102 112 157 241 156 179 0 269-105 269-315 0-57 3-120-2-174C759-74 647 8 472 8 339 8 242-36 180-124S86-350 86-539c0-191 33-332 100-423s169-137 306-137c167 0 273 85 332 202zm-38 579c48-119 46-331 0-450-42-108-118-197-250-197-92 0-154 37-201 100-78 107-74 530-4 643 63 101 251 129 353 47 43-35 77-81 102-143" id="ao"/><path d="M322-1484c-2 195 6 405-8 587h3c73-129 159-205 346-205 250 0 342 118 343 381V0H825v-686c3-190-43-277-223-277-176-1-280 140-280 325V0H142v-1484h180" id="ap"/><g id="f"><use transform="matrix(0.009765625,0,0,0.009765625,0,0)" xlink:href="#an"/><use transform="matrix(0.009765625,0,0,0.009765625,14.443359375,0)" xlink:href="#aa"/><use transform="matrix(0.009765625,0,0,0.009765625,18.88671875,0)" xlink:href="#ao"/><use transform="matrix(0.009765625,0,0,0.009765625,30.009765625,0)" xlink:href="#ap"/></g><g id="g"><use transform="matrix(0.009765625,0,0,0.009765625,0,0)" xlink:href="#aj"/><use transform="matrix(0.009765625,0,0,0.009765625,5.556640625,0)" xlink:href="#al"/><use transform="matrix(0.009765625,0,0,0.009765625,12.216796875,0)" xlink:href="#al"/><use transform="matrix(0.009765625,0,0,0.009765625,18.876953125,0)" xlink:href="#aa"/><use transform="matrix(0.009765625,0,0,0.009765625,23.3203125,0)" xlink:href="#ao"/><use transform="matrix(0.009765625,0,0,0.009765625,34.443359375,0)" xlink:href="#Z"/><use transform="matrix(0.009765625,0,0,0.009765625,45.56640625,0)" xlink:href="#ak"/><use transform="matrix(0.009765625,0,0,0.009765625,51.123046875,0)" xlink:href="#ad"/><use transform="matrix(0.009765625,0,0,0.009765625,62.24609375,0)" xlink:href="#ae"/></g><path d="M381-711c0 302 128 499 414 499 178 0 302-89 371-268l257 97c-99 251-300 400-628 403C342 25 84-257 84-711c0-457 243-719 698-719 334 0 540 138 623 392l-260 71c-40-136-182-233-357-231-284 2-407 189-407 487" id="aq"/><path d="M483 20c-243 0-356-160-356-415v-687h281v607c0 190 64 285 192 285 148-1 227-151 227-312v-580h281c4 356-9 741 8 1082H848c-8-96-12-168-12-215h-5C765-71 670 20 483 20" id="ar"/><path d="M573-916c-112 0-200 14-200 111 0 88 73 97 168 120 199 47 392 70 479 217 24 40 35 90 35 152 0 237-220 338-484 336-282-2-439-78-499-290l247-37c36 115 92 141 252 141 130 0 226-17 226-124 0-35-14-62-43-82s-79-38-148-52c-159-31-266-61-321-88-100-50-170-123-170-263 0-232 201-328 458-328 245 0 416 95 457 292l-249 26c-21-98-82-131-208-131" id="as"/><path d="M375-487c-1 185 60 319 225 319 99 0 162-43 188-129l265 23C976-78 821 20 586 20 247 19 80-194 80-546c0-344 176-559 510-556 341 3 483 247 479 615H375zm422-176c-8-153-68-262-211-262-144 0-206 112-209 262h420" id="at"/><path d="M646-868c-165 0-222 146-222 337V0H143c-4-356 8-741-8-1082h268c4 15 14 211 13 231h4c48-123 63-177 149-229 44-27 147-31 197-8v235c-45-10-85-15-120-15" id="au"/><g id="h"><use transform="matrix(0.01193576388888889,0,0,0.01193576388888889,0,0)" xlink:href="#aq"/><use transform="matrix(0.01193576388888889,0,0,0.01193576388888889,17.652994791666668,0)" xlink:href="#X"/><use transform="matrix(0.01193576388888889,0,0,0.01193576388888889,24.444444444444446,0)" xlink:href="#ar"/><use transform="matrix(0.01193576388888889,0,0,0.01193576388888889,39.37608506944445,0)" xlink:href="#as"/><use transform="matrix(0.01193576388888889,0,0,0.01193576388888889,52.97092013888891,0)" xlink:href="#T"/><use transform="matrix(0.01193576388888889,0,0,0.01193576388888889,61.111111111111114,0)" xlink:href="#at"/><use transform="matrix(0.01193576388888889,0,0,0.01193576388888889,74.70594618055557,0)" xlink:href="#au"/></g><path d="M129 0v-209h349v-961L140-959v-221l353-229h266v1200h323V0H129" id="av"/><use transform="matrix(0.01193576388888889,0,0,0.01193576388888889,0,0)" xlink:href="#av" id="i"/><path d="M80-409v-244h520v244H80" id="aw"/><path d="M86-125v-227l832-324-832-325v-228l1027 391v322" id="ax"/><g id="j"><use transform="matrix(0.01193576388888889,0,0,0.01193576388888889,0,0)" xlink:href="#aw"/><use transform="matrix(0.01193576388888889,0,0,0.01193576388888889,8.140190972222223,0)" xlink:href="#ax"/></g><path d="M1038 0L684-561 330 0H18l488-741-447-668h312l313 498 313-498h310L879-741 1348 0h-310" id="ay"/><use transform="matrix(0.01193576388888889,0,0,0.01193576388888889,0,0)" xlink:href="#ay" id="k"/><path d="M1036-741c206 23 350 127 350 339 0 282-238 402-544 402H137v-1409h645c172 0 302 29 390 89s133 148 133 265c0 179-106 282-269 314zM770-841c149 0 238-41 238-174 0-139-94-175-240-175H432v349h338zm47 622c171 0 273-51 273-206 0-132-95-198-284-198H432v404h385" id="az"/><g id="l"><use transform="matrix(0.009765625,0,0,0.009765625,0,0)" xlink:href="#az"/><use transform="matrix(0.009765625,0,0,0.009765625,14.443359375,0)" xlink:href="#S"/><use transform="matrix(0.009765625,0,0,0.009765625,25.56640625,0)" xlink:href="#au"/><use transform="matrix(0.009765625,0,0,0.009765625,33.349609375,0)" xlink:href="#au"/><use transform="matrix(0.009765625,0,0,0.009765625,41.1328125,0)" xlink:href="#at"/><use transform="matrix(0.009765625,0,0,0.009765625,52.255859375,0)" xlink:href="#W"/></g><path d="M500-1102c166 0 271 75 329 191-3-189-2-382-2-573h281v1248c0 67 3 145 8 236H844c-6-25-16-141-15-176h-4C764-45 649 20 479 20c-126 0-223-50-292-148S84-363 84-540c0-321 122-562 416-562zm331 555c0-200-54-364-231-364-75 0-131 30-168 91s-55 155-55 280c0 245 74 368 221 368 74 0 131-33 172-98s61-157 61-277" id="aA"/><g id="m"><use transform="matrix(0.009765625,0,0,0.009765625,0,0)" xlink:href="#X"/><use transform="matrix(0.009765625,0,0,0.009765625,5.556640625,0)" xlink:href="#S"/><use transform="matrix(0.009765625,0,0,0.009765625,16.6796875,0)" xlink:href="#W"/><use transform="matrix(0.009765625,0,0,0.009765625,28.896484375,0)" xlink:href="#aA"/></g><path d="M408-1082c8 36 12 125 12 176h4c63-133 179-199 346-199 126 0 224 48 293 145s104 235 104 414c0 322-121 566-415 566-162 0-274-77-328-192h-6c11 149 4 424 6 597H143V-833c0-102-3-185-8-249h273zm243 172c-175 0-232 173-231 372 0 117 20 206 60 270s96 96 169 96c150 0 225-125 225-374 0-243-74-364-223-364" id="aB"/><g id="n"><use transform="matrix(0.009765625,0,0,0.009765625,0,0)" xlink:href="#az"/><use transform="matrix(0.009765625,0,0,0.009765625,14.443359375,0)" xlink:href="#ar"/><use transform="matrix(0.009765625,0,0,0.009765625,26.66015625,0)" xlink:href="#U"/><use transform="matrix(0.009765625,0,0,0.009765625,32.216796875,0)" xlink:href="#X"/><use transform="matrix(0.009765625,0,0,0.009765625,37.7734375,0)" xlink:href="#T"/><use transform="matrix(0.009765625,0,0,0.009765625,44.43359375,0)" xlink:href="#aw"/><use transform="matrix(0.009765625,0,0,0.009765625,51.09375,0)" xlink:href="#ar"/><use transform="matrix(0.009765625,0,0,0.009765625,63.310546875,0)" xlink:href="#aB"/></g><path d="M432-1181v436h721v228H432V0H137v-1409h1039v228H432" id="aC"/><g id="o"><use transform="matrix(0.009765625,0,0,0.009765625,0,0)" xlink:href="#aC"/><use transform="matrix(0.009765625,0,0,0.009765625,12.216796875,0)" xlink:href="#V"/><use transform="matrix(0.009765625,0,0,0.009765625,24.43359375,0)" xlink:href="#au"/><use transform="matrix(0.009765625,0,0,0.009765625,32.216796875,0)" xlink:href="#at"/><use transform="matrix(0.009765625,0,0,0.009765625,43.33984375,0)" xlink:href="#as"/><use transform="matrix(0.009765625,0,0,0.009765625,54.462890625,0)" xlink:href="#T"/><use transform="matrix(0.009765625,0,0,0.009765625,61.123046875,0)" xlink:href="#as"/></g><path d="M381-711c0 298 141 498 425 500 147 1 314-50 390-119v-195H852v-218h614v518C1331-81 1070 20 798 20 339 20 84-251 84-711c0-462 259-719 721-719 331 0 541 122 631 367l-272 82c-53-134-180-216-359-217-289 0-424 189-424 487" id="aD"/><g id="p"><use transform="matrix(0.009765625,0,0,0.009765625,0,0)" xlink:href="#aD"/><use transform="matrix(0.009765625,0,0,0.009765625,15.556640625,0)" xlink:href="#au"/><use transform="matrix(0.009765625,0,0,0.009765625,23.33984375,0)" xlink:href="#S"/><use transform="matrix(0.009765625,0,0,0.009765625,34.462890625,0)" xlink:href="#as"/><use transform="matrix(0.009765625,0,0,0.009765625,45.5859375,0)" xlink:href="#as"/><use transform="matrix(0.009765625,0,0,0.009765625,56.708984375,0)" xlink:href="#X"/><use transform="matrix(0.009765625,0,0,0.009765625,62.265625,0)" xlink:href="#S"/><use transform="matrix(0.009765625,0,0,0.009765625,73.388671875,0)" xlink:href="#W"/><use transform="matrix(0.009765625,0,0,0.009765625,85.60546875,0)" xlink:href="#aA"/><use transform="matrix(0.009765625,0,0,0.009765625,97.822265625,0)" xlink:href="#as"/></g><g id="q"><use transform="matrix(0.009765625,0,0,0.009765625,0,0)" xlink:href="#S"/><use transform="matrix(0.009765625,0,0,0.009765625,11.123046875,0)" xlink:href="#W"/><use transform="matrix(0.009765625,0,0,0.009765625,23.33984375,0)" xlink:href="#aA"/></g><path d="M1313 0h-297c-77-314-153-545-219-882C730-580 647-294 571 0H274L-6-1082h264l178 827c55-291 140-551 209-827h301c70 285 147 527 207 827 59-278 123-551 184-827h260" id="aE"/><g id="r"><use transform="matrix(0.009765625,0,0,0.009765625,0,0)" xlink:href="#aE"/><use transform="matrix(0.009765625,0,0,0.009765625,15.556640625,0)" xlink:href="#V"/><use transform="matrix(0.009765625,0,0,0.009765625,27.7734375,0)" xlink:href="#V"/><use transform="matrix(0.009765625,0,0,0.009765625,39.990234375,0)" xlink:href="#aA"/><use transform="matrix(0.009765625,0,0,0.009765625,52.20703125,0)" xlink:href="#X"/><use transform="matrix(0.009765625,0,0,0.009765625,57.763671875,0)" xlink:href="#S"/><use transform="matrix(0.009765625,0,0,0.009765625,68.88671875,0)" xlink:href="#W"/><use transform="matrix(0.009765625,0,0,0.009765625,81.103515625,0)" xlink:href="#aA"/><use transform="matrix(0.009765625,0,0,0.009765625,93.3203125,0)" xlink:href="#as"/></g><path d="M551-279c84-418 84-397 254-1130h330c93 424 173 655 249 1130 85-375 166-752 248-1130h299L1567 0h-350c-82-373-182-728-250-1116C902-767 895-785 715 0H365L2-1409h299c83 377 171 749 250 1130" id="aF"/><g id="s"><use transform="matrix(0.009765625,0,0,0.009765625,0,0)" xlink:href="#aF"/><use transform="matrix(0.009765625,0,0,0.009765625,18.134765625,0)" xlink:href="#S"/><use transform="matrix(0.009765625,0,0,0.009765625,29.2578125,0)" xlink:href="#T"/><use transform="matrix(0.009765625,0,0,0.009765625,35.91796875,0)" xlink:href="#at"/><use transform="matrix(0.009765625,0,0,0.009765625,47.041015625,0)" xlink:href="#au"/></g><path d="M770-1102c286 0 397 243 397 557 0 320-120 562-415 565-165 2-272-80-330-194 1 32-7 151-14 174H135c5-62 8-144 8-247v-1237h281c-1 197 2 398-4 590h4c63-139 179-208 346-208zM420-536c0 197 55 364 231 364 149 0 223-124 223-373 0-123-18-214-54-273s-92-89-167-89c-179 0-233 167-233 371" id="aG"/><g id="t"><use transform="matrix(0.009765625,0,0,0.009765625,0,0)" xlink:href="#aG"/><use transform="matrix(0.009765625,0,0,0.009765625,12.216796875,0)" xlink:href="#V"/><use transform="matrix(0.009765625,0,0,0.009765625,24.43359375,0)" xlink:href="#aA"/><use transform="matrix(0.009765625,0,0,0.009765625,36.650390625,0)" xlink:href="#U"/><use transform="matrix(0.009765625,0,0,0.009765625,42.20703125,0)" xlink:href="#at"/><use transform="matrix(0.009765625,0,0,0.009765625,53.330078125,0)" xlink:href="#as"/></g><g id="u"><use transform="matrix(0.009765625,0,0,0.009765625,0,0)" xlink:href="#aq"/><use transform="matrix(0.009765625,0,0,0.009765625,14.443359375,0)" xlink:href="#au"/><use transform="matrix(0.009765625,0,0,0.009765625,22.2265625,0)" xlink:href="#V"/><use transform="matrix(0.009765625,0,0,0.009765625,34.443359375,0)" xlink:href="#aB"/></g><use transform="matrix(0.009765625,0,0,0.009765625,0,0)" xlink:href="#av" id="v"/><path d="M1251-892c-133 0-192 146-192 299V0H780v-607c0-190-55-285-164-285-132 0-192 159-192 312V0H143c-4-356 9-741-8-1082h268c4 18 14 191 13 215h4c61-142 139-236 315-236 165 0 266 79 301 236h6c67-147 139-236 328-236 229 0 324 171 324 416V0h-279v-607c0-190-55-285-164-285" id="aH"/><g id="w"><use transform="matrix(0.009765625,0,0,0.009765625,0,0)" xlink:href="#aA"/><use transform="matrix(0.009765625,0,0,0.009765625,12.216796875,0)" xlink:href="#at"/><use transform="matrix(0.009765625,0,0,0.009765625,23.33984375,0)" xlink:href="#aH"/><use transform="matrix(0.009765625,0,0,0.009765625,41.123046875,0)" xlink:href="#S"/><use transform="matrix(0.009765625,0,0,0.009765625,52.24609375,0)" xlink:href="#W"/><use transform="matrix(0.009765625,0,0,0.009765625,64.462890625,0)" xlink:href="#aA"/></g><path d="M831-578V0H537v-578L35-1409h309l338 596 342-596h309" id="aI"/><use transform="matrix(0.009765625,0,0,0.009765625,0,0)" xlink:href="#aI" id="x"/><path d="M283 425c-67 0-126-4-177-13V212c70 11 146 17 196-11 80-44 97-100 142-212L16-1082h297c99 309 178 499 271 841 73-291 164-564 250-841h294L700 57c-57 139-116 235-178 288s-142 80-239 80" id="aJ"/><g id="y"><use transform="matrix(0.009765625,0,0,0.009765625,0,0)" xlink:href="#aC"/><use transform="matrix(0.009765625,0,0,0.009765625,12.216796875,0)" xlink:href="#V"/><use transform="matrix(0.009765625,0,0,0.009765625,24.43359375,0)" xlink:href="#au"/><use transform="matrix(0.009765625,0,0,0.009765625,32.216796875,0)" xlink:href="#at"/><use transform="matrix(0.009765625,0,0,0.009765625,43.33984375,0)" xlink:href="#as"/><use transform="matrix(0.009765625,0,0,0.009765625,54.462890625,0)" xlink:href="#T"/><use transform="matrix(0.009765625,0,0,0.009765625,61.123046875,0)" xlink:href="#au"/><use transform="matrix(0.009765625,0,0,0.009765625,68.90625,0)" xlink:href="#aJ"/></g><path d="M1079-360C1041-124 864 17 594 20 261 23 80-197 80-535c0-344 180-567 518-567 257 0 435 142 473 361l-283 14c-16-106-75-182-196-182-145 0-217 121-217 363 0 249 74 374 221 374 120 0 188-82 201-201" id="aK"/><g id="z"><use transform="matrix(0.009765625,0,0,0.009765625,0,0)" xlink:href="#aB"/><use transform="matrix(0.009765625,0,0,0.009765625,12.216796875,0)" xlink:href="#au"/><use transform="matrix(0.009765625,0,0,0.009765625,20,0)" xlink:href="#V"/><use transform="matrix(0.009765625,0,0,0.009765625,32.216796875,0)" xlink:href="#aA"/><use transform="matrix(0.009765625,0,0,0.009765625,44.43359375,0)" xlink:href="#ar"/><use transform="matrix(0.009765625,0,0,0.009765625,56.650390625,0)" xlink:href="#aK"/><use transform="matrix(0.009765625,0,0,0.009765625,67.7734375,0)" xlink:href="#T"/><use transform="matrix(0.009765625,0,0,0.009765625,74.43359375,0)" xlink:href="#as"/></g><path d="M1354-543c1 369-250 563-631 563-373 0-600-186-600-548v-881h295v858c-1 216 102 340 313 340 215 1 328-131 328-350v-848h295v866" id="aL"/><g id="A"><use transform="matrix(0.009765625,0,0,0.009765625,0,0)" xlink:href="#aL"/><use transform="matrix(0.009765625,0,0,0.009765625,14.443359375,0)" xlink:href="#au"/><use transform="matrix(0.009765625,0,0,0.009765625,22.2265625,0)" xlink:href="#aG"/><use transform="matrix(0.009765625,0,0,0.009765625,34.443359375,0)" xlink:href="#S"/><use transform="matrix(0.009765625,0,0,0.009765625,45.56640625,0)" xlink:href="#W"/></g><path d="M565-227c69-251 97-315 271-855h294L731 0H395L8-1082h297c96 314 168 517 260 855" id="aM"/><path d="M432-66c-1 169-35 281-108 383H139c64-77 130-192 133-317H143v-305h289v239" id="aN"/><g id="B"><use transform="matrix(0.009765625,0,0,0.009765625,0,0)" xlink:href="#aA"/><use transform="matrix(0.009765625,0,0,0.009765625,12.216796875,0)" xlink:href="#at"/><use transform="matrix(0.009765625,0,0,0.009765625,23.33984375,0)" xlink:href="#aM"/><use transform="matrix(0.009765625,0,0,0.009765625,34.462890625,0)" xlink:href="#at"/><use transform="matrix(0.009765625,0,0,0.009765625,45.5859375,0)" xlink:href="#X"/><use transform="matrix(0.009765625,0,0,0.009765625,51.142578125,0)" xlink:href="#V"/><use transform="matrix(0.009765625,0,0,0.009765625,63.359375,0)" xlink:href="#aB"/><use transform="matrix(0.009765625,0,0,0.009765625,75.576171875,0)" xlink:href="#aH"/><use transform="matrix(0.009765625,0,0,0.009765625,93.359375,0)" xlink:href="#at"/><use transform="matrix(0.009765625,0,0,0.009765625,104.482421875,0)" xlink:href="#W"/><use transform="matrix(0.009765625,0,0,0.009765625,116.69921875,0)" xlink:href="#T"/><use transform="matrix(0.009765625,0,0,0.009765625,123.359375,0)" xlink:href="#aN"/></g><g id="C"><use transform="matrix(0.009765625,0,0,0.009765625,0,0)" xlink:href="#aB"/><use transform="matrix(0.009765625,0,0,0.009765625,12.216796875,0)" xlink:href="#V"/><use transform="matrix(0.009765625,0,0,0.009765625,24.43359375,0)" xlink:href="#aE"/><use transform="matrix(0.009765625,0,0,0.009765625,39.990234375,0)" xlink:href="#at"/><use transform="matrix(0.009765625,0,0,0.009765625,51.11328125,0)" xlink:href="#au"/><use transform="matrix(0.009765625,0,0,0.009765625,58.896484375,0)" xlink:href="#aB"/><use transform="matrix(0.009765625,0,0,0.009765625,71.11328125,0)" xlink:href="#X"/><use transform="matrix(0.009765625,0,0,0.009765625,76.669921875,0)" xlink:href="#S"/><use transform="matrix(0.009765625,0,0,0.009765625,87.79296875,0)" xlink:href="#W"/><use transform="matrix(0.009765625,0,0,0.009765625,100.009765625,0)" xlink:href="#T"/><use transform="matrix(0.009765625,0,0,0.009765625,106.669921875,0)" xlink:href="#as"/></g><path d="M139 0v-305h289V0H139" id="aO"/><g id="D"><use transform="matrix(0.009765625,0,0,0.009765625,0,0)" xlink:href="#at"/><use transform="matrix(0.009765625,0,0,0.009765625,11.123046875,0)" xlink:href="#T"/><use transform="matrix(0.009765625,0,0,0.009765625,17.783203125,0)" xlink:href="#aK"/><use transform="matrix(0.009765625,0,0,0.009765625,28.90625,0)" xlink:href="#aO"/></g><path d="M137 0v-1409h295v1181h756V0H137" id="aP"/><path d="M834 0L545-490l-121 84V0H143v-1484h281v850l386-448h302L732-660 1141 0H834" id="aQ"/><g id="E"><use transform="matrix(0.009765625,0,0,0.009765625,0,0)" xlink:href="#aP"/><use transform="matrix(0.009765625,0,0,0.009765625,12.216796875,0)" xlink:href="#U"/><use transform="matrix(0.009765625,0,0,0.009765625,17.7734375,0)" xlink:href="#aM"/><use transform="matrix(0.009765625,0,0,0.009765625,28.896484375,0)" xlink:href="#at"/><use transform="matrix(0.009765625,0,0,0.009765625,40.01953125,0)" xlink:href="#as"/><use transform="matrix(0.009765625,0,0,0.009765625,51.142578125,0)" xlink:href="#T"/><use transform="matrix(0.009765625,0,0,0.009765625,57.802734375,0)" xlink:href="#V"/><use transform="matrix(0.009765625,0,0,0.009765625,70.01953125,0)" xlink:href="#aK"/><use transform="matrix(0.009765625,0,0,0.009765625,81.142578125,0)" xlink:href="#aQ"/></g><path d="M137 0v-1409h1108v228H432v354h752v228H432v371h854V0H137" id="aR"/><g id="F"><use transform="matrix(0.009765625,0,0,0.009765625,0,0)" xlink:href="#aR"/><use transform="matrix(0.009765625,0,0,0.009765625,13.33984375,0)" xlink:href="#aM"/><use transform="matrix(0.009765625,0,0,0.009765625,24.462890625,0)" xlink:href="#S"/><use transform="matrix(0.009765625,0,0,0.009765625,35.5859375,0)" xlink:href="#aB"/><use transform="matrix(0.009765625,0,0,0.009765625,47.802734375,0)" xlink:href="#V"/><use transform="matrix(0.009765625,0,0,0.009765625,60.01953125,0)" xlink:href="#T"/><use transform="matrix(0.009765625,0,0,0.009765625,66.6796875,0)" xlink:href="#au"/><use transform="matrix(0.009765625,0,0,0.009765625,74.462890625,0)" xlink:href="#S"/><use transform="matrix(0.009765625,0,0,0.009765625,85.5859375,0)" xlink:href="#W"/><use transform="matrix(0.009765625,0,0,0.009765625,97.802734375,0)" xlink:href="#as"/><use transform="matrix(0.009765625,0,0,0.009765625,108.92578125,0)" xlink:href="#aB"/><use transform="matrix(0.009765625,0,0,0.009765625,121.142578125,0)" xlink:href="#U"/><use transform="matrix(0.009765625,0,0,0.009765625,126.69921875,0)" xlink:href="#au"/><use transform="matrix(0.009765625,0,0,0.009765625,134.482421875,0)" xlink:href="#S"/><use transform="matrix(0.009765625,0,0,0.009765625,145.60546875,0)" xlink:href="#T"/><use transform="matrix(0.009765625,0,0,0.009765625,152.265625,0)" xlink:href="#U"/><use transform="matrix(0.009765625,0,0,0.009765625,157.822265625,0)" xlink:href="#V"/><use transform="matrix(0.009765625,0,0,0.009765625,170.0390625,0)" xlink:href="#W"/></g><g id="G"><use transform="matrix(0.009765625,0,0,0.009765625,0,0)" xlink:href="#aD"/><use transform="matrix(0.009765625,0,0,0.009765625,15.556640625,0)" xlink:href="#au"/><use transform="matrix(0.009765625,0,0,0.009765625,23.33984375,0)" xlink:href="#V"/><use transform="matrix(0.009765625,0,0,0.009765625,35.556640625,0)" xlink:href="#ar"/><use transform="matrix(0.009765625,0,0,0.009765625,47.7734375,0)" xlink:href="#W"/><use transform="matrix(0.009765625,0,0,0.009765625,59.990234375,0)" xlink:href="#aA"/><use transform="matrix(0.009765625,0,0,0.009765625,72.20703125,0)" xlink:href="#aE"/><use transform="matrix(0.009765625,0,0,0.009765625,87.763671875,0)" xlink:href="#S"/><use transform="matrix(0.009765625,0,0,0.009765625,98.88671875,0)" xlink:href="#T"/><use transform="matrix(0.009765625,0,0,0.009765625,105.546875,0)" xlink:href="#at"/><use transform="matrix(0.009765625,0,0,0.009765625,116.669921875,0)" xlink:href="#au"/></g><path d="M651-891c-148 1-227 151-227 312V0H143v-1484h281c-2 207 6 422-8 618h4c67-145 160-236 348-236 243 0 356 161 356 416V0H844v-606c0-190-64-285-193-285" id="aS"/><path d="M1108-33c0 316-189 467-512 467-247 0-427-94-467-291l281-33c20 86 88 139 194 139 188 0 233-141 225-343-1-35 4-75 0-107C767-68 651-2 481-2 198-2 84-238 84-550c0-320 120-553 418-553 157 0 266 65 327 195h5c-1-34 7-149 14-174h266c-12 332-6 705-6 1049zM600-197c173 0 231-162 231-359 0-191-60-354-229-354-150 0-225 120-225 360 0 235 74 353 223 353" id="aT"/><g id="H"><use transform="matrix(0.009765625,0,0,0.009765625,0,0)" xlink:href="#au"/><use transform="matrix(0.009765625,0,0,0.009765625,7.783203125,0)" xlink:href="#at"/><use transform="matrix(0.009765625,0,0,0.009765625,18.90625,0)" xlink:href="#aK"/><use transform="matrix(0.009765625,0,0,0.009765625,30.029296875,0)" xlink:href="#aS"/><use transform="matrix(0.009765625,0,0,0.009765625,42.24609375,0)" xlink:href="#S"/><use transform="matrix(0.009765625,0,0,0.009765625,53.369140625,0)" xlink:href="#au"/><use transform="matrix(0.009765625,0,0,0.009765625,61.15234375,0)" xlink:href="#aT"/><use transform="matrix(0.009765625,0,0,0.009765625,73.369140625,0)" xlink:href="#at"/></g><path d="M963-1038c-32-126-120-183-283-183-179 0-268 56-268 168 0 86 48 119 113 149 80 38 447 109 517 142 145 68 244 156 244 356 0 138-55 238-154 316C960 46 446 53 257-76 157-144 88-237 59-367l285-47c41 153 150 213 346 213 206 0 309-63 309-188 0-94-62-130-135-164-58-27-400-96-468-123-154-61-270-150-271-360 0-127 47-224 143-292s235-102 418-102c336 0 504 85 563 353" id="aU"/><path d="M604-1296c-97 2-130 31-131 129v85h213v190H473V0H193v-892H35v-190h158v-113c1-202 109-289 315-289 53 0 112 5 178 16v181c-27-6-55-9-82-9" id="aV"/><g id="I"><use transform="matrix(0.009765625,0,0,0.009765625,0,0)" xlink:href="#aU"/><use transform="matrix(0.009765625,0,0,0.009765625,13.33984375,0)" xlink:href="#ar"/><use transform="matrix(0.009765625,0,0,0.009765625,25.556640625,0)" xlink:href="#au"/><use transform="matrix(0.009765625,0,0,0.009765625,33.33984375,0)" xlink:href="#aV"/><use transform="matrix(0.009765625,0,0,0.009765625,40,0)" xlink:href="#S"/><use transform="matrix(0.009765625,0,0,0.009765625,51.123046875,0)" xlink:href="#aK"/><use transform="matrix(0.009765625,0,0,0.009765625,62.24609375,0)" xlink:href="#at"/></g><g id="J"><use transform="matrix(0.009765625,0,0,0.009765625,0,0)" xlink:href="#au"/><use transform="matrix(0.009765625,0,0,0.009765625,7.783203125,0)" xlink:href="#ar"/><use transform="matrix(0.009765625,0,0,0.009765625,20,0)" xlink:href="#W"/><use transform="matrix(0.009765625,0,0,0.009765625,32.216796875,0)" xlink:href="#aw"/><use transform="matrix(0.009765625,0,0,0.009765625,38.876953125,0)" xlink:href="#V"/><use transform="matrix(0.009765625,0,0,0.009765625,51.09375,0)" xlink:href="#aV"/><use transform="matrix(0.009765625,0,0,0.009765625,57.75390625,0)" xlink:href="#aV"/></g><path d="M770-1409c315-3 526 146 526 446 0 301-203 467-514 467H432V0H137v-1409h633zm-25 686c158 1 255-80 254-235 0-148-87-222-262-222H432v457h313" id="aW"/><g id="K"><use transform="matrix(0.009765625,0,0,0.009765625,0,0)" xlink:href="#aW"/><use transform="matrix(0.009765625,0,0,0.009765625,13.33984375,0)" xlink:href="#au"/><use transform="matrix(0.009765625,0,0,0.009765625,21.123046875,0)" xlink:href="#at"/><use transform="matrix(0.009765625,0,0,0.009765625,32.24609375,0)" xlink:href="#aK"/><use transform="matrix(0.009765625,0,0,0.009765625,43.369140625,0)" xlink:href="#U"/><use transform="matrix(0.009765625,0,0,0.009765625,48.92578125,0)" xlink:href="#aB"/><use transform="matrix(0.009765625,0,0,0.009765625,61.142578125,0)" xlink:href="#U"/><use transform="matrix(0.009765625,0,0,0.009765625,66.69921875,0)" xlink:href="#T"/><use transform="matrix(0.009765625,0,0,0.009765625,73.359375,0)" xlink:href="#S"/><use transform="matrix(0.009765625,0,0,0.009765625,84.482421875,0)" xlink:href="#T"/><use transform="matrix(0.009765625,0,0,0.009765625,91.142578125,0)" xlink:href="#U"/><use transform="matrix(0.009765625,0,0,0.009765625,96.69921875,0)" xlink:href="#V"/><use transform="matrix(0.009765625,0,0,0.009765625,108.916015625,0)" xlink:href="#W"/></g><path d="M137 0v-1409h295V0H137" id="aX"/><g id="L"><use transform="matrix(0.009765625,0,0,0.009765625,0,0)" xlink:href="#aX"/><use transform="matrix(0.009765625,0,0,0.009765625,5.556640625,0)" xlink:href="#au"/><use transform="matrix(0.009765625,0,0,0.009765625,13.33984375,0)" xlink:href="#au"/><use transform="matrix(0.009765625,0,0,0.009765625,21.123046875,0)" xlink:href="#U"/><use transform="matrix(0.009765625,0,0,0.009765625,26.6796875,0)" xlink:href="#aT"/><use transform="matrix(0.009765625,0,0,0.009765625,38.896484375,0)" xlink:href="#S"/><use transform="matrix(0.009765625,0,0,0.009765625,50.01953125,0)" xlink:href="#T"/><use transform="matrix(0.009765625,0,0,0.009765625,56.6796875,0)" xlink:href="#U"/><use transform="matrix(0.009765625,0,0,0.009765625,62.236328125,0)" xlink:href="#V"/><use transform="matrix(0.009765625,0,0,0.009765625,74.453125,0)" xlink:href="#W"/></g><g id="M"><use transform="matrix(0.015190972222222224,0,0,0.015190972222222224,0,0)" xlink:href="#aU"/><use transform="matrix(0.015190972222222224,0,0,0.015190972222222224,20.750868055555557,0)" xlink:href="#ar"/><use transform="matrix(0.015190972222222224,0,0,0.015190972222222224,39.75477430555556,0)" xlink:href="#aG"/><use transform="matrix(0.015190972222222224,0,0,0.015190972222222224,58.75868055555556,0)" xlink:href="#aw"/><use transform="matrix(0.015190972222222224,0,0,0.015190972222222224,69.11892361111111,0)" xlink:href="#au"/><use transform="matrix(0.015190972222222224,0,0,0.015190972222222224,81.22612847222223,0)" xlink:href="#at"/><use transform="matrix(0.015190972222222224,0,0,0.015190972222222224,98.52864583333334,0)" xlink:href="#aT"/><use transform="matrix(0.015190972222222224,0,0,0.015190972222222224,117.53255208333334,0)" xlink:href="#U"/><use transform="matrix(0.015190972222222224,0,0,0.015190972222222224,126.17621527777779,0)" xlink:href="#V"/><use transform="matrix(0.015190972222222224,0,0,0.015190972222222224,145.1801215277778,0)" xlink:href="#W"/><use transform="matrix(0.015190972222222224,0,0,0.015190972222222224,164.1840277777778,0)" xlink:href="#S"/><use transform="matrix(0.015190972222222224,0,0,0.015190972222222224,181.4865451388889,0)" xlink:href="#X"/></g><g id="N"><use transform="matrix(0.015190972222222224,0,0,0.015190972222222224,0,0)" xlink:href="#aK"/><use transform="matrix(0.015190972222222224,0,0,0.015190972222222224,17.302517361111114,0)" xlink:href="#X"/><use transform="matrix(0.015190972222222224,0,0,0.015190972222222224,25.946180555555557,0)" xlink:href="#ar"/><use transform="matrix(0.015190972222222224,0,0,0.015190972222222224,44.95008680555556,0)" xlink:href="#as"/><use transform="matrix(0.015190972222222224,0,0,0.015190972222222224,62.25260416666667,0)" xlink:href="#T"/><use transform="matrix(0.015190972222222224,0,0,0.015190972222222224,72.61284722222223,0)" xlink:href="#at"/><use transform="matrix(0.015190972222222224,0,0,0.015190972222222224,89.91536458333334,0)" xlink:href="#au"/><use transform="matrix(0.015190972222222224,0,0,0.015190972222222224,102.02256944444446,0)" xlink:href="#as"/></g><g id="O"><use transform="matrix(0.009765625,0,0,0.009765625,0,0)" xlink:href="#aq"/><use transform="matrix(0.009765625,0,0,0.009765625,14.443359375,0)" xlink:href="#au"/><use transform="matrix(0.009765625,0,0,0.009765625,22.2265625,0)" xlink:href="#V"/><use transform="matrix(0.009765625,0,0,0.009765625,34.443359375,0)" xlink:href="#aB"/></g><use transform="matrix(0.009765625,0,0,0.009765625,0,0)" xlink:href="#av" id="P"/><use transform="matrix(0.009765625,0,0,0.009765625,0,0)" xlink:href="#aI" id="Q"/></defs></g></svg>