<svg width="1280" height="720" xmlns="http://www.w3.org/2000/svg" xmlns:xlink="http://www.w3.org/1999/xlink" overflow="hidden"><defs><clipPath id="clip0"><path d="M0 0 1280 0 1280 720 0 720Z" fill-rule="evenodd" clip-rule="evenodd"/></clipPath></defs><g clip-path="url(#clip0)"><rect x="0" y="0" width="1280" height="720" fill="#FFFFFF"/><rect x="617.5" y="3.50005" width="319" height="701" stroke="#000000" stroke-width="1.33333" stroke-miterlimit="8" fill="none"/><rect x="331.5" y="29.5001" width="265" height="104" stroke="#000000" stroke-width="1.33333" stroke-miterlimit="8" fill="#FFFFFF"/><text font-family="Calibri,Calibri_MSFontService,sans-serif" font-weight="700" font-size="16" transform="translate(410.691 77)">LND<tspan fill="#0070C0" x="27.5" y="0">CP01</tspan><tspan fill="#00B050" x="60.8333" y="0">H</tspan><tspan fill="#4472C4" x="71" y="0">R</tspan><tspan fill="#FF0000" x="80" y="0">ETH</tspan><tspan font-weight="400" x="-52.3267" y="19">(</tspan><tspan fill="#0070C0" font-weight="400" x="-47.4933" y="19">Crop 1</tspan><tspan font-weight="400" x="-5.08667" y="19">|</tspan><tspan fill="#00B050" font-weight="400" x="2.24664" y="19">High</tspan><tspan font-weight="400" x="31.7466" y="19">|</tspan><tspan fill="#4472C4" font-weight="400" x="39.08" y="19">Rain</tspan><tspan fill="#4472C4" font-weight="400" x="67.4133" y="19">-</tspan><tspan fill="#4472C4" font-weight="400" x="72.2466" y="19">fed</tspan><tspan font-weight="400" x="93.0133" y="19">|</tspan><tspan fill="#FF0000" font-weight="400" x="100.347" y="19">Ethiopia</tspan><tspan font-weight="400" x="153.493" y="19">)</tspan></text><rect x="632.5" y="322.5" width="297" height="105" stroke="#000000" stroke-width="1.33333" stroke-miterlimit="8" stroke-dasharray="10.6667 4" fill="#F2F2F2"/><rect x="331.5" y="322.5" width="265" height="105" stroke="#000000" stroke-width="1.33333" stroke-miterlimit="8" fill="#FFFFFF"/><text font-family="Calibri,Calibri_MSFontService,sans-serif" font-weight="700" font-size="16" transform="translate(413.024 370)">LND<tspan fill="#0070C0" x="27.5" y="0">CP01</tspan><tspan fill="#00B050" x="60.8333" y="0">H</tspan><tspan fill="#4472C4" x="71" y="0">I</tspan><tspan fill="#FF0000" x="75.3333" y="0">ETH</tspan><tspan font-weight="400" x="-55.1334" y="19">(</tspan><tspan fill="#0070C0" font-weight="400" x="-50.3" y="19">Crop 1</tspan><tspan font-weight="400" x="-7.89334" y="19">|</tspan><tspan fill="#00B050" font-weight="400" x="-0.559998" y="19">High</tspan><tspan font-weight="400" x="28.94" y="19">|</tspan><tspan fill="#4472C4" font-weight="400" x="36.2733" y="19">Irrigated</tspan><tspan font-weight="400" x="91.1533" y="19">|</tspan><tspan fill="#FF0000" font-weight="400" x="98.4867" y="19">Ethiopia</tspan><tspan font-weight="400" x="151.633" y="19">)</tspan></text><rect x="332.5" y="147.5" width="265" height="105" stroke="#000000" stroke-width="1.33333" stroke-miterlimit="8" fill="#FFFFFF"/><text font-family="Calibri,Calibri_MSFontService,sans-serif" font-weight="700" font-size="16" transform="translate(411.528 195)">LND<tspan fill="#0070C0" x="27.5" y="0">CP01</tspan><tspan fill="#00B050" x="60.8333" y="0">H</tspan><tspan fill="#4472C4" x="71" y="0">R</tspan><tspan fill="#FF0000" x="80" y="0">ETH</tspan><tspan font-weight="400" x="-50.88" y="19">(</tspan><tspan fill="#0070C0" font-weight="400" x="-46.0467" y="19">Crop 1</tspan><tspan font-weight="400" x="-3.63998" y="19">|</tspan><tspan fill="#00B050" font-weight="400" x="3.69336" y="19">Low</tspan><tspan font-weight="400" x="30.3" y="19">|</tspan><tspan fill="#4472C4" font-weight="400" x="37.6334" y="19">Rain</tspan><tspan fill="#4472C4" font-weight="400" x="65.9667" y="19">-</tspan><tspan fill="#4472C4" font-weight="400" x="70.8" y="19">fed</tspan><tspan font-weight="400" x="91.5667" y="19">|</tspan><tspan fill="#FF0000" font-weight="400" x="98.9" y="19">Ethiopia</tspan><tspan font-weight="400" x="152.047" y="19">)</tspan><tspan x="315.746" y="-175">LNDAGRETHC01</tspan></text><rect x="632.5" y="28.5001" width="297" height="105" stroke="#000000" stroke-width="1.33333" stroke-miterlimit="8" stroke-dasharray="10.6667 4" fill="#F2F2F2"/><text font-family="Calibri,Calibri_MSFontService,sans-serif" font-weight="400" font-size="16" transform="translate(753.241 49)">Mode 1: <tspan x="-74.9933" y="19">Crop 1|High|Rain</tspan><tspan x="39.9133" y="19">-</tspan><tspan x="44.7466" y="19">fed |Ethiopia</tspan><tspan x="-4.0799" y="293">Mode </tspan><tspan x="38.0868" y="293">43: </tspan><tspan x="-73.6332" y="312">Crop 8|High|Irrigated|Ethiopia</tspan></text><rect x="633.5" y="147.5" width="297" height="105" stroke="#000000" stroke-width="1.33333" stroke-miterlimit="8" stroke-dasharray="10.6667 4" fill="#F2F2F2"/><text font-family="Calibri,Calibri_MSFontService,sans-serif" font-weight="400" font-size="16" transform="translate(754.079 167)">Mode 2: <tspan x="-73.5467" y="19">Crop 1|Low|Rain</tspan><tspan x="38.4667" y="19">-</tspan><tspan x="43.3" y="19">fed |Ethiopia</tspan></text><path d="M0.00878926-1.99998 25.6521-1.88729 25.6346 2.11267-0.00878926 1.99998ZM23.6697-5.89604 35.6433 0.15664 23.617 6.10385Z" transform="matrix(1 0 0 -1 596 81.1566)"/><path d="M596 372 621.643 372 621.643 376 596 376ZM619.643 368 631.643 374 619.643 380Z"/><path d="M597 198 622.643 198 622.643 202 597 202ZM620.643 194 632.643 200 620.643 206Z"/><path d="M429.5 267C429.5 264.515 431.515 262.5 434 262.5 436.485 262.5 438.5 264.515 438.5 267 438.5 269.485 436.485 271.5 434 271.5 431.515 271.5 429.5 269.485 429.5 267Z" stroke="#000000" stroke-width="1.33333" stroke-miterlimit="8" fill-rule="evenodd"/><path d="M429.5 283.5C429.5 280.739 431.515 278.5 434 278.5 436.485 278.5 438.5 280.739 438.5 283.5 438.5 286.261 436.485 288.5 434 288.5 431.515 288.5 429.5 286.261 429.5 283.5Z" stroke="#000000" stroke-width="1.33333" stroke-miterlimit="8" fill-rule="evenodd"/><path d="M429.5 299.5C429.5 296.739 431.515 294.5 434 294.5 436.485 294.5 438.5 296.739 438.5 299.5 438.5 302.261 436.485 304.5 434 304.5 431.515 304.5 429.5 302.261 429.5 299.5Z" stroke="#000000" stroke-width="1.33333" stroke-miterlimit="8" fill-rule="evenodd"/><text font-family="Calibri,Calibri_MSFontService,sans-serif" font-weight="400" font-size="16" transform="translate(467.508 278)">(43 <tspan x="24.8333" y="0">technologies)</tspan><tspan x="287.891" y="4">(38 </tspan><tspan x="312.724" y="4">modes of operation</tspan>)</text><path d="M1.11852e-05-2 27.545-1.99985 27.545 2.00015-1.11852e-05 2ZM25.545-5.99986 37.545 0.000209974 25.545 6.00014Z" transform="matrix(1 0 0 -1 929 374)"/><text font-family="Calibri,Calibri_MSFontService,sans-serif" font-weight="700" font-size="16" transform="translate(967.521 134)">CRPCP01<tspan font-weight="400" x="-11.3333" y="19">(Demand for </tspan><tspan font-weight="400" x="6.88" y="38">crop 1)</tspan></text><path d="M929 79 998.861 79 998.861 104.492 994.861 104.492 994.861 81 996.861 83 929 83ZM1002.86 102.492 996.861 114.492 990.861 102.492Z"/><path d="M0-2 69.0237-2 69.0237 7.50835 65.0237 7.50835 65.0237 0 67.0237 2 0 2ZM73.0237 5.50835 67.0237 17.5083 61.0237 5.50835Z" transform="matrix(1 0 0 -1 930 199.508)"/><text font-family="Calibri,Calibri_MSFontService,sans-serif" font-weight="700" font-size="16" transform="translate(967.521 378)">CRPCP08<tspan font-weight="400" x="-11.3333" y="19">(Demand for </tspan><tspan font-weight="400" x="6.88" y="38">crop 8)</tspan><tspan font-weight="400" x="8.95038" y="-104">(8 crop </tspan><tspan font-weight="400" x="8.95038" y="-85">demands)</tspan></text><path d="M737.5 268.5C737.5 265.739 739.515 263.5 742 263.5 744.485 263.5 746.5 265.739 746.5 268.5 746.5 271.261 744.485 273.5 742 273.5 739.515 273.5 737.5 271.261 737.5 268.5Z" stroke="#000000" stroke-width="1.33333" stroke-miterlimit="8" fill-rule="evenodd"/><path d="M737.5 284.5C737.5 281.739 739.515 279.5 742 279.5 744.485 279.5 746.5 281.739 746.5 284.5 746.5 287.261 744.485 289.5 742 289.5 739.515 289.5 737.5 287.261 737.5 284.5Z" stroke="#000000" stroke-width="1.33333" stroke-miterlimit="8" fill-rule="evenodd"/><path d="M737.5 301C737.5 298.515 739.515 296.5 742 296.5 744.485 296.5 746.5 298.515 746.5 301 746.5 303.485 744.485 305.5 742 305.5 739.515 305.5 737.5 303.485 737.5 301Z" stroke="#000000" stroke-width="1.33333" stroke-miterlimit="8" fill-rule="evenodd"/><path d="M958.5 260.5C958.5 257.739 960.515 255.5 963 255.5 965.485 255.5 967.5 257.739 967.5 260.5 967.5 263.261 965.485 265.5 963 265.5 960.515 265.5 958.5 263.261 958.5 260.5Z" stroke="#000000" stroke-width="1.33333" stroke-miterlimit="8" fill-rule="evenodd"/><path d="M958.5 277C958.5 274.515 960.515 272.5 963 272.5 965.485 272.5 967.5 274.515 967.5 277 967.5 279.485 965.485 281.5 963 281.5 960.515 281.5 958.5 279.485 958.5 277Z" stroke="#000000" stroke-width="1.33333" stroke-miterlimit="8" fill-rule="evenodd"/><path d="M958.5 293.5C958.5 290.739 960.515 288.5 963 288.5 965.485 288.5 967.5 290.739 967.5 293.5 967.5 296.261 965.485 298.5 963 298.5 960.515 298.5 958.5 296.261 958.5 293.5Z" stroke="#000000" stroke-width="1.33333" stroke-miterlimit="8" fill-rule="evenodd"/><rect x="634.5" y="454.5" width="297" height="68" stroke="#000000" stroke-width="1.33333" stroke-miterlimit="8" stroke-dasharray="10.6667 4" fill="#F2F2F2"/><rect x="333.5" y="454.5" width="265" height="68" stroke="#000000" stroke-width="1.33333" stroke-miterlimit="8" fill="#FFFFFF"/><text font-family="Calibri,Calibri_MSFontService,sans-serif" font-weight="700" font-size="16" transform="translate(425.353 484)">LNDBAR<tspan fill="#FF0000" x="55.0133" y="0">ETH</tspan><tspan x="-3.24002" y="19">(Barren land)</tspan><tspan font-weight="400" x="325.974" y="-10">Mode </tspan><tspan font-weight="400" x="368.14" y="-10">44: </tspan><tspan font-weight="400" x="319.827" y="9">Barren land</tspan></text><path d="M598 486 623.643 486 623.643 490 598 490ZM621.643 482 633.643 488 621.643 494Z"/><rect x="633.5" y="590.5" width="298" height="68" stroke="#000000" stroke-width="1.33333" stroke-miterlimit="8" stroke-dasharray="10.6667 4" fill="#F2F2F2"/><rect x="333.5" y="590.5" width="265" height="68" stroke="#000000" stroke-width="1.33333" stroke-miterlimit="8" fill="#FFFFFF"/><text font-family="Calibri,Calibri_MSFontService,sans-serif" font-weight="700" font-size="16" transform="translate(423.314 620)">LNDWAT<tspan fill="#FF0000" x="57.5067" y="0">ETH</tspan><tspan x="-7.53998" y="19">(Water bodies)</tspan><tspan font-weight="400" x="327.22" y="-10">Mode </tspan><tspan font-weight="400" x="369.387" y="-10">49: </tspan><tspan font-weight="400" x="315.32" y="9">Water bodies</tspan></text><path d="M598 622 623.643 622 623.643 626 598 626ZM621.643 618 633.643 624 621.643 630Z"/><path d="M330 433C317.85 433 308 431.358 308 429.333L308 237.095C308 235.07 298.15 233.428 286 233.428 298.15 233.428 308 231.787 308 229.762L308 16.6667C308 14.6417 317.85 13 330 13" stroke="#FFC000" stroke-width="2" stroke-miterlimit="8" fill="none" fill-rule="evenodd"/><text font-family="Calibri,Calibri_MSFontService,sans-serif" font-weight="400" font-size="24" transform="matrix(-1.83697e-16 -1 1 -1.83697e-16 279.329 277)">43 <tspan x="30" y="5.51091e-15">combos</tspan></text><path d="M327 671C317.611 671 310 669.732 310 668.167L310 564.544C310 562.979 302.389 561.711 293 561.711 302.389 561.711 310 560.442 310 558.878L310 443.833C310 442.268 317.611 441 327 441" stroke="#FFC000" stroke-width="2" stroke-miterlimit="8" fill="none" fill-rule="evenodd"/><text font-family="Calibri,Calibri_MSFontService,sans-serif" font-weight="400" font-size="24" transform="matrix(-1.83697e-16 -1 1 -1.83697e-16 281.846 666)">6 additional land uses</text><path d="M434.5 539C434.5 536.515 436.515 534.5 439 534.5 441.485 534.5 443.5 536.515 443.5 539 443.5 541.485 441.485 543.5 439 543.5 436.515 543.5 434.5 541.485 434.5 539Z" stroke="#000000" stroke-width="1.33333" stroke-miterlimit="8" fill-rule="evenodd"/><path d="M434.5 555.5C434.5 552.739 436.515 550.5 439 550.5 441.485 550.5 443.5 552.739 443.5 555.5 443.5 558.261 441.485 560.5 439 560.5 436.515 560.5 434.5 558.261 434.5 555.5Z" stroke="#000000" stroke-width="1.33333" stroke-miterlimit="8" fill-rule="evenodd"/><path d="M434.5 571.5C434.5 568.739 436.515 566.5 439 566.5 441.485 566.5 443.5 568.739 443.5 571.5 443.5 574.261 441.485 576.5 439 576.5 436.515 576.5 434.5 574.261 434.5 571.5Z" stroke="#000000" stroke-width="1.33333" stroke-miterlimit="8" fill-rule="evenodd"/><text font-family="Calibri,Calibri_MSFontService,sans-serif" font-weight="400" font-size="16" transform="translate(472.511 550)">6 technologies)<tspan x="287.891" y="4">(6 </tspan><tspan x="304.558" y="4">modes of operation</tspan>)</text><path d="M742.5 540.5C742.5 537.739 744.515 535.5 747 535.5 749.485 535.5 751.5 537.739 751.5 540.5 751.5 543.261 749.485 545.5 747 545.5 744.515 545.5 742.5 543.261 742.5 540.5Z" stroke="#000000" stroke-width="1.33333" stroke-miterlimit="8" fill-rule="evenodd"/><path d="M742.5 556.5C742.5 553.739 744.515 551.5 747 551.5 749.485 551.5 751.5 553.739 751.5 556.5 751.5 559.261 749.485 561.5 747 561.5 744.515 561.5 742.5 559.261 742.5 556.5Z" stroke="#000000" stroke-width="1.33333" stroke-miterlimit="8" fill-rule="evenodd"/><path d="M742.5 573C742.5 570.515 744.515 568.5 747 568.5 749.485 568.5 751.5 570.515 751.5 573 751.5 575.485 749.485 577.5 747 577.5 744.515 577.5 742.5 575.485 742.5 573Z" stroke="#000000" stroke-width="1.33333" stroke-miterlimit="8" fill-rule="evenodd"/></g></svg>