<svg width="1280" height="720" xmlns="http://www.w3.org/2000/svg" xmlns:xlink="http://www.w3.org/1999/xlink" overflow="hidden"><defs><clipPath id="clip0"><path d="M0 0 1280 0 1280 720 0 720Z" fill-rule="evenodd" clip-rule="evenodd"/></clipPath></defs><g clip-path="url(#clip0)"><rect x="0" y="0" width="1280" height="720" fill="#FFFFFF"/><rect x="44.5001" y="217.5" width="154" height="39" stroke="#3D67B1" stroke-width="1.33333" stroke-miterlimit="8" fill="#FFFFFF"/><text fill="#0070C0" font-family="Calibri,Calibri_MSFontService,sans-serif" font-weight="400" font-size="17" transform="translate(100.672 241)">Crops</text><rect x="45.5001" y="256.5" width="152" height="260" stroke="#4472C4" stroke-width="1.33333" stroke-miterlimit="8" stroke-opacity="0.901961" fill="#FFFFFF" fill-opacity="0.901961"/><text font-family="Calibri,Calibri_MSFontService,sans-serif" font-weight="400" font-size="17" transform="translate(52.037 278)">•<tspan x="12" y="0">CP01: </tspan>Barley<tspan x="0" y="23">•</tspan><tspan x="12" y="23">CP02: </tspan>Cereals<tspan x="0" y="45">•</tspan><tspan x="12" y="45">CP03: </tspan>Maize<tspan x="0" y="67">•</tspan><tspan x="12" y="67">CP04: </tspan>Oilseeds<tspan x="0" y="89">•</tspan><tspan x="12" y="89">CP05: </tspan>Others<tspan x="0" y="111">•</tspan><tspan x="12" y="111">CP06: </tspan>Pulses<tspan x="0" y="134">•</tspan><tspan x="12" y="134">CP07: </tspan>Teff<tspan x="0" y="156">•</tspan><tspan x="12" y="156">CP08: </tspan>Wheat</text><rect x="215.5" y="217.5" width="124" height="39" stroke="#3D67B1" stroke-width="1.33333" stroke-miterlimit="8" fill="#FFFFFF"/><text fill="#FF0000" font-family="Calibri,Calibri_MSFontService,sans-serif" font-weight="400" font-size="17" transform="translate(252.969 241)">Region</text><rect x="215.5" y="256.5" width="124" height="260" stroke="#4472C4" stroke-width="1.33333" stroke-miterlimit="8" stroke-opacity="0.901961" fill="#FFFFFF" fill-opacity="0.901961"/><text font-family="Calibri,Calibri_MSFontService,sans-serif" font-weight="400" font-size="17" transform="translate(222.256 278)">•<tspan x="12" y="0">ETH: Ethiopia</tspan></text><rect x="356.5" y="217.5" width="133" height="39" stroke="#3D67B1" stroke-width="1.33333" stroke-miterlimit="8" fill="#FFFFFF"/><text fill="#00B050" font-family="Calibri,Calibri_MSFontService,sans-serif" font-weight="400" font-size="17" transform="translate(385.566 241)">Input level</text><rect x="358.5" y="256.5" width="130" height="260" stroke="#4472C4" stroke-width="1.33333" stroke-miterlimit="8" stroke-opacity="0.901961" fill="#FFFFFF" fill-opacity="0.901961"/><text font-family="Calibri,Calibri_MSFontService,sans-serif" font-weight="400" font-size="17" transform="translate(364.895 278)">•<tspan x="12" y="0">L: Low</tspan><tspan x="0" y="23">•</tspan><tspan x="12" y="23">I: </tspan><tspan x="12" y="42">Intermediate</tspan><tspan x="0" y="64">•</tspan><tspan x="12" y="64">H: High</tspan></text><rect x="506.5" y="217.5" width="124" height="39" stroke="#3D67B1" stroke-width="1.33333" stroke-miterlimit="8" fill="#FFFFFF"/><text fill="#4472C4" font-family="Calibri,Calibri_MSFontService,sans-serif" font-weight="400" font-size="17" transform="translate(521.758 241)">Water supply</text><rect x="506.5" y="256.5" width="124" height="260" stroke="#4472C4" stroke-width="1.33333" stroke-miterlimit="8" stroke-opacity="0.901961" fill="#FFFFFF" fill-opacity="0.901961"/><text font-family="Calibri,Calibri_MSFontService,sans-serif" font-weight="400" font-size="17" transform="translate(513.531 278)">•<tspan x="12" y="0">R: Rain</tspan><tspan x="60.7734" y="0">-</tspan><tspan x="66.08" y="0">fed</tspan><tspan x="0" y="23">•</tspan><tspan x="12" y="23">I: Irrigated</tspan><tspan font-weight="700" font-size="32" x="156.601" y="-163">Cluster technologies</tspan><tspan font-size="32" x="156.601" y="-110">LNDAGR</tspan><tspan fill="#FF0000" font-size="32" x="265.734" y="-110">[region]</tspan><tspan fill="#7030A0" font-size="32" x="368.148" y="-110">[cluster number]</tspan><tspan font-size="23" x="448.391" y="-47">‘C’ followed by 2 consecutive </tspan><tspan font-size="23" x="448.391" y="-28">digits for each cluster</tspan></text><path d="M0-0.333333 45.8063-0.333333 45.8063 13.3755 45.1396 13.3755 45.1396 0 45.473 0.333333 0 0.333333ZM49.473 12.0422 45.473 20.0422 41.473 12.0422Z" fill="#7030A0" transform="matrix(-4.37114e-08 1 1 4.37114e-08 932.5 192.5)"/><text font-family="Calibri,Calibri_MSFontService,sans-serif" font-weight="700" font-size="27" transform="translate(670.133 367)">Crop demands: CRP<tspan fill="#0070C0" x="216.673" y="0">[Crop]</tspan><tspan x="0" y="47">CRP</tspan><tspan x="43.3333" y="47">CP01: </tspan><tspan font-weight="400" x="112" y="47">Barley</tspan><tspan x="0" y="95">CR</tspan><tspan x="29.1666" y="95">PCP02: </tspan><tspan font-weight="400" x="112" y="95">Cereals (Other)</tspan><tspan x="0" y="142">CRPCP03: </tspan><tspan font-weight="400" x="112" y="142">Maize</tspan><tspan x="0" y="190">CRPCP04: </tspan><tspan font-weight="400" x="112" y="190">Oilseeds</tspan><tspan fill="#404040" x="310.965" y="47">CRP</tspan><tspan x="354.299" y="47">CP05: </tspan><tspan font-weight="400" x="422.965" y="47">Others</tspan><tspan x="310.965" y="95">CR</tspan><tspan x="340.132" y="95">PCP06: </tspan><tspan font-weight="400" x="422.965" y="95">Pulses</tspan><tspan x="310.965" y="142">CRPCP07: </tspan><tspan font-weight="400" x="422.965" y="142">Teff</tspan><tspan x="310.965" y="190">CRPCP08: </tspan><tspan font-weight="400" x="422.965" y="190">Wheat</tspan><tspan font-weight="400" font-size="24" x="293.498" y="-80">Example: LNDAGRETHC01</tspan><tspan font-weight="400" font-size="24" x="-618.646" y="204">Examples: </tspan><tspan font-size="24" x="-618.646" y="233">LNDCP01HIETH, LNDCP02HRETH, LNDCP05IIETH</tspan><tspan font-size="32" x="-617.01" y="-258">Crop combination technologies</tspan><tspan font-weight="400" font-size="32" x="-617.01" y="-210">LND</tspan><tspan fill="#0070C0" font-weight="400" font-size="32" x="-563.177" y="-210">[crop]</tspan><tspan fill="#00B050" font-weight="400" font-size="32" x="-485.69" y="-210">[input level]</tspan><tspan fill="#4472C4" font-weight="400" font-size="32" x="-329.657" y="-210">[water supply]</tspan><tspan fill="#FF0000" font-weight="400" font-size="32" x="-142.997" y="-210">[region]</tspan></text></g></svg>