<svg width="1280" height="720" xmlns="http://www.w3.org/2000/svg" xmlns:xlink="http://www.w3.org/1999/xlink" overflow="hidden"><defs><clipPath id="clip0"><path d="M0 0 1280 0 1280 720 0 720Z" fill-rule="evenodd" clip-rule="evenodd"/></clipPath></defs><g clip-path="url(#clip0)"><rect x="0" y="0" width="1280" height="720" fill="#FFFFFF"/><rect x="817.5" y="3.50005" width="319" height="602" stroke="#000000" stroke-width="1.33333" stroke-miterlimit="8" fill="none"/><rect x="828.5" y="339.5" width="297" height="78" stroke="#000000" stroke-width="1.33333" stroke-miterlimit="8" stroke-dasharray="10.6667 4" fill="#F2F2F2"/><rect x="170.5" y="72.5001" width="265" height="188" stroke="#000000" stroke-width="1.33333" stroke-miterlimit="8" fill="#FFFFFF"/><text font-family="Calibri,Calibri_MSFontService,sans-serif" font-weight="700" font-size="16" transform="translate(248.043 160)">LND<tspan fill="#0070C0" x="27.5" y="0">CP01</tspan><tspan fill="#00B050" x="60.8333" y="0">H</tspan><tspan fill="#4472C4" font-size="21" x="71" y="0">R</tspan><tspan fill="#FF0000" x="83" y="0">ETH</tspan><tspan font-weight="400" x="-59.9267" y="26">(</tspan><tspan fill="#0070C0" font-weight="400" x="-55.0933" y="26">Crop 1</tspan><tspan font-weight="400" x="-12.6867" y="26">|</tspan><tspan fill="#00B050" font-weight="400" x="-5.35333" y="26">High</tspan><tspan font-weight="400" x="24.1467" y="26">|</tspan><tspan fill="#4472C4" font-weight="400" font-size="21" x="31.48" y="26">Rain</tspan><tspan fill="#4472C4" font-weight="400" font-size="21" x="69.3133" y="26">-</tspan><tspan fill="#4472C4" font-weight="400" font-size="21" x="75.8133" y="26">fed</tspan><tspan font-weight="400" x="103.613" y="26">|</tspan><tspan fill="#FF0000" font-weight="400" x="110.947" y="26">Ethiopia</tspan><tspan font-weight="400" x="164.093" y="26">)</tspan><tspan x="683.75" y="-140">LNDAGETHC01</tspan></text><rect x="832.5" y="28.5001" width="297" height="105" stroke="#000000" stroke-width="1.33333" stroke-miterlimit="8" stroke-dasharray="10.6667 4" fill="#F2F2F2"/><text font-family="Calibri,Calibri_MSFontService,sans-serif" font-weight="400" font-size="16" transform="translate(953.26 49)">Mode 1: <tspan x="-61.2534" y="19">Crop 1|High|Rain</tspan><tspan x="53.6533" y="19">-</tspan><tspan x="58.4866" y="19">fed </tspan><tspan x="82.9199" y="19">|ETH</tspan><tspan x="-8.37732" y="309">Mode </tspan><tspan x="33.7893" y="309">4</tspan><tspan x="41.956" y="309">3</tspan><tspan x="50.1227" y="309">: </tspan><tspan x="-64.1907" y="328">Crop </tspan><tspan x="-29.9507" y="328">9|</tspan>High|Irrigated<tspan x="77.2627" y="328">|ETH</tspan><tspan x="-636.765" y="245">(44 technologies in total</tspan><tspan x="35.9974" y="234">(</tspan><tspan x="40.8307" y="234">43 </tspan>modes of <tspan x="35.9974" y="253">operation in total</tspan><tspan x="148.844" y="253">)</tspan></text><path d="M1.11852e-05-2 27.545-1.99985 27.545 2.00015-1.11852e-05 2ZM25.545-5.99986 37.545 0.000209974 25.545 6.00014Z" transform="matrix(1 0 0 -1 1128 385)"/><text font-family="Calibri,Calibri_MSFontService,sans-serif" font-weight="700" font-size="16" transform="translate(1185.94 141)">CRPCP01<tspan font-weight="400" x="-11.3333" y="19">(Demand for </tspan><tspan font-weight="400" x="6.88" y="38">crop 1)</tspan></text><path d="M1129 79 1217.26 79 1217.26 111.083 1213.26 111.083 1213.26 81 1215.26 83 1129 83ZM1221.26 109.083 1215.26 121.083 1209.26 109.083Z"/><path d="M0-2 88.2576-2 88.2576 29.0623 84.2576 29.0623 84.2576 0 86.2576 2 0 2ZM92.2576 27.0623 86.2576 39.0623 80.2576 27.0623Z" transform="matrix(1 0 0 -1 1129 228.062)"/><text font-family="Calibri,Calibri_MSFontService,sans-serif" font-weight="700" font-size="16" transform="translate(1180.32 392)">CRPCP08<tspan font-weight="400" x="-11.3334" y="19">(Demand for </tspan><tspan font-weight="400" x="6.88" y="38">crop 8)</tspan><tspan font-weight="400" x="-3.3689" y="-104">(8 crop </tspan><tspan font-weight="400" x="-3.3689" y="-85">demands)</tspan></text><path d="M34.5001 118 161.436 118 161.436 121 34.5001 121ZM159.936 115 168.936 119.5 159.936 124Z" fill="#0070C0"/><text font-family="Calibri,Calibri_MSFontService,sans-serif" font-weight="400" font-size="19" transform="translate(67.4341 106)">Precipitation</text><path d="M433.5 214 617.521 214 617.521 217 433.5 217ZM616.021 211 625.021 215.5 616.021 220Z" fill="#A5A5A5"/><text font-family="Calibri,Calibri_MSFontService,sans-serif" font-weight="400" font-size="19" transform="translate(449.751 203)">Evapotranspiration<tspan x="23.5813" y="-53">Groundwater </tspan><tspan x="58.3546" y="-30">recharge</tspan></text><path d="M0.00649371-1.49999 193.208-0.663584 193.195 2.33639-0.00649371 1.49999ZM191.721-3.67005 200.701 0.868871 191.682 5.32987Z" fill="#0070C0" transform="matrix(1 0 0 -1 440.5 156.369)"/><path d="M436 95 820.748 95.0001 820.748 99.0001 436 99ZM818.748 91.0001 830.748 97.0001 818.748 103Z"/><path d="M37.5001 191 164.436 191 164.436 194 37.5001 194ZM162.936 188 171.936 192.5 162.936 197Z" fill="#ED7D31"/><text font-family="Calibri,Calibri_MSFontService,sans-serif" font-weight="400" font-size="19" transform="translate(60.4356 178)">Land resource</text><path d="M35.5001 241 162.436 241 162.436 244 35.5001 244ZM160.936 238 169.936 242.5 160.936 247Z" fill="#00B050"/><text font-family="Calibri,Calibri_MSFontService,sans-serif" font-weight="400" font-size="19" transform="translate(43.244 229)">Energy resource</text><rect x="168.5" y="312.5" width="265" height="189" stroke="#000000" stroke-width="1.33333" stroke-miterlimit="8" fill="#FFFFFF"/><text font-family="Calibri,Calibri_MSFontService,sans-serif" font-weight="700" font-size="16" transform="translate(248.748 401)">LND<tspan fill="#0070C0" x="27.5" y="0">CP01</tspan><tspan fill="#00B050" x="60.8333" y="0">H</tspan><tspan fill="#4472C4" font-size="21" x="71" y="0">I</tspan><tspan fill="#FF0000" x="76.6667" y="0">ETH</tspan><tspan font-weight="400" x="-63.7867" y="26">(</tspan><tspan fill="#0070C0" font-weight="400" x="-58.9533" y="26">Crop 1</tspan><tspan font-weight="400" x="-16.5467" y="26">|</tspan><tspan fill="#00B050" font-weight="400" x="-9.21333" y="26">High</tspan><tspan font-weight="400" x="20.2867" y="26">|</tspan><tspan fill="#4472C4" font-weight="400" font-size="21" x="27.62" y="26">Irrigated</tspan><tspan font-weight="400" x="101.133" y="26">|</tspan><tspan fill="#FF0000" font-weight="400" x="108.467" y="26">Ethiopia</tspan><tspan font-weight="400" x="161.613" y="26">)</tspan></text><path d="M32.5001 339 159.436 339 159.436 342 32.5001 342ZM157.936 336 166.936 340.5 157.936 345Z" fill="#0070C0"/><text font-family="Calibri,Calibri_MSFontService,sans-serif" font-weight="400" font-size="19" transform="translate(65.9761 328)">Precipitation</text><path d="M431.004 351 816.002 351.865 815.993 355.865 430.996 355ZM814.011 347.861 825.998 353.888 813.984 359.861Z"/><path d="M35.5001 431 162.436 431 162.436 434 35.5001 434ZM160.936 428 169.936 432.5 160.936 437Z" fill="#ED7D31"/><text font-family="Calibri,Calibri_MSFontService,sans-serif" font-weight="400" font-size="19" transform="translate(57.9698 418)">Land resource</text><path d="M32.5001 481 159.436 481 159.436 484 32.5001 484ZM157.936 478 166.936 482.5 157.936 487Z" fill="#00B050"/><text font-family="Calibri,Calibri_MSFontService,sans-serif" font-weight="400" font-size="19" transform="translate(40.7782 469)">Energy resource</text><path d="M32.5001 380 159.436 380 159.436 383 32.5001 383ZM157.936 377 166.936 381.5 157.936 386Z" fill="#0070C0"/><text font-family="Calibri,Calibri_MSFontService,sans-serif" font-weight="400" font-size="19" transform="translate(93.1827 368)">Irrigation</text><rect x="834.5" y="146.5" width="297" height="105" stroke="#000000" stroke-width="1.33333" stroke-miterlimit="8" stroke-dasharray="10.6667 4" fill="#F2F2F2"/><text font-family="Calibri,Calibri_MSFontService,sans-serif" font-weight="400" font-size="16" transform="translate(954.925 167)">Mode 2: <tspan x="-59.8067" y="19">Crop 1|Low|Rain</tspan><tspan x="52.2067" y="19">-</tspan><tspan x="57.04" y="19">fed </tspan><tspan x="81.4733" y="19">|ETH</tspan></text><path d="M0-1.5 66.1268-1.5 66.1268 103.004 64.6268 101.504 121.754 101.504 121.754 104.504 63.1268 104.504 63.1268 0 64.6268 1.5 0 1.5ZM120.254 98.5036 129.254 103.004 120.254 107.504Z" transform="matrix(1 0 0 -1 702.5 298.504)"/><path d="M434.5 246 577.239 246 577.239 249 434.5 249ZM575.739 243 584.739 247.5 575.739 252Z" fill="#7030A0"/><text font-family="Calibri,Calibri_MSFontService,sans-serif" font-weight="400" font-size="19" transform="translate(482.406 241)">Run<tspan x="29.8333" y="0">-</tspan><tspan x="35.5" y="0">off</tspan></text><path d="M432.5 450 616.521 450 616.521 453 432.5 453ZM615.021 447 624.021 451.5 615.021 456Z" fill="#A5A5A5"/><text font-family="Calibri,Calibri_MSFontService,sans-serif" font-weight="400" font-size="19" transform="translate(451.311 443)">Evapotranspiration<tspan x="20.547" y="-56">Groundwater </tspan><tspan x="55.3203" y="-33">recharge</tspan></text><path d="M0.00649371-1.49999 193.208-0.663584 193.195 2.33639-0.00649371 1.49999ZM191.721-3.67005 200.701 0.868871 191.682 5.32987Z" fill="#0070C0" transform="matrix(1 0 0 -1 438.5 393.369)"/><path d="M433.5 482 576.239 482 576.239 485 433.5 485ZM574.739 479 583.739 483.5 574.739 488Z" fill="#7030A0"/><text font-family="Calibri,Calibri_MSFontService,sans-serif" font-weight="400" font-size="19" transform="translate(480.964 478)">Run<tspan x="29.8333" y="0">-</tspan><tspan x="35.5" y="0">off</tspan></text><path d="M0-1.5 439.498-1.5 439.498 12.7291 436.498 12.7291 436.498 0 437.998 1.5 0 1.5ZM442.498 11.2291 437.998 20.2291 433.498 11.2291Z" fill="#0070C0" transform="matrix(-4.37114e-08 1 1 4.37114e-08 639.5 158.5)"/><path d="M0-1.5 435.876-1.5 435.876 195.693 432.876 195.693 432.876 0 434.376 1.5 0 1.5ZM438.876 194.192 434.376 203.192 429.876 194.192Z" fill="#A5A5A5" transform="matrix(-4.37114e-08 1 1 4.37114e-08 624.5 215.5)"/><rect x="659.5" y="580.5" width="124" height="32" stroke="#0070C0" stroke-width="3" stroke-linejoin="round" stroke-miterlimit="10" fill="none"/><text font-family="Calibri,Calibri_MSFontService,sans-serif" font-weight="400" font-size="19" transform="translate(672.387 602)">Groundwater</text><rect x="828.5" y="633.5" width="167" height="32" stroke="#A5A5A5" stroke-width="3" stroke-linejoin="round" stroke-miterlimit="10" fill="none"/><text font-family="Calibri,Calibri_MSFontService,sans-serif" font-weight="400" font-size="19" transform="translate(841.731 655)">Evapotranspiration<tspan x="-167.66" y="35">Towards </tspan><tspan x="-170.507" y="58">end</tspan>-<tspan x="-135.84" y="58">uses</tspan></text><path d="M0-1.5 451.217-1.5 451.509 80.0104 448.509 80.0211 448.222 0.00537391 449.722 1.5 0 1.5ZM454.139 77.6833 451.443 87.3774 445.305 79.4034Z" fill="#7030A0" transform="matrix(-4.37114e-08 1 1 4.37114e-08 583.5 246.5)"/><rect x="826.5" y="464.5" width="298" height="78" stroke="#000000" stroke-width="1.33333" stroke-miterlimit="8" stroke-dasharray="10.6667 4" fill="#F2F2F2"/><text font-family="Calibri,Calibri_MSFontService,sans-serif" font-weight="400" font-size="16" transform="translate(908.977 492)">Mode <tspan x="42.1667" y="0">45: </tspan><tspan x="66.5" y="0">Forests</tspan></text><rect x="169.5" y="534.5" width="265" height="144" stroke="#000000" stroke-width="1.33333" stroke-miterlimit="8" fill="#FFFFFF"/><text font-family="Calibri,Calibri_MSFontService,sans-serif" font-weight="700" font-size="16" transform="translate(261.246 602)">LNDFOR<tspan fill="#FF0000" x="54.5467" y="0">ETH</tspan><tspan x="-25.8333" y="19">(Forests in </tspan><tspan fill="#FF0000" x="46.4467" y="19">Ethiopia</tspan><tspan x="101.38" y="19">)</tspan></text><path d="M33.5001 580 160.436 580 160.436 583 33.5001 583ZM158.936 577 167.936 581.5 158.936 586Z" fill="#0070C0"/><text font-family="Calibri,Calibri_MSFontService,sans-serif" font-weight="400" font-size="19" transform="translate(66.4105 568)">Precipitation</text><path d="M434.5 632 618.521 632 618.521 635 434.5 635ZM617.021 629 626.021 633.5 617.021 638Z" fill="#A5A5A5"/><text font-family="Calibri,Calibri_MSFontService,sans-serif" font-weight="400" font-size="19" transform="translate(447.255 628)">Evapotranspiration<tspan x="22.7855" y="-54">Groundwater </tspan><tspan x="57.5588" y="-31">recharge</tspan></text><path d="M0.00649371-1.49999 193.208-0.663584 193.195 2.33639-0.00649371 1.49999ZM191.721-3.67005 200.701 0.868871 191.682 5.32987Z" fill="#0070C0" transform="matrix(1 0 0 -1 436.5 580.369)"/><path d="M36.5001 653 163.436 653 163.436 656 36.5001 656ZM161.936 650 170.936 654.5 161.936 659Z" fill="#ED7D31"/><text font-family="Calibri,Calibri_MSFontService,sans-serif" font-weight="400" font-size="19" transform="translate(59.412 640)">Land resource</text><path d="M433.5 671 576.239 671 576.239 674 433.5 674ZM574.739 668 583.739 672.5 574.739 677Z" fill="#7030A0"/><text font-family="Calibri,Calibri_MSFontService,sans-serif" font-weight="400" font-size="19" transform="translate(487.911 662)">Run<tspan x="29.8333" y="0">-</tspan><tspan x="35.5" y="0">off</tspan></text><path d="M0-1.5 234.672-1.5 234.672 45.4152 233.172 43.9152 384.743 43.9152 384.743 46.9152 231.672 46.9152 231.672 0 233.172 1.5 0 1.5ZM383.242 40.9152 392.242 45.4152 383.242 49.9152Z" transform="matrix(1 0 0 -1 434.5 548.915)"/><path d="M293.5 281C293.5 279.619 294.619 278.5 296 278.5 297.381 278.5 298.5 279.619 298.5 281 298.5 282.381 297.381 283.5 296 283.5 294.619 283.5 293.5 282.381 293.5 281Z" stroke="#000000" stroke-width="1.33333" stroke-miterlimit="8" fill-rule="evenodd"/><path d="M293.5 290.5C293.5 288.843 294.619 287.5 296 287.5 297.381 287.5 298.5 288.843 298.5 290.5 298.5 292.157 297.381 293.5 296 293.5 294.619 293.5 293.5 292.157 293.5 290.5Z" stroke="#000000" stroke-width="1.33333" stroke-miterlimit="8" fill-rule="evenodd"/><path d="M293.5 300C293.5 298.619 294.619 297.5 296 297.5 297.381 297.5 298.5 298.619 298.5 300 298.5 301.381 297.381 302.5 296 302.5 294.619 302.5 293.5 301.381 293.5 300Z" stroke="#000000" stroke-width="1.33333" stroke-miterlimit="8" fill-rule="evenodd"/><path d="M296.5 509.5C296.5 508.395 297.619 507.5 299 507.5 300.381 507.5 301.5 508.395 301.5 509.5 301.5 510.605 300.381 511.5 299 511.5 297.619 511.5 296.5 510.605 296.5 509.5Z" stroke="#000000" stroke-width="1.33333" stroke-miterlimit="8" fill-rule="evenodd"/><path d="M296.5 516.5C296.5 515.396 297.619 514.5 299 514.5 300.381 514.5 301.5 515.396 301.5 516.5 301.5 517.605 300.381 518.5 299 518.5 297.619 518.5 296.5 517.605 296.5 516.5Z" stroke="#000000" stroke-width="1.33333" stroke-miterlimit="8" fill-rule="evenodd"/><path d="M296.5 524C296.5 522.619 297.619 521.5 299 521.5 300.381 521.5 301.5 522.619 301.5 524 301.5 525.381 300.381 526.5 299 526.5 297.619 526.5 296.5 525.381 296.5 524Z" stroke="#000000" stroke-width="1.33333" stroke-miterlimit="8" fill-rule="evenodd"/><path d="M302.5 691C302.5 689.619 303.619 688.5 305 688.5 306.381 688.5 307.5 689.619 307.5 691 307.5 692.381 306.381 693.5 305 693.5 303.619 693.5 302.5 692.381 302.5 691Z" stroke="#000000" stroke-width="1.33333" stroke-miterlimit="8" fill-rule="evenodd"/><path d="M302.5 700C302.5 698.619 303.619 697.5 305 697.5 306.381 697.5 307.5 698.619 307.5 700 307.5 701.381 306.381 702.5 305 702.5 303.619 702.5 302.5 701.381 302.5 700Z" stroke="#000000" stroke-width="1.33333" stroke-miterlimit="8" fill-rule="evenodd"/><path d="M302.5 708.5C302.5 706.843 303.619 705.5 305 705.5 306.381 705.5 307.5 706.843 307.5 708.5 307.5 710.157 306.381 711.5 305 711.5 303.619 711.5 302.5 710.157 302.5 708.5Z" stroke="#000000" stroke-width="1.33333" stroke-miterlimit="8" fill-rule="evenodd"/><path d="M964.5 266.5C964.5 263.739 966.291 261.5 968.5 261.5 970.709 261.5 972.5 263.739 972.5 266.5 972.5 269.261 970.709 271.5 968.5 271.5 966.291 271.5 964.5 269.261 964.5 266.5Z" stroke="#000000" stroke-width="1.33333" stroke-miterlimit="8" fill-rule="evenodd"/><path d="M964.5 283C964.5 280.515 966.291 278.5 968.5 278.5 970.709 278.5 972.5 280.515 972.5 283 972.5 285.485 970.709 287.5 968.5 287.5 966.291 287.5 964.5 285.485 964.5 283Z" stroke="#000000" stroke-width="1.33333" stroke-miterlimit="8" fill-rule="evenodd"/><path d="M964.5 299.5C964.5 296.739 966.291 294.5 968.5 294.5 970.709 294.5 972.5 296.739 972.5 299.5 972.5 302.261 970.709 304.5 968.5 304.5 966.291 304.5 964.5 302.261 964.5 299.5Z" stroke="#000000" stroke-width="1.33333" stroke-miterlimit="8" fill-rule="evenodd"/><path d="M968.5 420C968.5 417.515 970.291 415.5 972.5 415.5 974.709 415.5 976.5 417.515 976.5 420 976.5 422.485 974.709 424.5 972.5 424.5 970.291 424.5 968.5 422.485 968.5 420Z" stroke="#000000" stroke-width="1.33333" stroke-miterlimit="8" fill-rule="evenodd"/><path d="M968.5 436.5C968.5 433.739 970.291 431.5 972.5 431.5 974.709 431.5 976.5 433.739 976.5 436.5 976.5 439.261 974.709 441.5 972.5 441.5 970.291 441.5 968.5 439.261 968.5 436.5Z" stroke="#000000" stroke-width="1.33333" stroke-miterlimit="8" fill-rule="evenodd"/><path d="M968.5 452.5C968.5 449.739 970.291 447.5 972.5 447.5 974.709 447.5 976.5 449.739 976.5 452.5 976.5 455.261 974.709 457.5 972.5 457.5 970.291 457.5 968.5 455.261 968.5 452.5Z" stroke="#000000" stroke-width="1.33333" stroke-miterlimit="8" fill-rule="evenodd"/><path d="M972.5 554C972.5 551.515 974.515 549.5 977 549.5 979.485 549.5 981.5 551.515 981.5 554 981.5 556.485 979.485 558.5 977 558.5 974.515 558.5 972.5 556.485 972.5 554Z" stroke="#000000" stroke-width="1.33333" stroke-miterlimit="8" fill-rule="evenodd"/><path d="M972.5 570.5C972.5 567.739 974.515 565.5 977 565.5 979.485 565.5 981.5 567.739 981.5 570.5 981.5 573.261 979.485 575.5 977 575.5 974.515 575.5 972.5 573.261 972.5 570.5Z" stroke="#000000" stroke-width="1.33333" stroke-miterlimit="8" fill-rule="evenodd"/><path d="M972.5 587C972.5 584.515 974.515 582.5 977 582.5 979.485 582.5 981.5 584.515 981.5 587 981.5 589.485 979.485 591.5 977 591.5 974.515 591.5 972.5 589.485 972.5 587Z" stroke="#000000" stroke-width="1.33333" stroke-miterlimit="8" fill-rule="evenodd"/><path d="M1151.5 263C1151.5 260.515 1153.51 258.5 1156 258.5 1158.49 258.5 1160.5 260.515 1160.5 263 1160.5 265.485 1158.49 267.5 1156 267.5 1153.51 267.5 1151.5 265.485 1151.5 263Z" stroke="#000000" stroke-width="1.33333" stroke-miterlimit="8" fill-rule="evenodd"/><path d="M1151.5 279.5C1151.5 276.739 1153.51 274.5 1156 274.5 1158.49 274.5 1160.5 276.739 1160.5 279.5 1160.5 282.261 1158.49 284.5 1156 284.5 1153.51 284.5 1151.5 282.261 1151.5 279.5Z" stroke="#000000" stroke-width="1.33333" stroke-miterlimit="8" fill-rule="evenodd"/><path d="M1151.5 296C1151.5 293.515 1153.51 291.5 1156 291.5 1158.49 291.5 1160.5 293.515 1160.5 296 1160.5 298.485 1158.49 300.5 1156 300.5 1153.51 300.5 1151.5 298.485 1151.5 296Z" stroke="#000000" stroke-width="1.33333" stroke-miterlimit="8" fill-rule="evenodd"/></g></svg>