<svg xmlns="http://www.w3.org/2000/svg" xmlns:xlink="http://www.w3.org/1999/xlink" xmlns:lucid="lucid" width="1603" height="1208"><g transform="translate(-612 -2362)" lucid:page-tab-id="64BbHKmIaJ1b8"><path d="M1040 2413.37h200v80h-200z" fill="#834187"/><use xlink:href="#a" transform="matrix(1,0,0,1,1060,2413.3684868916685) translate(17.746913580246932 31.11111111111111)"/><use xlink:href="#b" transform="matrix(1,0,0,1,1060,2413.3684868916685) translate(100.27777777777777 31.11111111111111)"/><use xlink:href="#c" transform="matrix(1,0,0,1,1060,2413.3684868916685) translate(17.80864197530866 57.77777777777777)"/><use xlink:href="#d" transform="matrix(1,0,0,1,1060,2413.3684868916685) translate(89.29012345679013 57.77777777777777)"/><path d="M1036 2548.96h200v80h-200z" fill="#333"/><use xlink:href="#e" transform="matrix(1,0,0,1,1056,2548.9583333333335) translate(55.98765432098766 31.11111111111111)"/><use xlink:href="#f" transform="matrix(1,0,0,1,1056,2548.9583333333335) translate(17.80864197530866 57.77777777777777)"/><use xlink:href="#g" transform="matrix(1,0,0,1,1056,2548.9583333333335) translate(89.29012345679013 57.77777777777777)"/><path d="M1040 2822.5h200v80h-200z" fill="#0c7cba"/><use xlink:href="#h" transform="matrix(1,0,0,1,1060,2822.5) translate(15.339506172839506 31.11111111111111)"/><use xlink:href="#g" transform="matrix(1,0,0,1,1060,2822.5) translate(53.549382716049394 57.77777777777777)"/><path d="M1040 3208.96h200v80h-200z" fill="#de5f85"/><use xlink:href="#i" transform="matrix(1,0,0,1,1060,3208.9583333333335) translate(17.283950617283963 31.11111111111111)"/><use xlink:href="#j" transform="matrix(1,0,0,1,1060,3208.9583333333335) translate(77.4074074074074 31.11111111111111)"/><use xlink:href="#k" transform="matrix(1,0,0,1,1060,3208.9583333333335) translate(53.549382716049394 57.77777777777777)"/><path d="M700 2413.37h200v80H700z" fill="#834187"/><use xlink:href="#a" transform="matrix(1,0,0,1,720,2413.3684868916685) translate(17.746913580246932 31.11111111111111)"/><use xlink:href="#l" transform="matrix(1,0,0,1,720,2413.3684868916685) translate(100.27777777777777 31.11111111111111)"/><use xlink:href="#m" transform="matrix(1,0,0,1,720,2413.3684868916685) translate(-16.697530864197475 57.77777777777777)"/><path d="M700 2548.96h200v80H700z" fill="#333"/><use xlink:href="#n" transform="matrix(1,0,0,1,720,2548.9583333333335) translate(55.98765432098766 31.11111111111111)"/><use xlink:href="#o" transform="matrix(1,0,0,1,720,2548.9583333333335) translate(-16.697530864197475 57.77777777777777)"/><path d="M700 2822.5h200v80H700z" fill="#0c7cba"/><use xlink:href="#p" transform="matrix(1,0,0,1,720,2822.5) translate(15.339506172839506 31.11111111111111)"/><use xlink:href="#q" transform="matrix(1,0,0,1,720,2822.5) translate(33.14814814814815 57.77777777777777)"/><path d="M700 3208.96h200v80H700z" fill="#de5f85"/><use xlink:href="#i" transform="matrix(1,0,0,1,720,3208.9583333333335) translate(3.0864197530864317 44.44444444444444)"/><use xlink:href="#r" transform="matrix(1,0,0,1,720,3208.9583333333335) translate(63.20987654320987 44.44444444444444)"/><path d="M901.5 2449.45h117.88" stroke="#834187" stroke-width="3" fill="none"/><path d="M901.54 2450.95H900v-3h1.54z" fill="#834187"/><path d="M1035.15 2449.45l-14.27 4.64v-9.28z" stroke="#834187" stroke-width="3" fill="#834187"/><path d="M901.5 2588.96h113.88" stroke="#333" stroke-width="3" fill="none"/><path d="M901.54 2590.46H900v-3h1.54z" fill="#333"/><path d="M1031.15 2588.96l-14.27 4.63v-9.28z" stroke="#333" stroke-width="3" fill="#333"/><path d="M901.5 2862.5h117.88" stroke="#0c7cba" stroke-width="3" fill="none"/><path d="M901.54 2864H900v-3h1.54z" fill="#0c7cba"/><path d="M1035.15 2862.5l-14.27 4.64v-9.28z" stroke="#0c7cba" stroke-width="3" fill="#0c7cba"/><path d="M901.5 3248.96h117.88" stroke="#de5f85" stroke-width="3" fill="none"/><path d="M901.54 3250.46H900v-3h1.54z" fill="#de5f85"/><path d="M1035.15 3248.96l-14.27 4.63v-9.28z" stroke="#de5f85" stroke-width="3" fill="#de5f85"/><path d="M1241.5 2453.37h94.5v392.36h123.38" stroke="#c92d39" stroke-width="3" fill="none"/><path d="M1241.54 2454.87H1240v-3h1.54z" fill="#c92d39"/><path d="M1475.15 2845.73l-14.27 4.63v-9.27z" stroke="#c92d39" stroke-width="3" fill="#c92d39"/><path d="M912 2384h100v62.46H912z" stroke="#000" stroke-opacity="0" stroke-width="6" fill="#fff" fill-opacity="0"/><use xlink:href="#s" transform="matrix(1,0,0,1,932,2384) translate(-8.179012345678998 22.61111111111111)"/><use xlink:href="#t" transform="matrix(1,0,0,1,932,2384) translate(10.895061728395063 49.27777777777777)"/><path d="M912 2553.73h100v46.46H912z" stroke="#000" stroke-opacity="0" stroke-width="6" fill="#fff" fill-opacity="0"/><use xlink:href="#u" transform="matrix(1,0,0,1,932,2553.7291666666665) translate(5.987654320987659 27.944444444444443)"/><path d="M912 2822.5h100v46.46H912z" stroke="#000" stroke-opacity="0" stroke-width="6" fill="#fff" fill-opacity="0"/><use xlink:href="#v" transform="matrix(1,0,0,1,932,2822.5) translate(-2.0061728395061706 27.944444444444443)"/><path d="M1088 3072h100v46.46h-100z" stroke="#000" stroke-opacity="0" stroke-width="6" fill="#fff" fill-opacity="0"/><use xlink:href="#w" transform="matrix(1,0,0,1,1108,3072) translate(2.2530864197530924 17.777777777777775)"/><use xlink:href="#x" transform="matrix(1,0,0,1,1108,3072) translate(-24.197530864197525 44.44444444444444)"/><path d="M912 3208.96h100v46.46H912z" stroke="#000" stroke-opacity="0" stroke-width="6" fill="#fff" fill-opacity="0"/><use xlink:href="#y" transform="matrix(1,0,0,1,932,3208.9583333333335) translate(3.024691358024697 27.944444444444443)"/><path d="M1688 2784h100v46.46h-100z" stroke="#000" stroke-opacity="0" stroke-width="6" fill="#fff" fill-opacity="0"/><use xlink:href="#z" transform="matrix(1,0,0,1,1708,2784) translate(-26.697530864197518 17.777777777777775)"/><use xlink:href="#A" transform="matrix(1,0,0,1,1708,2784) translate(-21.790123456790127 44.44444444444444)"/><path d="M1480 2805.73h200v80h-200z" fill="#999"/><use xlink:href="#B" transform="matrix(1,0,0,1,1500,2805.7291666666665) translate(8.518518518518547 44.44444444444444)"/><path d="M1480 3088.96h200v80h-200z" fill="#ef8d22"/><use xlink:href="#C" transform="matrix(1,0,0,1,1500,3088.9583333333335) translate(34.35185185185186 31.11111111111111)"/><use xlink:href="#D" transform="matrix(1,0,0,1,1500,3088.9583333333335) translate(96.01851851851852 31.11111111111111)"/><use xlink:href="#E" transform="matrix(1,0,0,1,1500,3088.9583333333335) translate(17.80864197530866 57.77777777777777)"/><use xlink:href="#k" transform="matrix(1,0,0,1,1500,3088.9583333333335) translate(89.29012345679013 57.77777777777777)"/><path d="M700 3088.96h200v80H700z" fill="#ef8d22"/><use xlink:href="#C" transform="matrix(1,0,0,1,720,3088.9583333333335) translate(2.3148148148148238 44.44444444444444)"/><use xlink:href="#r" transform="matrix(1,0,0,1,720,3088.9583333333335) translate(63.98148148148148 44.44444444444444)"/><path d="M901.5 3128.96h557.88" stroke="#ef8d22" stroke-width="3" fill="none"/><path d="M901.54 3130.46H900v-3h1.54z" fill="#ef8d22"/><path d="M1475.15 3128.96l-14.27 4.63v-9.28z" stroke="#ef8d22" stroke-width="3" fill="#ef8d22"/><path d="M1681.5 3128.96h55.82v-281.73" stroke="#c92d39" stroke-width="3" fill="none"/><path d="M1681.54 3130.46H1680v-3h1.54z" fill="#c92d39"/><path d="M1737.32 2847.27v-1.54M1681.5 2845.73h93.88" stroke="#c92d39" stroke-width="3" fill="none"/><path d="M1681.54 2847.23H1680v-3h1.54z" fill="#c92d39"/><path d="M1791.15 2845.73l-14.27 4.63v-9.27z" stroke="#c92d39" stroke-width="3" fill="#c92d39"/><path d="M1355.63 2784h100v46.46h-100z" stroke="#000" stroke-opacity="0" stroke-width="6" fill="#fff" fill-opacity="0"/><use xlink:href="#F" transform="matrix(1,0,0,1,1375.6311838276852,2784) translate(-11.358024691358011 17.777777777777775)"/><use xlink:href="#A" transform="matrix(1,0,0,1,1375.6311838276852,2784) translate(-21.790123456790127 44.44444444444444)"/><path d="M1997.5 3232.8h58.5v309.68H984v-47.17h33.38" stroke="#c92d39" stroke-width="3" fill="none"/><path d="M1997.54 3234.3H1996v-3h1.54z" fill="#c92d39"/><path d="M1033.15 3495.3l-14.27 4.64v-9.27z" stroke="#c92d39" stroke-width="3" fill="#c92d39"/><path d="M1239.5 3450.12h157.38V3156.1h62.5" stroke="#2b9644" stroke-width="3" fill="none"/><path d="M1239.54 3451.62H1238v-3h1.54z" fill="#2b9644"/><path d="M1475.15 3156.1l-14.27 4.63v-9.27z" stroke="#2b9644" stroke-width="3" fill="#2b9644"/><path d="M1038 3348.73h200v176h-200z" fill="#2b9644"/><use xlink:href="#G" transform="matrix(1,0,0,1,1058,3348.7291666666665) translate(7.932098765432102 79.11111111111111)"/><use xlink:href="#H" transform="matrix(1,0,0,1,1058,3348.7291666666665) translate(67.00617283950616 79.11111111111111)"/><use xlink:href="#I" transform="matrix(1,0,0,1,1058,3348.7291666666665) translate(56.574074074074076 105.77777777777777)"/><use xlink:href="#J" transform="matrix(1,0,0,1,1058,3348.7291666666665) translate(75.0925925925926 105.77777777777777)"/><use xlink:href="#K" transform="matrix(1,0,0,1,1058,3348.7291666666665) translate(88.61111111111111 105.77777777777777)"/><path d="M1796 2805.73h200v80h-200z" fill="#999"/><use xlink:href="#L" transform="matrix(1,0,0,1,1816,2805.7291666666665) translate(16.48148148148151 31.11111111111111)"/><use xlink:href="#M" transform="matrix(1,0,0,1,1816,2805.7291666666665) translate(19.104938271604944 57.77777777777777)"/><path d="M1796 2902.5h200v80h-200z" fill="#999"/><use xlink:href="#N" transform="matrix(1,0,0,1,1816,2902.5) translate(36.296296296296305 31.11111111111111)"/><use xlink:href="#M" transform="matrix(1,0,0,1,1816,2902.5) translate(19.104938271604944 57.77777777777777)"/><path d="M1796 2999.27h200v80h-200z" fill="#999"/><use xlink:href="#O" transform="matrix(1,0,0,1,1816,2999.2708333333335) translate(20.864197530864203 31.11111111111111)"/><use xlink:href="#M" transform="matrix(1,0,0,1,1816,2999.2708333333335) translate(19.104938271604944 57.77777777777777)"/><path d="M1796 3096.04h200v80h-200z" fill="#999"/><use xlink:href="#P" transform="matrix(1,0,0,1,1816,3096.041666666667) translate(28.91975308641976 31.11111111111111)"/><use xlink:href="#M" transform="matrix(1,0,0,1,1816,3096.041666666667) translate(19.104938271604944 57.77777777777777)"/><path d="M1796 3192.8h200v80h-200z" fill="#999"/><use xlink:href="#Q" transform="matrix(1,0,0,1,1816,3192.8125000000005) translate(20.895061728395078 31.11111111111111)"/><use xlink:href="#M" transform="matrix(1,0,0,1,1816,3192.8125000000005) translate(19.104938271604944 57.77777777777777)"/><path d="M1997.5 2845.73h45.88" stroke="#c92d39" stroke-width="3" fill="none"/><path d="M1997.54 2847.23H1996v-3h1.54z" fill="#c92d39"/><path d="M2059.15 2845.73l-14.27 4.63v-9.27z" stroke="#c92d39" stroke-width="3" fill="#c92d39"/><path d="M1997.5 2942.5h45.88" stroke="#c92d39" stroke-width="3" fill="none"/><path d="M1997.54 2944H1996v-3h1.54z" fill="#c92d39"/><path d="M2059.15 2942.5l-14.27 4.64v-9.28z" stroke="#c92d39" stroke-width="3" fill="#c92d39"/><path d="M1997.5 3039.27h45.88" stroke="#c92d39" stroke-width="3" fill="none"/><path d="M1997.54 3040.77H1996v-3h1.54z" fill="#c92d39"/><path d="M2059.15 3039.27l-14.27 4.64v-9.26z" stroke="#c92d39" stroke-width="3" fill="#c92d39"/><path d="M1997.5 3039.27h45.88" stroke="#000" stroke-opacity="0" stroke-width="3" fill="none"/><path d="M2059.15 3039.27l-14.27 4.64v-9.26z" stroke="#000" stroke-opacity="0" stroke-width="3" fill-opacity="0"/><path d="M1997.5 3136.04h32.5v-.04h13.38" stroke="#c92d39" stroke-width="3" fill="none"/><path d="M1997.54 3137.54H1996v-3h1.54z" fill="#c92d39"/><path d="M2059.15 3136l-14.27 4.64v-9.28z" stroke="#c92d39" stroke-width="3" fill="#c92d39"/><path d="M2080 2822.5h100v46.46h-100z" stroke="#000" stroke-opacity="0" stroke-width="6" fill="#fff" fill-opacity="0"/><use xlink:href="#R" transform="matrix(1,0,0,1,2100,2822.5) translate(-33.51851851851849 17.777777777777775)"/><use xlink:href="#S" transform="matrix(1,0,0,1,2100,2822.5) translate(-21.790123456790127 44.44444444444444)"/><use xlink:href="#T" transform="matrix(1,0,0,1,2100,2822.5) translate(-12.499999999999993 71.1111111111111)"/><path d="M2080 2919.27h100v46.46h-100z" stroke="#000" stroke-opacity="0" stroke-width="6" fill="#fff" fill-opacity="0"/><use xlink:href="#U" transform="matrix(1,0,0,1,2100,2919.2708333333335) translate(-13.703703703703695 17.777777777777775)"/><use xlink:href="#S" transform="matrix(1,0,0,1,2100,2919.2708333333335) translate(-21.790123456790127 44.44444444444444)"/><use xlink:href="#T" transform="matrix(1,0,0,1,2100,2919.2708333333335) translate(-12.499999999999993 71.1111111111111)"/><path d="M2080 3016.04h100v46.46h-100z" stroke="#000" stroke-opacity="0" stroke-width="6" fill="#fff" fill-opacity="0"/><use xlink:href="#V" transform="matrix(1,0,0,1,2100,3016.0416666666665) translate(-29.135802469135797 17.777777777777775)"/><use xlink:href="#S" transform="matrix(1,0,0,1,2100,3016.0416666666665) translate(-21.790123456790127 44.44444444444444)"/><use xlink:href="#T" transform="matrix(1,0,0,1,2100,3016.0416666666665) translate(-12.499999999999993 71.1111111111111)"/><path d="M2080 3112.8h100v46.47h-100z" stroke="#000" stroke-opacity="0" stroke-width="6" fill="#fff" fill-opacity="0"/><use xlink:href="#W" transform="matrix(1,0,0,1,2100,3112.8124999999995) translate(-21.08024691358024 17.777777777777775)"/><use xlink:href="#S" transform="matrix(1,0,0,1,2100,3112.8124999999995) translate(-21.790123456790127 44.44444444444444)"/><use xlink:href="#T" transform="matrix(1,0,0,1,2100,3112.8124999999995) translate(-12.499999999999993 71.1111111111111)"/><path d="M1239.5 3450.12h157.36V3312H984v-43.8h35.38" stroke="#2b9644" stroke-width="3" fill="none"/><path d="M1239.54 3451.62H1238v-3h1.54z" fill="#2b9644"/><path d="M1035.15 3268.2l-14.27 4.65v-9.27z" stroke="#2b9644" stroke-width="3" fill="#2b9644"/><path d="M1239.5 3450.12h157.36V3312H656v-374.05h328v-45.6h35.38" stroke="#2b9644" stroke-width="3" fill="none"/><path d="M1239.54 3451.62H1238v-3h1.54z" fill="#2b9644"/><path d="M1035.15 2892.34l-14.27 4.63v-9.27z" stroke="#2b9644" stroke-width="3" fill="#2b9644"/><path d="M1239.5 3450.12h157.38V3312H656v-648h328v-44.1h31.38" stroke="#2b9644" stroke-width="3" fill="none"/><path d="M1239.54 3451.62H1238v-3h1.54z" fill="#2b9644"/><path d="M1031.15 2619.9l-14.27 4.63v-9.27z" stroke="#2b9644" stroke-width="3" fill="#2b9644"/><path d="M1239.5 3450.12h157.38V3312H656v-784h328v-45.42h35.38" stroke="#2b9644" stroke-width="3" fill="none"/><path d="M1239.54 3451.62H1238v-3h1.54z" fill="#2b9644"/><path d="M1035.15 2482.58l-14.27 4.63v-9.26z" stroke="#2b9644" stroke-width="3" fill="#2b9644"/><path d="M2080 3242.5h100v46.46h-100z" stroke="#000" stroke-opacity="0" stroke-width="6" fill="#fff" fill-opacity="0"/><use xlink:href="#X" transform="matrix(1,0,0,1,2100,3242.5) translate(-29.104938271604922 17.777777777777775)"/><use xlink:href="#S" transform="matrix(1,0,0,1,2100,3242.5) translate(-21.790123456790127 44.44444444444444)"/><use xlink:href="#T" transform="matrix(1,0,0,1,2100,3242.5) translate(-12.499999999999993 71.1111111111111)"/><path d="M1239.5 3382.78h136.13V3328H640v-465.5h39.38" stroke="#0c7cba" stroke-width="3" fill="none"/><path d="M1239.54 3384.28H1238v-3h1.54z" fill="#0c7cba"/><path d="M695.15 2862.5l-14.27 4.64v-9.28z" stroke="#0c7cba" stroke-width="3" fill="#0c7cba"/><path d="M907.5 3371.17h109.88M907.54 3371.17H906" stroke="#0c7cba" stroke-width="3" fill="none"/><path d="M1033.15 3371.17l-14.27 4.64v-9.26z" stroke="#0c7cba" stroke-width="3" fill="#0c7cba"/><path d="M907.5 3403.17h109.88M907.54 3403.17H906" stroke="#0c7cba" stroke-width="3" fill="none"/><path d="M1033.15 3403.17l-14.27 4.64v-9.26z" stroke="#0c7cba" stroke-width="3" fill="#0c7cba"/><path d="M778 3347.94h100v46.46H778z" stroke="#000" stroke-opacity="0" stroke-width="6" fill="#fff" fill-opacity="0"/><use xlink:href="#Y" transform="matrix(1,0,0,1,798,3347.9424320779463) translate(-37.12962962962962 27.944444444444443)"/><path d="M794 3379.94h100v46.46H794z" stroke="#000" stroke-opacity="0" stroke-width="6" fill="#fff" fill-opacity="0"/><use xlink:href="#Z" transform="matrix(1,0,0,1,814,3379.9424320779463) translate(-18.024691358024683 27.944444444444443)"/><path d="M736 3427.2h200v80H736z" fill="#2b9644"/><use xlink:href="#G" transform="matrix(1,0,0,1,756,3427.1875) translate(3.6111111111111143 44.44444444444444)"/><use xlink:href="#r" transform="matrix(1,0,0,1,756,3427.1875) translate(62.685185185185176 44.44444444444444)"/><path d="M936 3427.2h100v46.45H936z" stroke="#000" stroke-opacity="0" stroke-width="6" fill="#fff" fill-opacity="0"/><use xlink:href="#aa" transform="matrix(1,0,0,1,956,3427.1875) translate(3.5493827160493865 27.944444444444443)"/><path d="M937.5 3467.2h79.88" stroke="#2b9644" stroke-width="3" fill="none"/><path d="M937.54 3468.7H936v-3h1.54z" fill="#2b9644"/><path d="M1033.15 3467.2l-14.27 4.62v-9.27z" stroke="#2b9644" stroke-width="3" fill="#2b9644"/><path d="M1239.5 3382.78h136.13V3328H640v-680h328v-43.64h47.38" stroke="#0c7cba" stroke-width="3" fill="none"/><path d="M1239.54 3384.28H1238v-3h1.54z" fill="#0c7cba"/><path d="M1031.15 2604.36l-14.27 4.64v-9.27z" stroke="#0c7cba" stroke-width="3" fill="#0c7cba"/><path d="M1239.5 3382.78h136.02V3328H640v-816h328v-46.17h51.38" stroke="#0c7cba" stroke-width="3" fill="none"/><path d="M1239.54 3384.28H1238v-3h1.54z" fill="#0c7cba"/><path d="M1035.15 2465.83l-14.27 4.63v-9.27z" stroke="#0c7cba" stroke-width="3" fill="#0c7cba"/><path d="M1237.5 2588.96h98.5v256.77h123.38" stroke="#c92d39" stroke-width="3" fill="none"/><path d="M1237.54 2590.46H1236v-3h1.54z" fill="#c92d39"/><path d="M1475.15 2845.73l-14.27 4.63v-9.27z" stroke="#c92d39" stroke-width="3" fill="#c92d39"/><path d="M1241.5 2862.5h94.5v-16.77h123.38" stroke="#c92d39" stroke-width="3" fill="none"/><path d="M1241.54 2864H1240v-3h1.54z" fill="#c92d39"/><path d="M1475.15 2845.73l-14.27 4.63v-9.27z" stroke="#c92d39" stroke-width="3" fill="#c92d39"/><path d="M1241.5 3248.96h94.5v-403.23h123.38" stroke="#c92d39" stroke-width="3" fill="none"/><path d="M1241.54 3250.46H1240v-3h1.54z" fill="#c92d39"/><path d="M1475.15 2845.73l-14.27 4.63v-9.27z" stroke="#c92d39" stroke-width="3" fill="#c92d39"/><path d="M1264 3348.73h100v46.46h-100z" stroke="#000" stroke-opacity="0" stroke-width="6" fill="#fff" fill-opacity="0"/><use xlink:href="#ab" transform="matrix(1,0,0,1,1284,3348.7291666666665) translate(-0.4012345679012306 27.944444444444443)"/><path d="M1268 3395.2h100v46.45h-100z" stroke="#000" stroke-opacity="0" stroke-width="6" fill="#fff" fill-opacity="0"/><use xlink:href="#ac" transform="matrix(1,0,0,1,1288,3395.1875) translate(-11.79012345679012 17.777777777777775)"/><use xlink:href="#ad" transform="matrix(1,0,0,1,1288,3395.1875) translate(7.2222222222222285 44.44444444444444)"/><path d="M1040 2958.9h200v80h-200z" fill="#521dd8"/><use xlink:href="#ae" transform="matrix(1,0,0,1,1060,2958.910153558335) translate(18.364197530864217 31.11111111111111)"/><use xlink:href="#f" transform="matrix(1,0,0,1,1060,2958.910153558335) translate(17.80864197530866 57.77777777777777)"/><use xlink:href="#g" transform="matrix(1,0,0,1,1060,2958.910153558335) translate(89.29012345679013 57.77777777777777)"/><path d="M700 2958.9h200v80H700z" fill="#521dd8"/><use xlink:href="#af" transform="matrix(1,0,0,1,720,2958.910153558335) translate(18.364197530864217 31.11111111111111)"/><use xlink:href="#q" transform="matrix(1,0,0,1,720,2958.910153558335) translate(33.14814814814815 57.77777777777777)"/><path d="M901.5 2998.9h117.88" stroke="#521dd8" stroke-width="3" fill="none"/><path d="M901.54 3000.4H900v-3h1.54z" fill="#521dd8"/><path d="M1035.15 2998.9l-14.27 4.65v-9.28z" stroke="#521dd8" stroke-width="3" fill="#521dd8"/><path d="M912 2958.9h100v46.47H912z" stroke="#000" stroke-opacity="0" stroke-width="6" fill="#fff" fill-opacity="0"/><g><use xlink:href="#ag" transform="matrix(1,0,0,1,932,2958.910153558335) translate(-31.635802469135783 27.944444444444443)"/></g><path d="M1239.5 3450.12h157.38V3312H656v-237.64h328v-45.6h35.38" stroke="#2b9644" stroke-width="3" fill="none"/><path d="M1239.54 3451.62H1238v-3h1.54z" fill="#2b9644"/><path d="M1035.15 3028.75l-14.27 4.63v-9.27z" stroke="#2b9644" stroke-width="3" fill="#2b9644"/><path d="M1241.5 2998.9h94.5v-153.17h123.38" stroke="#c92d39" stroke-width="3" fill="none"/><path d="M1241.54 3000.4H1240v-3h1.54z" fill="#c92d39"/><path d="M1475.15 2845.73l-14.27 4.63v-9.27z" stroke="#c92d39" stroke-width="3" fill="#c92d39"/><path d="M1239.5 3382.78h136.02V3328H640v-270.05h328v-43.45h51.38" stroke="#0c7cba" stroke-width="3" fill="none"/><path d="M1239.54 3384.28H1238v-3h1.54z" fill="#0c7cba"/><path d="M1035.15 3014.5l-14.27 4.64v-9.27z" stroke="#0c7cba" stroke-width="3" fill="#0c7cba"/><path d="M1036 2688h200v80h-200z" fill="#e24f15"/><g><use xlink:href="#ah" transform="matrix(1,0,0,1,1056,2688) translate(14.660493827160508 31.11111111111111)"/><use xlink:href="#ai" transform="matrix(1,0,0,1,1056,2688) translate(86.2037037037037 31.11111111111111)"/><use xlink:href="#aj" transform="matrix(1,0,0,1,1056,2688) translate(98.54938271604937 31.11111111111111)"/><use xlink:href="#f" transform="matrix(1,0,0,1,1056,2688) translate(17.80864197530866 57.77777777777777)"/><use xlink:href="#g" transform="matrix(1,0,0,1,1056,2688) translate(89.29012345679013 57.77777777777777)"/></g><path d="M700 2688h200v80H700z" fill="#e24f15"/><g><use xlink:href="#ak" transform="matrix(1,0,0,1,720,2688) translate(65.18518518518519 17.777777777777782)"/><use xlink:href="#al" transform="matrix(1,0,0,1,720,2688) translate(36.265432098765444 44.44444444444444)"/><use xlink:href="#am" transform="matrix(1,0,0,1,720,2688) translate(0.5555555555555713 71.11111111111111)"/><use xlink:href="#an" transform="matrix(1,0,0,1,720,2688) translate(104.07407407407408 71.11111111111111)"/></g><path d="M901.5 2728h113.88" stroke="#e24f15" stroke-width="3" fill="none"/><path d="M901.54 2729.5H900v-3h1.54z" fill="#e24f15"/><path d="M1031.15 2728l-14.27 4.64v-9.28z" stroke="#e24f15" stroke-width="3" fill="#e24f15"/><path d="M904 2672h120v46.46H904z" stroke="#000" stroke-opacity="0" stroke-width="6" fill="#fff" fill-opacity="0"/><g><use xlink:href="#ao" transform="matrix(1,0,0,1,924,2672) translate(1.1419753086419888 17.777777777777775)"/><use xlink:href="#ap" transform="matrix(1,0,0,1,924,2672) translate(72.68518518518518 17.777777777777775)"/><use xlink:href="#aq" transform="matrix(1,0,0,1,924,2672) translate(16.604938271604944 44.44444444444444)"/></g><path d="M1239.5 3450.12h157.38V3312H656v-508.96h328v-44.1h31.38" stroke="#2b9644" stroke-width="3" fill="none"/><path d="M1239.54 3451.62H1238v-3h1.54z" fill="#2b9644"/><path d="M1031.15 2758.94l-14.27 4.63v-9.27z" stroke="#2b9644" stroke-width="3" fill="#2b9644"/><path d="M1239.5 3382.78h136.02V3328H640v-540.96h328v-43.13h47.38" stroke="#0c7cba" stroke-width="3" fill="none"/><path d="M1239.54 3384.28H1238v-3h1.54z" fill="#0c7cba"/><path d="M1031.15 2743.9l-14.27 4.65v-9.27z" stroke="#0c7cba" stroke-width="3" fill="#0c7cba"/><path d="M1237.5 2728h98.5v117.73h123.38" stroke="#c92d39" stroke-width="3" fill="none"/><path d="M1237.54 2729.5H1236v-3h1.54z" fill="#c92d39"/><path d="M1475.15 2845.73l-14.27 4.63v-9.27z" stroke="#c92d39" stroke-width="3" fill="#c92d39"/><path d="M1480 3300.73h200v80h-200z" fill="#724a11"/><g><use xlink:href="#ar" transform="matrix(1,0,0,1,1500,3300.7291666666665) translate(33.765432098765444 31.11111111111111)"/><use xlink:href="#f" transform="matrix(1,0,0,1,1500,3300.7291666666665) translate(17.80864197530866 57.77777777777777)"/><use xlink:href="#g" transform="matrix(1,0,0,1,1500,3300.7291666666665) translate(89.29012345679013 57.77777777777777)"/></g><path d="M1681.5 3340.73h55.75v-493.5" stroke="#c92d39" stroke-width="3" fill="none"/><path d="M1681.54 3342.23H1680v-3h1.54z" fill="#c92d39"/><path d="M1737.25 2847.27v-1.54" stroke="#c92d39" stroke-width="3" fill="none"/><path d="M1239.5 3497.18h179.88v-153.92h40" stroke="#724a11" stroke-width="3" fill="none"/><path d="M1239.54 3498.68H1238v-3h1.54z" fill="#724a11"/><path d="M1475.15 3343.26l-14.27 4.64v-9.28z" stroke="#724a11" stroke-width="3" fill="#724a11"/><path d="M1268 3460.73h100v46.46h-100z" stroke="#000" stroke-opacity="0" stroke-width="6" fill="#fff" fill-opacity="0"/><g><use xlink:href="#as" transform="matrix(1,0,0,1,1288,3460.7291666666665) translate(-16.234567901234556 27.944444444444443)"/></g><path d="M1239.5 3450.12h157.78v-138.18h62.1" stroke="#2b9644" stroke-width="3" fill="none"/><path d="M1239.54 3451.62H1238v-3h1.54z" fill="#2b9644"/><path d="M1475.15 3311.94l-14.27 4.64v-9.27z" stroke="#2b9644" stroke-width="3" fill="#2b9644"/><path d="M1237.5 3382.78h138.13v-54.8h83.75M1237.54 3382.78H1236" stroke="#0c7cba" stroke-width="3" fill="none"/><path d="M1475.15 3327.97l-14.27 4.64v-9.26z" stroke="#0c7cba" stroke-width="3" fill="#0c7cba"/><defs><path fill="#fff" d="M175 0L67-191c6 58 2 128 3 191H24v-248h59L193-55c-6-58-2-129-3-193h46V0h-61" id="at"/><path fill="#fff" d="M133-34C117-15 103 5 69 4 32 3 11-16 11-54c-1-60 55-63 116-61 1-26-3-47-28-47-18 1-26 9-28 27l-52-2c7-38 36-58 82-57s74 22 75 68l1 82c-1 14 12 18 25 15v27c-30 8-71 5-69-32zm-48 3c29 0 43-24 42-57-32 0-66-3-65 30 0 17 8 27 23 27" id="au"/><path fill="#fff" d="M115-3C79 11 28 4 28-45v-112H4v-33h27l15-45h31v45h36v33H77v99c-1 23 16 31 38 25v30" id="av"/><path fill="#fff" d="M85 4C-2 5 27-109 22-190h50c7 57-23 150 33 157 60-5 35-97 40-157h50l1 190h-47c-2-12 1-28-3-38-12 25-28 42-61 42" id="aw"/><path fill="#fff" d="M135-150c-39-12-60 13-60 57V0H25l-1-190h47c2 13-1 29 3 40 6-28 27-53 61-41v41" id="ax"/><path fill="#fff" d="M25 0v-261h50V0H25" id="ay"/><g id="a"><use transform="matrix(0.061728395061728385,0,0,0.061728395061728385,0,0)" xlink:href="#at"/><use transform="matrix(0.061728395061728385,0,0,0.061728395061728385,15.987654320987652,0)" xlink:href="#au"/><use transform="matrix(0.061728395061728385,0,0,0.061728395061728385,28.33333333333333,0)" xlink:href="#av"/><use transform="matrix(0.061728395061728385,0,0,0.061728395061728385,35.679012345679006,0)" xlink:href="#aw"/><use transform="matrix(0.061728395061728385,0,0,0.061728395061728385,49.19753086419752,0)" xlink:href="#ax"/><use transform="matrix(0.061728395061728385,0,0,0.061728395061728385,57.83950617283949,0)" xlink:href="#au"/><use transform="matrix(0.061728395061728385,0,0,0.061728395061728385,70.18518518518516,0)" xlink:href="#ay"/></g><path fill="#fff" d="M67-125c0 54 23 88 75 88 28 0 53-7 68-21v-34h-60v-39h108v91C232-14 192 4 140 4 58 4 20-42 15-125 8-236 126-280 215-234c19 10 29 26 37 47l-47 15c-11-23-29-39-63-39-53 1-75 33-75 86" id="az"/><path fill="#fff" d="M137-138c1-29-70-34-71-4 15 46 118 7 119 86 1 83-164 76-172 9l43-7c4 19 20 25 44 25 33 8 57-30 24-41C81-84 22-81 20-136c-2-80 154-74 161-7" id="aA"/><g id="b"><use transform="matrix(0.061728395061728385,0,0,0.061728395061728385,0,0)" xlink:href="#az"/><use transform="matrix(0.061728395061728385,0,0,0.061728395061728385,17.28395061728395,0)" xlink:href="#au"/><use transform="matrix(0.061728395061728385,0,0,0.061728395061728385,29.629629629629626,0)" xlink:href="#aA"/></g><path fill="#fff" d="M135-194c53 0 70 44 70 98 0 56-19 98-73 100-31 1-45-17-59-34 3 33 2 69 2 105H25l-1-265h48c2 10 0 23 3 31 11-24 29-35 60-35zM114-30c33 0 39-31 40-66 0-38-9-64-40-64-56 0-55 130 0 130" id="aB"/><path fill="#fff" d="M110-194c64 0 96 36 96 99 0 64-35 99-97 99-61 0-95-36-95-99 0-62 34-99 96-99zm-1 164c35 0 45-28 45-65 0-40-10-65-43-65-34 0-45 26-45 65 0 36 10 65 43 65" id="aC"/><path fill="#fff" d="M231 0h-52l-39-155L100 0H48L-1-190h46L77-45c9-52 24-97 36-145h53l37 145 32-145h46" id="aD"/><path fill="#fff" d="M185-48c-13 30-37 53-82 52C43 2 14-33 14-96s30-98 90-98c62 0 83 45 84 108H66c0 31 8 55 39 56 18 0 30-7 34-22zm-45-69c5-46-57-63-70-21-2 6-4 13-4 21h74" id="aE"/><g id="c"><use transform="matrix(0.061728395061728385,0,0,0.061728395061728385,0,0)" xlink:href="#aB"/><use transform="matrix(0.061728395061728385,0,0,0.061728395061728385,13.518518518518515,0)" xlink:href="#aC"/><use transform="matrix(0.061728395061728385,0,0,0.061728395061728385,27.03703703703703,0)" xlink:href="#aD"/><use transform="matrix(0.061728395061728385,0,0,0.061728395061728385,44.32098765432098,0)" xlink:href="#aE"/><use transform="matrix(0.061728395061728385,0,0,0.061728395061728385,56.66666666666666,0)" xlink:href="#ax"/></g><path fill="#fff" d="M135-194c87-1 58 113 63 194h-50c-7-57 23-157-34-157-59 0-34 97-39 157H25l-1-190h47c2 12-1 28 3 38 12-26 28-41 61-42" id="aF"/><g id="d"><use transform="matrix(0.061728395061728385,0,0,0.061728395061728385,0,0)" xlink:href="#aB"/><use transform="matrix(0.061728395061728385,0,0,0.061728395061728385,13.518518518518515,0)" xlink:href="#ay"/><use transform="matrix(0.061728395061728385,0,0,0.061728395061728385,19.691358024691354,0)" xlink:href="#au"/><use transform="matrix(0.061728395061728385,0,0,0.061728395061728385,32.03703703703703,0)" xlink:href="#aF"/><use transform="matrix(0.061728395061728385,0,0,0.061728395061728385,45.55555555555554,0)" xlink:href="#av"/></g><path fill="#fff" d="M67-125c0 53 21 87 73 88 37 1 54-22 65-47l45 17C233-25 199 4 140 4 58 4 20-42 15-125 8-235 124-281 211-232c18 10 29 29 36 50l-46 12c-8-25-30-41-62-41-52 0-71 34-72 86" id="aG"/><g id="e"><use transform="matrix(0.061728395061728385,0,0,0.061728395061728385,0,0)" xlink:href="#aG"/><use transform="matrix(0.061728395061728385,0,0,0.061728395061728385,15.987654320987652,0)" xlink:href="#aC"/><use transform="matrix(0.061728395061728385,0,0,0.061728395061728385,29.506172839506167,0)" xlink:href="#au"/><use transform="matrix(0.061728395061728385,0,0,0.061728395061728385,41.85185185185185,0)" xlink:href="#ay"/></g><g id="f"><use transform="matrix(0.061728395061728385,0,0,0.061728395061728385,0,0)" xlink:href="#aB"/><use transform="matrix(0.061728395061728385,0,0,0.061728395061728385,13.518518518518515,0)" xlink:href="#aC"/><use transform="matrix(0.061728395061728385,0,0,0.061728395061728385,27.03703703703703,0)" xlink:href="#aD"/><use transform="matrix(0.061728395061728385,0,0,0.061728395061728385,44.32098765432098,0)" xlink:href="#aE"/><use transform="matrix(0.061728395061728385,0,0,0.061728395061728385,56.66666666666666,0)" xlink:href="#ax"/></g><g id="g"><use transform="matrix(0.061728395061728385,0,0,0.061728395061728385,0,0)" xlink:href="#aB"/><use transform="matrix(0.061728395061728385,0,0,0.061728395061728385,13.518518518518515,0)" xlink:href="#ay"/><use transform="matrix(0.061728395061728385,0,0,0.061728395061728385,19.691358024691354,0)" xlink:href="#au"/><use transform="matrix(0.061728395061728385,0,0,0.061728395061728385,32.03703703703703,0)" xlink:href="#aF"/><use transform="matrix(0.061728395061728385,0,0,0.061728395061728385,45.55555555555554,0)" xlink:href="#av"/></g><path fill="#fff" d="M186 0v-106H76V0H24v-248h52v99h110v-99h50V0h-50" id="aH"/><path fill="#fff" d="M123 10C108 53 80 86 19 72V37c35 8 53-11 59-39L3-190h52l48 148c12-52 28-100 44-148h51" id="aI"/><path fill="#fff" d="M88-194c31-1 46 15 58 34l-1-101h50l1 261h-48c-2-10 0-23-3-31C134-8 116 4 84 4 32 4 16-41 15-95c0-56 19-97 73-99zm17 164c33 0 40-30 41-66 1-37-9-64-41-64s-38 30-39 65c0 43 13 65 39 65" id="aJ"/><g id="h"><use transform="matrix(0.061728395061728385,0,0,0.061728395061728385,0,0)" xlink:href="#aH"/><use transform="matrix(0.061728395061728385,0,0,0.061728395061728385,15.987654320987652,0)" xlink:href="#aI"/><use transform="matrix(0.061728395061728385,0,0,0.061728395061728385,28.33333333333333,0)" xlink:href="#aJ"/><use transform="matrix(0.061728395061728385,0,0,0.061728395061728385,41.85185185185185,0)" xlink:href="#ax"/><use transform="matrix(0.061728395061728385,0,0,0.061728395061728385,50.49382716049382,0)" xlink:href="#aC"/><use transform="matrix(0.061728395061728385,0,0,0.061728395061728385,64.01234567901234,0)" xlink:href="#aB"/><use transform="matrix(0.061728395061728385,0,0,0.061728395061728385,77.53086419753086,0)" xlink:href="#aC"/><use transform="matrix(0.061728395061728385,0,0,0.061728395061728385,91.04938271604938,0)" xlink:href="#aD"/><use transform="matrix(0.061728395061728385,0,0,0.061728395061728385,108.33333333333333,0)" xlink:href="#aE"/><use transform="matrix(0.061728395061728385,0,0,0.061728395061728385,120.67901234567901,0)" xlink:href="#ax"/></g><path fill="#fff" d="M275 0h-61l-44-196L126 0H64L0-248h53L97-49l45-199h58l43 199 44-199h52" id="aK"/><path fill="#fff" d="M25-224v-37h50v37H25zM25 0v-190h50V0H25" id="aL"/><g id="i"><use transform="matrix(0.061728395061728385,0,0,0.061728395061728385,0,0)" xlink:href="#aK"/><use transform="matrix(0.061728395061728385,0,0,0.061728395061728385,20.740740740740737,0)" xlink:href="#aL"/><use transform="matrix(0.061728395061728385,0,0,0.061728395061728385,26.913580246913575,0)" xlink:href="#aF"/><use transform="matrix(0.061728395061728385,0,0,0.061728395061728385,40.43209876543209,0)" xlink:href="#aJ"/></g><g id="j"><use transform="matrix(0.061728395061728385,0,0,0.061728395061728385,0,0)" xlink:href="#aB"/><use transform="matrix(0.061728395061728385,0,0,0.061728395061728385,13.518518518518515,0)" xlink:href="#aC"/><use transform="matrix(0.061728395061728385,0,0,0.061728395061728385,27.03703703703703,0)" xlink:href="#aD"/><use transform="matrix(0.061728395061728385,0,0,0.061728395061728385,44.32098765432098,0)" xlink:href="#aE"/><use transform="matrix(0.061728395061728385,0,0,0.061728395061728385,56.66666666666666,0)" xlink:href="#ax"/></g><g id="k"><use transform="matrix(0.061728395061728385,0,0,0.061728395061728385,0,0)" xlink:href="#aB"/><use transform="matrix(0.061728395061728385,0,0,0.061728395061728385,13.518518518518515,0)" xlink:href="#ay"/><use transform="matrix(0.061728395061728385,0,0,0.061728395061728385,19.691358024691354,0)" xlink:href="#au"/><use transform="matrix(0.061728395061728385,0,0,0.061728395061728385,32.03703703703703,0)" xlink:href="#aF"/><use transform="matrix(0.061728395061728385,0,0,0.061728395061728385,45.55555555555554,0)" xlink:href="#av"/></g><g id="l"><use transform="matrix(0.061728395061728385,0,0,0.061728395061728385,0,0)" xlink:href="#az"/><use transform="matrix(0.061728395061728385,0,0,0.061728395061728385,17.28395061728395,0)" xlink:href="#au"/><use transform="matrix(0.061728395061728385,0,0,0.061728395061728385,29.629629629629626,0)" xlink:href="#aA"/></g><path fill="#fff" d="M220-157c-53 9-28 100-34 157h-49v-107c1-27-5-49-29-50C55-147 81-57 75 0H25l-1-190h47c2 12-1 28 3 38 10-53 101-56 108 0 13-22 24-43 59-42 82 1 51 116 57 194h-49v-107c-1-25-5-48-29-50" id="aM"/><path fill="#fff" d="M4 7l51-268h42L46 7H4" id="aN"/><path fill="#fff" d="M144 0l-44-69L55 0H2l70-98-66-92h53l41 62 40-62h54l-67 91 71 99h-54" id="aO"/><path fill="#fff" d="M190-63c-7 42-38 67-86 67-59 0-84-38-90-98-12-110 154-137 174-36l-49 2c-2-19-15-32-35-32-30 0-35 28-38 64-6 74 65 87 74 30" id="aP"/><g id="m"><use transform="matrix(0.061728395061728385,0,0,0.061728395061728385,0,0)" xlink:href="#aL"/><use transform="matrix(0.061728395061728385,0,0,0.061728395061728385,6.1728395061728385,0)" xlink:href="#aM"/><use transform="matrix(0.061728395061728385,0,0,0.061728395061728385,25.92592592592592,0)" xlink:href="#aB"/><use transform="matrix(0.061728395061728385,0,0,0.061728395061728385,39.444444444444436,0)" xlink:href="#aC"/><use transform="matrix(0.061728395061728385,0,0,0.061728395061728385,52.96296296296295,0)" xlink:href="#ax"/><use transform="matrix(0.061728395061728385,0,0,0.061728395061728385,61.60493827160492,0)" xlink:href="#av"/><use transform="matrix(0.061728395061728385,0,0,0.061728395061728385,68.9506172839506,0)" xlink:href="#aA"/><use transform="matrix(0.061728395061728385,0,0,0.061728395061728385,81.29629629629628,0)" xlink:href="#aN"/><use transform="matrix(0.061728395061728385,0,0,0.061728395061728385,87.46913580246911,0)" xlink:href="#aE"/><use transform="matrix(0.061728395061728385,0,0,0.061728395061728385,99.81481481481478,0)" xlink:href="#aO"/><use transform="matrix(0.061728395061728385,0,0,0.061728395061728385,112.16049382716045,0)" xlink:href="#av"/><use transform="matrix(0.061728395061728385,0,0,0.061728395061728385,119.50617283950614,0)" xlink:href="#ax"/><use transform="matrix(0.061728395061728385,0,0,0.061728395061728385,128.1481481481481,0)" xlink:href="#au"/><use transform="matrix(0.061728395061728385,0,0,0.061728395061728385,140.49382716049377,0)" xlink:href="#aP"/><use transform="matrix(0.061728395061728385,0,0,0.061728395061728385,152.83950617283944,0)" xlink:href="#av"/><use transform="matrix(0.061728395061728385,0,0,0.061728395061728385,160.1851851851851,0)" xlink:href="#aL"/><use transform="matrix(0.061728395061728385,0,0,0.061728395061728385,166.35802469135794,0)" xlink:href="#aC"/><use transform="matrix(0.061728395061728385,0,0,0.061728395061728385,179.87654320987644,0)" xlink:href="#aF"/></g><g id="n"><use transform="matrix(0.061728395061728385,0,0,0.061728395061728385,0,0)" xlink:href="#aG"/><use transform="matrix(0.061728395061728385,0,0,0.061728395061728385,15.987654320987652,0)" xlink:href="#aC"/><use transform="matrix(0.061728395061728385,0,0,0.061728395061728385,29.506172839506167,0)" xlink:href="#au"/><use transform="matrix(0.061728395061728385,0,0,0.061728395061728385,41.85185185185185,0)" xlink:href="#ay"/></g><g id="o"><use transform="matrix(0.061728395061728385,0,0,0.061728395061728385,0,0)" xlink:href="#aL"/><use transform="matrix(0.061728395061728385,0,0,0.061728395061728385,6.1728395061728385,0)" xlink:href="#aM"/><use transform="matrix(0.061728395061728385,0,0,0.061728395061728385,25.92592592592592,0)" xlink:href="#aB"/><use transform="matrix(0.061728395061728385,0,0,0.061728395061728385,39.444444444444436,0)" xlink:href="#aC"/><use transform="matrix(0.061728395061728385,0,0,0.061728395061728385,52.96296296296295,0)" xlink:href="#ax"/><use transform="matrix(0.061728395061728385,0,0,0.061728395061728385,61.60493827160492,0)" xlink:href="#av"/><use transform="matrix(0.061728395061728385,0,0,0.061728395061728385,68.9506172839506,0)" xlink:href="#aA"/><use transform="matrix(0.061728395061728385,0,0,0.061728395061728385,81.29629629629628,0)" xlink:href="#aN"/><use transform="matrix(0.061728395061728385,0,0,0.061728395061728385,87.46913580246911,0)" xlink:href="#aE"/><use transform="matrix(0.061728395061728385,0,0,0.061728395061728385,99.81481481481478,0)" xlink:href="#aO"/><use transform="matrix(0.061728395061728385,0,0,0.061728395061728385,112.16049382716045,0)" xlink:href="#av"/><use transform="matrix(0.061728395061728385,0,0,0.061728395061728385,119.50617283950614,0)" xlink:href="#ax"/><use transform="matrix(0.061728395061728385,0,0,0.061728395061728385,128.1481481481481,0)" xlink:href="#au"/><use transform="matrix(0.061728395061728385,0,0,0.061728395061728385,140.49382716049377,0)" xlink:href="#aP"/><use transform="matrix(0.061728395061728385,0,0,0.061728395061728385,152.83950617283944,0)" xlink:href="#av"/><use transform="matrix(0.061728395061728385,0,0,0.061728395061728385,160.1851851851851,0)" xlink:href="#aL"/><use transform="matrix(0.061728395061728385,0,0,0.061728395061728385,166.35802469135794,0)" xlink:href="#aC"/><use transform="matrix(0.061728395061728385,0,0,0.061728395061728385,179.87654320987644,0)" xlink:href="#aF"/></g><g id="p"><use transform="matrix(0.061728395061728385,0,0,0.061728395061728385,0,0)" xlink:href="#aH"/><use transform="matrix(0.061728395061728385,0,0,0.061728395061728385,15.987654320987652,0)" xlink:href="#aI"/><use transform="matrix(0.061728395061728385,0,0,0.061728395061728385,28.33333333333333,0)" xlink:href="#aJ"/><use transform="matrix(0.061728395061728385,0,0,0.061728395061728385,41.85185185185185,0)" xlink:href="#ax"/><use transform="matrix(0.061728395061728385,0,0,0.061728395061728385,50.49382716049382,0)" xlink:href="#aC"/><use transform="matrix(0.061728395061728385,0,0,0.061728395061728385,64.01234567901234,0)" xlink:href="#aB"/><use transform="matrix(0.061728395061728385,0,0,0.061728395061728385,77.53086419753086,0)" xlink:href="#aC"/><use transform="matrix(0.061728395061728385,0,0,0.061728395061728385,91.04938271604938,0)" xlink:href="#aD"/><use transform="matrix(0.061728395061728385,0,0,0.061728395061728385,108.33333333333333,0)" xlink:href="#aE"/><use transform="matrix(0.061728395061728385,0,0,0.061728395061728385,120.67901234567901,0)" xlink:href="#ax"/></g><g id="q"><use transform="matrix(0.061728395061728385,0,0,0.061728395061728385,0,0)" xlink:href="#ax"/><use transform="matrix(0.061728395061728385,0,0,0.061728395061728385,8.641975308641975,0)" xlink:href="#aE"/><use transform="matrix(0.061728395061728385,0,0,0.061728395061728385,20.98765432098765,0)" xlink:href="#aA"/><use transform="matrix(0.061728395061728385,0,0,0.061728395061728385,33.33333333333333,0)" xlink:href="#aC"/><use transform="matrix(0.061728395061728385,0,0,0.061728395061728385,46.85185185185185,0)" xlink:href="#aw"/><use transform="matrix(0.061728395061728385,0,0,0.061728395061728385,60.37037037037037,0)" xlink:href="#ax"/><use transform="matrix(0.061728395061728385,0,0,0.061728395061728385,69.01234567901234,0)" xlink:href="#aP"/><use transform="matrix(0.061728395061728385,0,0,0.061728395061728385,81.35802469135803,0)" xlink:href="#aE"/></g><g id="r"><use transform="matrix(0.061728395061728385,0,0,0.061728395061728385,0,0)" xlink:href="#ax"/><use transform="matrix(0.061728395061728385,0,0,0.061728395061728385,8.641975308641975,0)" xlink:href="#aE"/><use transform="matrix(0.061728395061728385,0,0,0.061728395061728385,20.98765432098765,0)" xlink:href="#aA"/><use transform="matrix(0.061728395061728385,0,0,0.061728395061728385,33.33333333333333,0)" xlink:href="#aC"/><use transform="matrix(0.061728395061728385,0,0,0.061728395061728385,46.85185185185185,0)" xlink:href="#aw"/><use transform="matrix(0.061728395061728385,0,0,0.061728395061728385,60.37037037037037,0)" xlink:href="#ax"/><use transform="matrix(0.061728395061728385,0,0,0.061728395061728385,69.01234567901234,0)" xlink:href="#aP"/><use transform="matrix(0.061728395061728385,0,0,0.061728395061728385,81.35802469135803,0)" xlink:href="#aE"/></g><path fill="#834187" d="M175 0L67-191c6 58 2 128 3 191H24v-248h59L193-55c-6-58-2-129-3-193h46V0h-61" id="aQ"/><path fill="#834187" d="M133-34C117-15 103 5 69 4 32 3 11-16 11-54c-1-60 55-63 116-61 1-26-3-47-28-47-18 1-26 9-28 27l-52-2c7-38 36-58 82-57s74 22 75 68l1 82c-1 14 12 18 25 15v27c-30 8-71 5-69-32zm-48 3c29 0 43-24 42-57-32 0-66-3-65 30 0 17 8 27 23 27" id="aR"/><path fill="#834187" d="M115-3C79 11 28 4 28-45v-112H4v-33h27l15-45h31v45h36v33H77v99c-1 23 16 31 38 25v30" id="aS"/><path fill="#834187" d="M85 4C-2 5 27-109 22-190h50c7 57-23 150 33 157 60-5 35-97 40-157h50l1 190h-47c-2-12 1-28-3-38-12 25-28 42-61 42" id="aT"/><path fill="#834187" d="M135-150c-39-12-60 13-60 57V0H25l-1-190h47c2 13-1 29 3 40 6-28 27-53 61-41v41" id="aU"/><path fill="#834187" d="M25 0v-261h50V0H25" id="aV"/><g id="s"><use transform="matrix(0.061728395061728385,0,0,0.061728395061728385,0,0)" xlink:href="#aQ"/><use transform="matrix(0.061728395061728385,0,0,0.061728395061728385,15.987654320987652,0)" xlink:href="#aR"/><use transform="matrix(0.061728395061728385,0,0,0.061728395061728385,28.33333333333333,0)" xlink:href="#aS"/><use transform="matrix(0.061728395061728385,0,0,0.061728395061728385,35.679012345679006,0)" xlink:href="#aT"/><use transform="matrix(0.061728395061728385,0,0,0.061728395061728385,49.19753086419752,0)" xlink:href="#aU"/><use transform="matrix(0.061728395061728385,0,0,0.061728395061728385,57.83950617283949,0)" xlink:href="#aR"/><use transform="matrix(0.061728395061728385,0,0,0.061728395061728385,70.18518518518516,0)" xlink:href="#aV"/></g><path fill="#834187" d="M195-6C206 82 75 100 31 46c-4-6-6-13-8-21l49-6c3 16 16 24 34 25 40 0 42-37 40-79-11 22-30 35-61 35-53 0-70-43-70-97 0-56 18-96 73-97 30 0 46 14 59 34l2-30h47zm-90-29c32 0 41-27 41-63 0-35-9-62-40-62-32 0-39 29-40 63 0 36 9 62 39 62" id="aW"/><path fill="#834187" d="M137-138c1-29-70-34-71-4 15 46 118 7 119 86 1 83-164 76-172 9l43-7c4 19 20 25 44 25 33 8 57-30 24-41C81-84 22-81 20-136c-2-80 154-74 161-7" id="aX"/><g id="t"><use transform="matrix(0.061728395061728385,0,0,0.061728395061728385,0,0)" xlink:href="#aW"/><use transform="matrix(0.061728395061728385,0,0,0.061728395061728385,13.518518518518515,0)" xlink:href="#aR"/><use transform="matrix(0.061728395061728385,0,0,0.061728395061728385,25.864197530864192,0)" xlink:href="#aX"/></g><path fill="#333" d="M67-125c0 53 21 87 73 88 37 1 54-22 65-47l45 17C233-25 199 4 140 4 58 4 20-42 15-125 8-235 124-281 211-232c18 10 29 29 36 50l-46 12c-8-25-30-41-62-41-52 0-71 34-72 86" id="aY"/><path fill="#333" d="M110-194c64 0 96 36 96 99 0 64-35 99-97 99-61 0-95-36-95-99 0-62 34-99 96-99zm-1 164c35 0 45-28 45-65 0-40-10-65-43-65-34 0-45 26-45 65 0 36 10 65 43 65" id="aZ"/><path fill="#333" d="M133-34C117-15 103 5 69 4 32 3 11-16 11-54c-1-60 55-63 116-61 1-26-3-47-28-47-18 1-26 9-28 27l-52-2c7-38 36-58 82-57s74 22 75 68l1 82c-1 14 12 18 25 15v27c-30 8-71 5-69-32zm-48 3c29 0 43-24 42-57-32 0-66-3-65 30 0 17 8 27 23 27" id="ba"/><path fill="#333" d="M25 0v-261h50V0H25" id="bb"/><g id="u"><use transform="matrix(0.061728395061728385,0,0,0.061728395061728385,0,0)" xlink:href="#aY"/><use transform="matrix(0.061728395061728385,0,0,0.061728395061728385,15.987654320987652,0)" xlink:href="#aZ"/><use transform="matrix(0.061728395061728385,0,0,0.061728395061728385,29.506172839506167,0)" xlink:href="#ba"/><use transform="matrix(0.061728395061728385,0,0,0.061728395061728385,41.85185185185185,0)" xlink:href="#bb"/></g><path fill="#0c7cba" d="M186 0v-106H76V0H24v-248h52v99h110v-99h50V0h-50" id="bc"/><path fill="#0c7cba" d="M123 10C108 53 80 86 19 72V37c35 8 53-11 59-39L3-190h52l48 148c12-52 28-100 44-148h51" id="bd"/><path fill="#0c7cba" d="M88-194c31-1 46 15 58 34l-1-101h50l1 261h-48c-2-10 0-23-3-31C134-8 116 4 84 4 32 4 16-41 15-95c0-56 19-97 73-99zm17 164c33 0 40-30 41-66 1-37-9-64-41-64s-38 30-39 65c0 43 13 65 39 65" id="be"/><path fill="#0c7cba" d="M135-150c-39-12-60 13-60 57V0H25l-1-190h47c2 13-1 29 3 40 6-28 27-53 61-41v41" id="bf"/><path fill="#0c7cba" d="M110-194c64 0 96 36 96 99 0 64-35 99-97 99-61 0-95-36-95-99 0-62 34-99 96-99zm-1 164c35 0 45-28 45-65 0-40-10-65-43-65-34 0-45 26-45 65 0 36 10 65 43 65" id="bg"/><g id="v"><use transform="matrix(0.061728395061728385,0,0,0.061728395061728385,0,0)" xlink:href="#bc"/><use transform="matrix(0.061728395061728385,0,0,0.061728395061728385,15.987654320987652,0)" xlink:href="#bd"/><use transform="matrix(0.061728395061728385,0,0,0.061728395061728385,28.33333333333333,0)" xlink:href="#be"/><use transform="matrix(0.061728395061728385,0,0,0.061728395061728385,41.85185185185185,0)" xlink:href="#bf"/><use transform="matrix(0.061728395061728385,0,0,0.061728395061728385,50.49382716049382,0)" xlink:href="#bg"/></g><path fill="#ef8d22" d="M169-182c-1-43-94-46-97-3 18 66 151 10 154 114 3 95-165 93-204 36-6-8-10-19-12-30l50-8c3 46 112 56 116 5-17-69-150-10-154-114-4-87 153-88 188-35 5 8 8 18 10 28" id="bh"/><path fill="#ef8d22" d="M110-194c64 0 96 36 96 99 0 64-35 99-97 99-61 0-95-36-95-99 0-62 34-99 96-99zm-1 164c35 0 45-28 45-65 0-40-10-65-43-65-34 0-45 26-45 65 0 36 10 65 43 65" id="bi"/><path fill="#ef8d22" d="M25 0v-261h50V0H25" id="bj"/><path fill="#ef8d22" d="M133-34C117-15 103 5 69 4 32 3 11-16 11-54c-1-60 55-63 116-61 1-26-3-47-28-47-18 1-26 9-28 27l-52-2c7-38 36-58 82-57s74 22 75 68l1 82c-1 14 12 18 25 15v27c-30 8-71 5-69-32zm-48 3c29 0 43-24 42-57-32 0-66-3-65 30 0 17 8 27 23 27" id="bk"/><path fill="#ef8d22" d="M135-150c-39-12-60 13-60 57V0H25l-1-190h47c2 13-1 29 3 40 6-28 27-53 61-41v41" id="bl"/><g id="w"><use transform="matrix(0.061728395061728385,0,0,0.061728395061728385,0,0)" xlink:href="#bh"/><use transform="matrix(0.061728395061728385,0,0,0.061728395061728385,14.814814814814813,0)" xlink:href="#bi"/><use transform="matrix(0.061728395061728385,0,0,0.061728395061728385,28.33333333333333,0)" xlink:href="#bj"/><use transform="matrix(0.061728395061728385,0,0,0.061728395061728385,34.50617283950616,0)" xlink:href="#bk"/><use transform="matrix(0.061728395061728385,0,0,0.061728395061728385,46.85185185185184,0)" xlink:href="#bl"/></g><path fill="#ef8d22" d="M25-224v-37h50v37H25zM25 0v-190h50V0H25" id="bm"/><path fill="#ef8d22" d="M88-194c31-1 46 15 58 34l-1-101h50l1 261h-48c-2-10 0-23-3-31C134-8 116 4 84 4 32 4 16-41 15-95c0-56 19-97 73-99zm17 164c33 0 40-30 41-66 1-37-9-64-41-64s-38 30-39 65c0 43 13 65 39 65" id="bn"/><path fill="#ef8d22" d="M115-3C79 11 28 4 28-45v-112H4v-33h27l15-45h31v45h36v33H77v99c-1 23 16 31 38 25v30" id="bo"/><path fill="#ef8d22" d="M135-194c87-1 58 113 63 194h-50c-7-57 23-157-34-157-59 0-34 97-39 157H25l-1-190h47c2 12-1 28 3 38 12-26 28-41 61-42" id="bp"/><g id="x"><use transform="matrix(0.061728395061728385,0,0,0.061728395061728385,0,0)" xlink:href="#bm"/><use transform="matrix(0.061728395061728385,0,0,0.061728395061728385,6.1728395061728385,0)" xlink:href="#bl"/><use transform="matrix(0.061728395061728385,0,0,0.061728395061728385,14.814814814814813,0)" xlink:href="#bl"/><use transform="matrix(0.061728395061728385,0,0,0.061728395061728385,23.456790123456788,0)" xlink:href="#bk"/><use transform="matrix(0.061728395061728385,0,0,0.061728395061728385,35.80246913580247,0)" xlink:href="#bn"/><use transform="matrix(0.061728395061728385,0,0,0.061728395061728385,49.32098765432099,0)" xlink:href="#bm"/><use transform="matrix(0.061728395061728385,0,0,0.061728395061728385,55.49382716049382,0)" xlink:href="#bk"/><use transform="matrix(0.061728395061728385,0,0,0.061728395061728385,67.83950617283949,0)" xlink:href="#bo"/><use transform="matrix(0.061728395061728385,0,0,0.061728395061728385,75.18518518518518,0)" xlink:href="#bm"/><use transform="matrix(0.061728395061728385,0,0,0.061728395061728385,81.35802469135801,0)" xlink:href="#bi"/><use transform="matrix(0.061728395061728385,0,0,0.061728395061728385,94.87654320987653,0)" xlink:href="#bp"/></g><path fill="#de5f85" d="M275 0h-61l-44-196L126 0H64L0-248h53L97-49l45-199h58l43 199 44-199h52" id="bq"/><path fill="#de5f85" d="M25-224v-37h50v37H25zM25 0v-190h50V0H25" id="br"/><path fill="#de5f85" d="M135-194c87-1 58 113 63 194h-50c-7-57 23-157-34-157-59 0-34 97-39 157H25l-1-190h47c2 12-1 28 3 38 12-26 28-41 61-42" id="bs"/><path fill="#de5f85" d="M88-194c31-1 46 15 58 34l-1-101h50l1 261h-48c-2-10 0-23-3-31C134-8 116 4 84 4 32 4 16-41 15-95c0-56 19-97 73-99zm17 164c33 0 40-30 41-66 1-37-9-64-41-64s-38 30-39 65c0 43 13 65 39 65" id="bt"/><g id="y"><use transform="matrix(0.061728395061728385,0,0,0.061728395061728385,0,0)" xlink:href="#bq"/><use transform="matrix(0.061728395061728385,0,0,0.061728395061728385,20.740740740740737,0)" xlink:href="#br"/><use transform="matrix(0.061728395061728385,0,0,0.061728395061728385,26.913580246913575,0)" xlink:href="#bs"/><use transform="matrix(0.061728395061728385,0,0,0.061728395061728385,40.43209876543209,0)" xlink:href="#bt"/></g><path fill="#c92d39" d="M169-182c-1-43-94-46-97-3 18 66 151 10 154 114 3 95-165 93-204 36-6-8-10-19-12-30l50-8c3 46 112 56 116 5-17-69-150-10-154-114-4-87 153-88 188-35 5 8 8 18 10 28" id="bu"/><path fill="#c92d39" d="M185-48c-13 30-37 53-82 52C43 2 14-33 14-96s30-98 90-98c62 0 83 45 84 108H66c0 31 8 55 39 56 18 0 30-7 34-22zm-45-69c5-46-57-63-70-21-2 6-4 13-4 21h74" id="bv"/><path fill="#c92d39" d="M190-63c-7 42-38 67-86 67-59 0-84-38-90-98-12-110 154-137 174-36l-49 2c-2-19-15-32-35-32-30 0-35 28-38 64-6 74 65 87 74 30" id="bw"/><path fill="#c92d39" d="M110-194c64 0 96 36 96 99 0 64-35 99-97 99-61 0-95-36-95-99 0-62 34-99 96-99zm-1 164c35 0 45-28 45-65 0-40-10-65-43-65-34 0-45 26-45 65 0 36 10 65 43 65" id="bx"/><path fill="#c92d39" d="M135-194c87-1 58 113 63 194h-50c-7-57 23-157-34-157-59 0-34 97-39 157H25l-1-190h47c2 12-1 28 3 38 12-26 28-41 61-42" id="by"/><path fill="#c92d39" d="M88-194c31-1 46 15 58 34l-1-101h50l1 261h-48c-2-10 0-23-3-31C134-8 116 4 84 4 32 4 16-41 15-95c0-56 19-97 73-99zm17 164c33 0 40-30 41-66 1-37-9-64-41-64s-38 30-39 65c0 43 13 65 39 65" id="bz"/><path fill="#c92d39" d="M133-34C117-15 103 5 69 4 32 3 11-16 11-54c-1-60 55-63 116-61 1-26-3-47-28-47-18 1-26 9-28 27l-52-2c7-38 36-58 82-57s74 22 75 68l1 82c-1 14 12 18 25 15v27c-30 8-71 5-69-32zm-48 3c29 0 43-24 42-57-32 0-66-3-65 30 0 17 8 27 23 27" id="bA"/><path fill="#c92d39" d="M135-150c-39-12-60 13-60 57V0H25l-1-190h47c2 13-1 29 3 40 6-28 27-53 61-41v41" id="bB"/><path fill="#c92d39" d="M123 10C108 53 80 86 19 72V37c35 8 53-11 59-39L3-190h52l48 148c12-52 28-100 44-148h51" id="bC"/><g id="z"><use transform="matrix(0.061728395061728385,0,0,0.061728395061728385,0,0)" xlink:href="#bu"/><use transform="matrix(0.061728395061728385,0,0,0.061728395061728385,14.814814814814813,0)" xlink:href="#bv"/><use transform="matrix(0.061728395061728385,0,0,0.061728395061728385,27.16049382716049,0)" xlink:href="#bw"/><use transform="matrix(0.061728395061728385,0,0,0.061728395061728385,39.50617283950616,0)" xlink:href="#bx"/><use transform="matrix(0.061728395061728385,0,0,0.061728395061728385,53.02469135802468,0)" xlink:href="#by"/><use transform="matrix(0.061728395061728385,0,0,0.061728395061728385,66.5432098765432,0)" xlink:href="#bz"/><use transform="matrix(0.061728395061728385,0,0,0.061728395061728385,80.06172839506172,0)" xlink:href="#bA"/><use transform="matrix(0.061728395061728385,0,0,0.061728395061728385,92.40740740740739,0)" xlink:href="#bB"/><use transform="matrix(0.061728395061728385,0,0,0.061728395061728385,101.04938271604937,0)" xlink:href="#bC"/></g><path fill="#c92d39" d="M25 0v-261h50V0H25" id="bD"/><path fill="#c92d39" d="M115-3C79 11 28 4 28-45v-112H4v-33h27l15-45h31v45h36v33H77v99c-1 23 16 31 38 25v30" id="bE"/><path fill="#c92d39" d="M25-224v-37h50v37H25zM25 0v-190h50V0H25" id="bF"/><g id="A"><use transform="matrix(0.061728395061728385,0,0,0.061728395061728385,0,0)" xlink:href="#bv"/><use transform="matrix(0.061728395061728385,0,0,0.061728395061728385,12.345679012345677,0)" xlink:href="#bD"/><use transform="matrix(0.061728395061728385,0,0,0.061728395061728385,18.518518518518515,0)" xlink:href="#bv"/><use transform="matrix(0.061728395061728385,0,0,0.061728395061728385,30.864197530864192,0)" xlink:href="#bw"/><use transform="matrix(0.061728395061728385,0,0,0.061728395061728385,43.20987654320987,0)" xlink:href="#bE"/><use transform="matrix(0.061728395061728385,0,0,0.061728395061728385,50.55555555555555,0)" xlink:href="#bB"/><use transform="matrix(0.061728395061728385,0,0,0.061728395061728385,59.197530864197525,0)" xlink:href="#bF"/><use transform="matrix(0.061728395061728385,0,0,0.061728395061728385,65.37037037037037,0)" xlink:href="#bw"/><use transform="matrix(0.061728395061728385,0,0,0.061728395061728385,77.71604938271605,0)" xlink:href="#bF"/><use transform="matrix(0.061728395061728385,0,0,0.061728395061728385,83.88888888888889,0)" xlink:href="#bE"/><use transform="matrix(0.061728395061728385,0,0,0.061728395061728385,91.23456790123457,0)" xlink:href="#bC"/></g><path fill="#fff" d="M136-208V0H84v-208H4v-40h212v40h-80" id="bG"/><g id="B"><use transform="matrix(0.061728395061728385,0,0,0.061728395061728385,0,0)" xlink:href="#bG"/><use transform="matrix(0.061728395061728385,0,0,0.061728395061728385,12.283950617283947,0)" xlink:href="#ax"/><use transform="matrix(0.061728395061728385,0,0,0.061728395061728385,20.925925925925924,0)" xlink:href="#au"/><use transform="matrix(0.061728395061728385,0,0,0.061728395061728385,33.2716049382716,0)" xlink:href="#aF"/><use transform="matrix(0.061728395061728385,0,0,0.061728395061728385,46.79012345679011,0)" xlink:href="#aA"/><use transform="matrix(0.061728395061728385,0,0,0.061728395061728385,59.13580246913579,0)" xlink:href="#aM"/><use transform="matrix(0.061728395061728385,0,0,0.061728395061728385,78.88888888888887,0)" xlink:href="#aL"/><use transform="matrix(0.061728395061728385,0,0,0.061728395061728385,85.0617283950617,0)" xlink:href="#aA"/><use transform="matrix(0.061728395061728385,0,0,0.061728395061728385,97.40740740740739,0)" xlink:href="#aA"/><use transform="matrix(0.061728395061728385,0,0,0.061728395061728385,109.75308641975306,0)" xlink:href="#aL"/><use transform="matrix(0.061728395061728385,0,0,0.061728395061728385,115.9259259259259,0)" xlink:href="#aC"/><use transform="matrix(0.061728395061728385,0,0,0.061728395061728385,129.4444444444444,0)" xlink:href="#aF"/></g><path fill="#fff" d="M169-182c-1-43-94-46-97-3 18 66 151 10 154 114 3 95-165 93-204 36-6-8-10-19-12-30l50-8c3 46 112 56 116 5-17-69-150-10-154-114-4-87 153-88 188-35 5 8 8 18 10 28" id="bH"/><g id="C"><use transform="matrix(0.061728395061728385,0,0,0.061728395061728385,0,0)" xlink:href="#bH"/><use transform="matrix(0.061728395061728385,0,0,0.061728395061728385,14.814814814814813,0)" xlink:href="#aC"/><use transform="matrix(0.061728395061728385,0,0,0.061728395061728385,28.33333333333333,0)" xlink:href="#ay"/><use transform="matrix(0.061728395061728385,0,0,0.061728395061728385,34.50617283950616,0)" xlink:href="#au"/><use transform="matrix(0.061728395061728385,0,0,0.061728395061728385,46.85185185185184,0)" xlink:href="#ax"/></g><path fill="#fff" d="M24-248c93 1 206-16 204 79-1 75-69 88-152 82V0H24v-248zm52 121c47 0 100 7 100-41 0-47-54-39-100-39v80" id="bI"/><path fill="#fff" d="M147 0H94L2-248h55l64 206c17-72 42-137 63-206h54" id="bJ"/><g id="D"><use transform="matrix(0.061728395061728385,0,0,0.061728395061728385,0,0)" xlink:href="#bI"/><use transform="matrix(0.061728395061728385,0,0,0.061728395061728385,14.814814814814813,0)" xlink:href="#bJ"/></g><g id="E"><use transform="matrix(0.061728395061728385,0,0,0.061728395061728385,0,0)" xlink:href="#aB"/><use transform="matrix(0.061728395061728385,0,0,0.061728395061728385,13.518518518518515,0)" xlink:href="#aC"/><use transform="matrix(0.061728395061728385,0,0,0.061728395061728385,27.03703703703703,0)" xlink:href="#aD"/><use transform="matrix(0.061728395061728385,0,0,0.061728395061728385,44.32098765432098,0)" xlink:href="#aE"/><use transform="matrix(0.061728395061728385,0,0,0.061728395061728385,56.66666666666666,0)" xlink:href="#ax"/></g><path fill="#c92d39" d="M24-248c93 1 206-16 204 79-1 75-69 88-152 82V0H24v-248zm52 121c47 0 100 7 100-41 0-47-54-39-100-39v80" id="bK"/><path fill="#c92d39" d="M220-157c-53 9-28 100-34 157h-49v-107c1-27-5-49-29-50C55-147 81-57 75 0H25l-1-190h47c2 12-1 28 3 38 10-53 101-56 108 0 13-22 24-43 59-42 82 1 51 116 57 194h-49v-107c-1-25-5-48-29-50" id="bL"/><g id="F"><use transform="matrix(0.061728395061728385,0,0,0.061728395061728385,0,0)" xlink:href="#bK"/><use transform="matrix(0.061728395061728385,0,0,0.061728395061728385,14.814814814814813,0)" xlink:href="#bB"/><use transform="matrix(0.061728395061728385,0,0,0.061728395061728385,23.456790123456788,0)" xlink:href="#bF"/><use transform="matrix(0.061728395061728385,0,0,0.061728395061728385,29.629629629629626,0)" xlink:href="#bL"/><use transform="matrix(0.061728395061728385,0,0,0.061728395061728385,49.38271604938271,0)" xlink:href="#bA"/><use transform="matrix(0.061728395061728385,0,0,0.061728395061728385,61.728395061728385,0)" xlink:href="#bB"/><use transform="matrix(0.061728395061728385,0,0,0.061728395061728385,70.37037037037035,0)" xlink:href="#bC"/></g><path fill="#fff" d="M24 0v-248h52v208h133V0H24" id="bM"/><g id="G"><use transform="matrix(0.061728395061728385,0,0,0.061728395061728385,0,0)" xlink:href="#bM"/><use transform="matrix(0.061728395061728385,0,0,0.061728395061728385,13.518518518518515,0)" xlink:href="#au"/><use transform="matrix(0.061728395061728385,0,0,0.061728395061728385,25.864197530864192,0)" xlink:href="#aF"/><use transform="matrix(0.061728395061728385,0,0,0.061728395061728385,39.38271604938271,0)" xlink:href="#aJ"/></g><g id="H"><use transform="matrix(0.061728395061728385,0,0,0.061728395061728385,0,0)" xlink:href="#aP"/><use transform="matrix(0.061728395061728385,0,0,0.061728395061728385,12.345679012345677,0)" xlink:href="#ay"/><use transform="matrix(0.061728395061728385,0,0,0.061728395061728385,18.518518518518515,0)" xlink:href="#aw"/><use transform="matrix(0.061728395061728385,0,0,0.061728395061728385,32.03703703703703,0)" xlink:href="#aA"/><use transform="matrix(0.061728395061728385,0,0,0.061728395061728385,44.38271604938271,0)" xlink:href="#av"/><use transform="matrix(0.061728395061728385,0,0,0.061728395061728385,51.728395061728385,0)" xlink:href="#aE"/><use transform="matrix(0.061728395061728385,0,0,0.061728395061728385,64.07407407407406,0)" xlink:href="#ax"/><use transform="matrix(0.061728395061728385,0,0,0.061728395061728385,72.71604938271604,0)" xlink:href="#aA"/></g><path fill="#fff" d="M23 0v-37h61v-169l-59 37v-38l62-41h46v211h57V0H23" id="bN"/><use transform="matrix(0.061728395061728385,0,0,0.061728395061728385,0,0)" xlink:href="#bN" id="I"/><path fill="#fff" d="M14-72v-43h91v43H14" id="bO"/><use transform="matrix(0.061728395061728385,0,0,0.061728395061728385,0,0)" xlink:href="#bO" id="J"/><path fill="#fff" d="M146-102V0H94v-102L6-248h54l60 105 60-105h54" id="bP"/><use transform="matrix(0.061728395061728385,0,0,0.061728395061728385,0,0)" xlink:href="#bP" id="K"/><g id="L"><use transform="matrix(0.061728395061728385,0,0,0.061728395061728385,0,0)" xlink:href="#aG"/><use transform="matrix(0.061728395061728385,0,0,0.061728395061728385,15.987654320987652,0)" xlink:href="#aC"/><use transform="matrix(0.061728395061728385,0,0,0.061728395061728385,29.506172839506167,0)" xlink:href="#aM"/><use transform="matrix(0.061728395061728385,0,0,0.061728395061728385,49.25925925925925,0)" xlink:href="#aM"/><use transform="matrix(0.061728395061728385,0,0,0.061728395061728385,69.01234567901233,0)" xlink:href="#aE"/><use transform="matrix(0.061728395061728385,0,0,0.061728395061728385,81.358024691358,0)" xlink:href="#ax"/><use transform="matrix(0.061728395061728385,0,0,0.061728395061728385,89.99999999999997,0)" xlink:href="#aP"/><use transform="matrix(0.061728395061728385,0,0,0.061728395061728385,102.34567901234564,0)" xlink:href="#aL"/><use transform="matrix(0.061728395061728385,0,0,0.061728395061728385,108.51851851851848,0)" xlink:href="#au"/><use transform="matrix(0.061728395061728385,0,0,0.061728395061728385,120.86419753086415,0)" xlink:href="#ay"/></g><path fill="#fff" d="M135-194c52 0 70 43 70 98 0 56-19 99-73 100-30 1-46-15-58-35L72 0H24l1-261h50v104c11-23 29-37 60-37zM114-30c31 0 40-27 40-66 0-37-7-63-39-63s-41 28-41 65c0 36 8 64 40 64" id="bQ"/><g id="M"><use transform="matrix(0.061728395061728385,0,0,0.061728395061728385,0,0)" xlink:href="#aJ"/><use transform="matrix(0.061728395061728385,0,0,0.061728395061728385,13.518518518518515,0)" xlink:href="#aL"/><use transform="matrix(0.061728395061728385,0,0,0.061728395061728385,19.691358024691354,0)" xlink:href="#aA"/><use transform="matrix(0.061728395061728385,0,0,0.061728395061728385,32.03703703703703,0)" xlink:href="#av"/><use transform="matrix(0.061728395061728385,0,0,0.061728395061728385,39.38271604938271,0)" xlink:href="#ax"/><use transform="matrix(0.061728395061728385,0,0,0.061728395061728385,48.02469135802468,0)" xlink:href="#aL"/><use transform="matrix(0.061728395061728385,0,0,0.061728395061728385,54.19753086419752,0)" xlink:href="#bQ"/><use transform="matrix(0.061728395061728385,0,0,0.061728395061728385,67.71604938271604,0)" xlink:href="#aw"/><use transform="matrix(0.061728395061728385,0,0,0.061728395061728385,81.23456790123456,0)" xlink:href="#av"/><use transform="matrix(0.061728395061728385,0,0,0.061728395061728385,88.58024691358024,0)" xlink:href="#aL"/><use transform="matrix(0.061728395061728385,0,0,0.061728395061728385,94.75308641975307,0)" xlink:href="#aC"/><use transform="matrix(0.061728395061728385,0,0,0.061728395061728385,108.2716049382716,0)" xlink:href="#aF"/></g><path fill="#fff" d="M24 0v-248h52V0H24" id="bR"/><g id="N"><use transform="matrix(0.061728395061728385,0,0,0.061728395061728385,0,0)" xlink:href="#bR"/><use transform="matrix(0.061728395061728385,0,0,0.061728395061728385,6.1728395061728385,0)" xlink:href="#aF"/><use transform="matrix(0.061728395061728385,0,0,0.061728395061728385,19.691358024691354,0)" xlink:href="#aJ"/><use transform="matrix(0.061728395061728385,0,0,0.061728395061728385,33.20987654320987,0)" xlink:href="#aw"/><use transform="matrix(0.061728395061728385,0,0,0.061728395061728385,46.72839506172839,0)" xlink:href="#aA"/><use transform="matrix(0.061728395061728385,0,0,0.061728395061728385,59.07407407407407,0)" xlink:href="#av"/><use transform="matrix(0.061728395061728385,0,0,0.061728395061728385,66.41975308641975,0)" xlink:href="#ax"/><use transform="matrix(0.061728395061728385,0,0,0.061728395061728385,75.06172839506172,0)" xlink:href="#aI"/></g><path fill="#fff" d="M240-174c0 40-23 61-54 70L253 0h-59l-57-94H76V0H24v-248c93 4 217-23 216 74zM76-134c48-2 112 12 112-38 0-48-66-32-112-35v73" id="bS"/><g id="O"><use transform="matrix(0.061728395061728385,0,0,0.061728395061728385,0,0)" xlink:href="#bS"/><use transform="matrix(0.061728395061728385,0,0,0.061728395061728385,15.987654320987652,0)" xlink:href="#aE"/><use transform="matrix(0.061728395061728385,0,0,0.061728395061728385,28.33333333333333,0)" xlink:href="#aA"/><use transform="matrix(0.061728395061728385,0,0,0.061728395061728385,40.679012345679006,0)" xlink:href="#aL"/><use transform="matrix(0.061728395061728385,0,0,0.061728395061728385,46.85185185185185,0)" xlink:href="#aJ"/><use transform="matrix(0.061728395061728385,0,0,0.061728395061728385,60.37037037037037,0)" xlink:href="#aE"/><use transform="matrix(0.061728395061728385,0,0,0.061728395061728385,72.71604938271605,0)" xlink:href="#aF"/><use transform="matrix(0.061728395061728385,0,0,0.061728395061728385,86.23456790123457,0)" xlink:href="#av"/><use transform="matrix(0.061728395061728385,0,0,0.061728395061728385,93.58024691358025,0)" xlink:href="#aL"/><use transform="matrix(0.061728395061728385,0,0,0.061728395061728385,99.75308641975309,0)" xlink:href="#au"/><use transform="matrix(0.061728395061728385,0,0,0.061728395061728385,112.09876543209876,0)" xlink:href="#ay"/></g><g id="P"><use transform="matrix(0.061728395061728385,0,0,0.061728395061728385,0,0)" xlink:href="#bG"/><use transform="matrix(0.061728395061728385,0,0,0.061728395061728385,12.283950617283947,0)" xlink:href="#ax"/><use transform="matrix(0.061728395061728385,0,0,0.061728395061728385,20.925925925925924,0)" xlink:href="#au"/><use transform="matrix(0.061728395061728385,0,0,0.061728395061728385,33.2716049382716,0)" xlink:href="#aF"/><use transform="matrix(0.061728395061728385,0,0,0.061728395061728385,46.79012345679011,0)" xlink:href="#aA"/><use transform="matrix(0.061728395061728385,0,0,0.061728395061728385,59.13580246913579,0)" xlink:href="#aB"/><use transform="matrix(0.061728395061728385,0,0,0.061728395061728385,72.6543209876543,0)" xlink:href="#aC"/><use transform="matrix(0.061728395061728385,0,0,0.061728395061728385,86.17283950617282,0)" xlink:href="#ax"/><use transform="matrix(0.061728395061728385,0,0,0.061728395061728385,94.8148148148148,0)" xlink:href="#av"/></g><path fill="#fff" d="M199 0l-22-63H83L61 0H9l90-248h61L250 0h-51zm-33-102l-36-108c-10 38-24 72-36 108h72" id="bT"/><path fill="#fff" d="M195-6C206 82 75 100 31 46c-4-6-6-13-8-21l49-6c3 16 16 24 34 25 40 0 42-37 40-79-11 22-30 35-61 35-53 0-70-43-70-97 0-56 18-96 73-97 30 0 46 14 59 34l2-30h47zm-90-29c32 0 41-27 41-63 0-35-9-62-40-62-32 0-39 29-40 63 0 36 9 62 39 62" id="bU"/><g id="Q"><use transform="matrix(0.061728395061728385,0,0,0.061728395061728385,0,0)" xlink:href="#bT"/><use transform="matrix(0.061728395061728385,0,0,0.061728395061728385,15.987654320987652,0)" xlink:href="#bU"/><use transform="matrix(0.061728395061728385,0,0,0.061728395061728385,29.506172839506167,0)" xlink:href="#ax"/><use transform="matrix(0.061728395061728385,0,0,0.061728395061728385,38.14814814814814,0)" xlink:href="#aL"/><use transform="matrix(0.061728395061728385,0,0,0.061728395061728385,44.32098765432097,0)" xlink:href="#aP"/><use transform="matrix(0.061728395061728385,0,0,0.061728395061728385,56.66666666666665,0)" xlink:href="#aw"/><use transform="matrix(0.061728395061728385,0,0,0.061728395061728385,70.18518518518516,0)" xlink:href="#ay"/><use transform="matrix(0.061728395061728385,0,0,0.061728395061728385,76.358024691358,0)" xlink:href="#av"/><use transform="matrix(0.061728395061728385,0,0,0.061728395061728385,83.70370370370368,0)" xlink:href="#aw"/><use transform="matrix(0.061728395061728385,0,0,0.061728395061728385,97.2222222222222,0)" xlink:href="#ax"/><use transform="matrix(0.061728395061728385,0,0,0.061728395061728385,105.86419753086417,0)" xlink:href="#aE"/></g><path fill="#c92d39" d="M67-125c0 53 21 87 73 88 37 1 54-22 65-47l45 17C233-25 199 4 140 4 58 4 20-42 15-125 8-235 124-281 211-232c18 10 29 29 36 50l-46 12c-8-25-30-41-62-41-52 0-71 34-72 86" id="bV"/><g id="R"><use transform="matrix(0.061728395061728385,0,0,0.061728395061728385,0,0)" xlink:href="#bV"/><use transform="matrix(0.061728395061728385,0,0,0.061728395061728385,15.987654320987652,0)" xlink:href="#bx"/><use transform="matrix(0.061728395061728385,0,0,0.061728395061728385,29.506172839506167,0)" xlink:href="#bL"/><use transform="matrix(0.061728395061728385,0,0,0.061728395061728385,49.25925925925925,0)" xlink:href="#bL"/><use transform="matrix(0.061728395061728385,0,0,0.061728395061728385,69.01234567901233,0)" xlink:href="#bv"/><use transform="matrix(0.061728395061728385,0,0,0.061728395061728385,81.358024691358,0)" xlink:href="#bB"/><use transform="matrix(0.061728395061728385,0,0,0.061728395061728385,89.99999999999997,0)" xlink:href="#bw"/><use transform="matrix(0.061728395061728385,0,0,0.061728395061728385,102.34567901234564,0)" xlink:href="#bF"/><use transform="matrix(0.061728395061728385,0,0,0.061728395061728385,108.51851851851848,0)" xlink:href="#bA"/><use transform="matrix(0.061728395061728385,0,0,0.061728395061728385,120.86419753086415,0)" xlink:href="#bD"/></g><g id="S"><use transform="matrix(0.061728395061728385,0,0,0.061728395061728385,0,0)" xlink:href="#bv"/><use transform="matrix(0.061728395061728385,0,0,0.061728395061728385,12.345679012345677,0)" xlink:href="#bD"/><use transform="matrix(0.061728395061728385,0,0,0.061728395061728385,18.518518518518515,0)" xlink:href="#bv"/><use transform="matrix(0.061728395061728385,0,0,0.061728395061728385,30.864197530864192,0)" xlink:href="#bw"/><use transform="matrix(0.061728395061728385,0,0,0.061728395061728385,43.20987654320987,0)" xlink:href="#bE"/><use transform="matrix(0.061728395061728385,0,0,0.061728395061728385,50.55555555555555,0)" xlink:href="#bB"/><use transform="matrix(0.061728395061728385,0,0,0.061728395061728385,59.197530864197525,0)" xlink:href="#bF"/><use transform="matrix(0.061728395061728385,0,0,0.061728395061728385,65.37037037037037,0)" xlink:href="#bw"/><use transform="matrix(0.061728395061728385,0,0,0.061728395061728385,77.71604938271605,0)" xlink:href="#bF"/><use transform="matrix(0.061728395061728385,0,0,0.061728395061728385,83.88888888888889,0)" xlink:href="#bE"/><use transform="matrix(0.061728395061728385,0,0,0.061728395061728385,91.23456790123457,0)" xlink:href="#bC"/></g><g id="T"><use transform="matrix(0.061728395061728385,0,0,0.061728395061728385,0,0)" xlink:href="#bz"/><use transform="matrix(0.061728395061728385,0,0,0.061728395061728385,13.518518518518515,0)" xlink:href="#bv"/><use transform="matrix(0.061728395061728385,0,0,0.061728395061728385,25.864197530864192,0)" xlink:href="#bL"/><use transform="matrix(0.061728395061728385,0,0,0.061728395061728385,45.61728395061728,0)" xlink:href="#bA"/><use transform="matrix(0.061728395061728385,0,0,0.061728395061728385,57.962962962962955,0)" xlink:href="#by"/><use transform="matrix(0.061728395061728385,0,0,0.061728395061728385,71.48148148148147,0)" xlink:href="#bz"/></g><path fill="#c92d39" d="M24 0v-248h52V0H24" id="bW"/><path fill="#c92d39" d="M85 4C-2 5 27-109 22-190h50c7 57-23 150 33 157 60-5 35-97 40-157h50l1 190h-47c-2-12 1-28-3-38-12 25-28 42-61 42" id="bX"/><path fill="#c92d39" d="M137-138c1-29-70-34-71-4 15 46 118 7 119 86 1 83-164 76-172 9l43-7c4 19 20 25 44 25 33 8 57-30 24-41C81-84 22-81 20-136c-2-80 154-74 161-7" id="bY"/><g id="U"><use transform="matrix(0.061728395061728385,0,0,0.061728395061728385,0,0)" xlink:href="#bW"/><use transform="matrix(0.061728395061728385,0,0,0.061728395061728385,6.1728395061728385,0)" xlink:href="#by"/><use transform="matrix(0.061728395061728385,0,0,0.061728395061728385,19.691358024691354,0)" xlink:href="#bz"/><use transform="matrix(0.061728395061728385,0,0,0.061728395061728385,33.20987654320987,0)" xlink:href="#bX"/><use transform="matrix(0.061728395061728385,0,0,0.061728395061728385,46.72839506172839,0)" xlink:href="#bY"/><use transform="matrix(0.061728395061728385,0,0,0.061728395061728385,59.07407407407407,0)" xlink:href="#bE"/><use transform="matrix(0.061728395061728385,0,0,0.061728395061728385,66.41975308641975,0)" xlink:href="#bB"/><use transform="matrix(0.061728395061728385,0,0,0.061728395061728385,75.06172839506172,0)" xlink:href="#bC"/></g><path fill="#c92d39" d="M240-174c0 40-23 61-54 70L253 0h-59l-57-94H76V0H24v-248c93 4 217-23 216 74zM76-134c48-2 112 12 112-38 0-48-66-32-112-35v73" id="bZ"/><g id="V"><use transform="matrix(0.061728395061728385,0,0,0.061728395061728385,0,0)" xlink:href="#bZ"/><use transform="matrix(0.061728395061728385,0,0,0.061728395061728385,15.987654320987652,0)" xlink:href="#bv"/><use transform="matrix(0.061728395061728385,0,0,0.061728395061728385,28.33333333333333,0)" xlink:href="#bY"/><use transform="matrix(0.061728395061728385,0,0,0.061728395061728385,40.679012345679006,0)" xlink:href="#bF"/><use transform="matrix(0.061728395061728385,0,0,0.061728395061728385,46.85185185185185,0)" xlink:href="#bz"/><use transform="matrix(0.061728395061728385,0,0,0.061728395061728385,60.37037037037037,0)" xlink:href="#bv"/><use transform="matrix(0.061728395061728385,0,0,0.061728395061728385,72.71604938271605,0)" xlink:href="#by"/><use transform="matrix(0.061728395061728385,0,0,0.061728395061728385,86.23456790123457,0)" xlink:href="#bE"/><use transform="matrix(0.061728395061728385,0,0,0.061728395061728385,93.58024691358025,0)" xlink:href="#bF"/><use transform="matrix(0.061728395061728385,0,0,0.061728395061728385,99.75308641975309,0)" xlink:href="#bA"/><use transform="matrix(0.061728395061728385,0,0,0.061728395061728385,112.09876543209876,0)" xlink:href="#bD"/></g><path fill="#c92d39" d="M136-208V0H84v-208H4v-40h212v40h-80" id="ca"/><path fill="#c92d39" d="M135-194c53 0 70 44 70 98 0 56-19 98-73 100-31 1-45-17-59-34 3 33 2 69 2 105H25l-1-265h48c2 10 0 23 3 31 11-24 29-35 60-35zM114-30c33 0 39-31 40-66 0-38-9-64-40-64-56 0-55 130 0 130" id="cb"/><g id="W"><use transform="matrix(0.061728395061728385,0,0,0.061728395061728385,0,0)" xlink:href="#ca"/><use transform="matrix(0.061728395061728385,0,0,0.061728395061728385,12.283950617283947,0)" xlink:href="#bB"/><use transform="matrix(0.061728395061728385,0,0,0.061728395061728385,20.925925925925924,0)" xlink:href="#bA"/><use transform="matrix(0.061728395061728385,0,0,0.061728395061728385,33.2716049382716,0)" xlink:href="#by"/><use transform="matrix(0.061728395061728385,0,0,0.061728395061728385,46.79012345679011,0)" xlink:href="#bY"/><use transform="matrix(0.061728395061728385,0,0,0.061728395061728385,59.13580246913579,0)" xlink:href="#cb"/><use transform="matrix(0.061728395061728385,0,0,0.061728395061728385,72.6543209876543,0)" xlink:href="#bx"/><use transform="matrix(0.061728395061728385,0,0,0.061728395061728385,86.17283950617282,0)" xlink:href="#bB"/><use transform="matrix(0.061728395061728385,0,0,0.061728395061728385,94.8148148148148,0)" xlink:href="#bE"/></g><path fill="#c92d39" d="M199 0l-22-63H83L61 0H9l90-248h61L250 0h-51zm-33-102l-36-108c-10 38-24 72-36 108h72" id="cc"/><path fill="#c92d39" d="M195-6C206 82 75 100 31 46c-4-6-6-13-8-21l49-6c3 16 16 24 34 25 40 0 42-37 40-79-11 22-30 35-61 35-53 0-70-43-70-97 0-56 18-96 73-97 30 0 46 14 59 34l2-30h47zm-90-29c32 0 41-27 41-63 0-35-9-62-40-62-32 0-39 29-40 63 0 36 9 62 39 62" id="cd"/><g id="X"><use transform="matrix(0.061728395061728385,0,0,0.061728395061728385,0,0)" xlink:href="#cc"/><use transform="matrix(0.061728395061728385,0,0,0.061728395061728385,15.987654320987652,0)" xlink:href="#cd"/><use transform="matrix(0.061728395061728385,0,0,0.061728395061728385,29.506172839506167,0)" xlink:href="#bB"/><use transform="matrix(0.061728395061728385,0,0,0.061728395061728385,38.14814814814814,0)" xlink:href="#bF"/><use transform="matrix(0.061728395061728385,0,0,0.061728395061728385,44.32098765432097,0)" xlink:href="#bw"/><use transform="matrix(0.061728395061728385,0,0,0.061728395061728385,56.66666666666665,0)" xlink:href="#bX"/><use transform="matrix(0.061728395061728385,0,0,0.061728395061728385,70.18518518518516,0)" xlink:href="#bD"/><use transform="matrix(0.061728395061728385,0,0,0.061728395061728385,76.358024691358,0)" xlink:href="#bE"/><use transform="matrix(0.061728395061728385,0,0,0.061728395061728385,83.70370370370368,0)" xlink:href="#bX"/><use transform="matrix(0.061728395061728385,0,0,0.061728395061728385,97.2222222222222,0)" xlink:href="#bB"/><use transform="matrix(0.061728395061728385,0,0,0.061728395061728385,105.86419753086417,0)" xlink:href="#bv"/></g><path fill="#0c7cba" d="M24-248c93 1 206-16 204 79-1 75-69 88-152 82V0H24v-248zm52 121c47 0 100 7 100-41 0-47-54-39-100-39v80" id="ce"/><path fill="#0c7cba" d="M185-48c-13 30-37 53-82 52C43 2 14-33 14-96s30-98 90-98c62 0 83 45 84 108H66c0 31 8 55 39 56 18 0 30-7 34-22zm-45-69c5-46-57-63-70-21-2 6-4 13-4 21h74" id="cf"/><path fill="#0c7cba" d="M190-63c-7 42-38 67-86 67-59 0-84-38-90-98-12-110 154-137 174-36l-49 2c-2-19-15-32-35-32-30 0-35 28-38 64-6 74 65 87 74 30" id="cg"/><path fill="#0c7cba" d="M25-224v-37h50v37H25zM25 0v-190h50V0H25" id="ch"/><path fill="#0c7cba" d="M135-194c53 0 70 44 70 98 0 56-19 98-73 100-31 1-45-17-59-34 3 33 2 69 2 105H25l-1-265h48c2 10 0 23 3 31 11-24 29-35 60-35zM114-30c33 0 39-31 40-66 0-38-9-64-40-64-56 0-55 130 0 130" id="ci"/><path fill="#0c7cba" d="M115-3C79 11 28 4 28-45v-112H4v-33h27l15-45h31v45h36v33H77v99c-1 23 16 31 38 25v30" id="cj"/><path fill="#0c7cba" d="M133-34C117-15 103 5 69 4 32 3 11-16 11-54c-1-60 55-63 116-61 1-26-3-47-28-47-18 1-26 9-28 27l-52-2c7-38 36-58 82-57s74 22 75 68l1 82c-1 14 12 18 25 15v27c-30 8-71 5-69-32zm-48 3c29 0 43-24 42-57-32 0-66-3-65 30 0 17 8 27 23 27" id="ck"/><path fill="#0c7cba" d="M135-194c87-1 58 113 63 194h-50c-7-57 23-157-34-157-59 0-34 97-39 157H25l-1-190h47c2 12-1 28 3 38 12-26 28-41 61-42" id="cl"/><g id="Y"><use transform="matrix(0.061728395061728385,0,0,0.061728395061728385,0,0)" xlink:href="#ce"/><use transform="matrix(0.061728395061728385,0,0,0.061728395061728385,14.814814814814813,0)" xlink:href="#bf"/><use transform="matrix(0.061728395061728385,0,0,0.061728395061728385,23.456790123456788,0)" xlink:href="#cf"/><use transform="matrix(0.061728395061728385,0,0,0.061728395061728385,35.80246913580247,0)" xlink:href="#cg"/><use transform="matrix(0.061728395061728385,0,0,0.061728395061728385,48.148148148148145,0)" xlink:href="#ch"/><use transform="matrix(0.061728395061728385,0,0,0.061728395061728385,54.32098765432099,0)" xlink:href="#ci"/><use transform="matrix(0.061728395061728385,0,0,0.061728395061728385,67.8395061728395,0)" xlink:href="#ch"/><use transform="matrix(0.061728395061728385,0,0,0.061728395061728385,74.01234567901234,0)" xlink:href="#cj"/><use transform="matrix(0.061728395061728385,0,0,0.061728395061728385,81.35802469135803,0)" xlink:href="#ck"/><use transform="matrix(0.061728395061728385,0,0,0.061728395061728385,93.7037037037037,0)" xlink:href="#cj"/><use transform="matrix(0.061728395061728385,0,0,0.061728395061728385,101.04938271604938,0)" xlink:href="#ch"/><use transform="matrix(0.061728395061728385,0,0,0.061728395061728385,107.22222222222221,0)" xlink:href="#bg"/><use transform="matrix(0.061728395061728385,0,0,0.061728395061728385,120.74074074074073,0)" xlink:href="#cl"/></g><path fill="#0c7cba" d="M24 0v-248h52V0H24" id="cm"/><path fill="#0c7cba" d="M195-6C206 82 75 100 31 46c-4-6-6-13-8-21l49-6c3 16 16 24 34 25 40 0 42-37 40-79-11 22-30 35-61 35-53 0-70-43-70-97 0-56 18-96 73-97 30 0 46 14 59 34l2-30h47zm-90-29c32 0 41-27 41-63 0-35-9-62-40-62-32 0-39 29-40 63 0 36 9 62 39 62" id="cn"/><g id="Z"><use transform="matrix(0.061728395061728385,0,0,0.061728395061728385,0,0)" xlink:href="#cm"/><use transform="matrix(0.061728395061728385,0,0,0.061728395061728385,6.1728395061728385,0)" xlink:href="#bf"/><use transform="matrix(0.061728395061728385,0,0,0.061728395061728385,14.814814814814813,0)" xlink:href="#bf"/><use transform="matrix(0.061728395061728385,0,0,0.061728395061728385,23.456790123456788,0)" xlink:href="#ch"/><use transform="matrix(0.061728395061728385,0,0,0.061728395061728385,29.629629629629626,0)" xlink:href="#cn"/><use transform="matrix(0.061728395061728385,0,0,0.061728395061728385,43.14814814814814,0)" xlink:href="#ck"/><use transform="matrix(0.061728395061728385,0,0,0.061728395061728385,55.493827160493815,0)" xlink:href="#cj"/><use transform="matrix(0.061728395061728385,0,0,0.061728395061728385,62.83950617283949,0)" xlink:href="#ch"/><use transform="matrix(0.061728395061728385,0,0,0.061728395061728385,69.01234567901233,0)" xlink:href="#bg"/><use transform="matrix(0.061728395061728385,0,0,0.061728395061728385,82.53086419753085,0)" xlink:href="#cl"/></g><path fill="#2b9644" d="M24 0v-248h52v208h133V0H24" id="co"/><path fill="#2b9644" d="M133-34C117-15 103 5 69 4 32 3 11-16 11-54c-1-60 55-63 116-61 1-26-3-47-28-47-18 1-26 9-28 27l-52-2c7-38 36-58 82-57s74 22 75 68l1 82c-1 14 12 18 25 15v27c-30 8-71 5-69-32zm-48 3c29 0 43-24 42-57-32 0-66-3-65 30 0 17 8 27 23 27" id="cp"/><path fill="#2b9644" d="M135-194c87-1 58 113 63 194h-50c-7-57 23-157-34-157-59 0-34 97-39 157H25l-1-190h47c2 12-1 28 3 38 12-26 28-41 61-42" id="cq"/><path fill="#2b9644" d="M88-194c31-1 46 15 58 34l-1-101h50l1 261h-48c-2-10 0-23-3-31C134-8 116 4 84 4 32 4 16-41 15-95c0-56 19-97 73-99zm17 164c33 0 40-30 41-66 1-37-9-64-41-64s-38 30-39 65c0 43 13 65 39 65" id="cr"/><g id="aa"><use transform="matrix(0.061728395061728385,0,0,0.061728395061728385,0,0)" xlink:href="#co"/><use transform="matrix(0.061728395061728385,0,0,0.061728395061728385,13.518518518518515,0)" xlink:href="#cp"/><use transform="matrix(0.061728395061728385,0,0,0.061728395061728385,25.864197530864192,0)" xlink:href="#cq"/><use transform="matrix(0.061728395061728385,0,0,0.061728395061728385,39.38271604938271,0)" xlink:href="#cr"/></g><path fill="#0c7cba" d="M275 0h-61l-44-196L126 0H64L0-248h53L97-49l45-199h58l43 199 44-199h52" id="cs"/><g id="ab"><use transform="matrix(0.061728395061728385,0,0,0.061728395061728385,0,0)" xlink:href="#cs"/><use transform="matrix(0.061728395061728385,0,0,0.061728395061728385,20.123456790123456,0)" xlink:href="#ck"/><use transform="matrix(0.061728395061728385,0,0,0.061728395061728385,32.46913580246913,0)" xlink:href="#cj"/><use transform="matrix(0.061728395061728385,0,0,0.061728395061728385,39.81481481481481,0)" xlink:href="#cf"/><use transform="matrix(0.061728395061728385,0,0,0.061728395061728385,52.16049382716049,0)" xlink:href="#bf"/></g><path fill="#2b9644" d="M182-130c37 4 62 22 62 59C244 23 116-4 24 0v-248c84 5 203-23 205 63 0 31-19 50-47 55zM76-148c40-3 101 13 101-30 0-44-60-28-101-31v61zm0 110c48-3 116 14 116-37 0-48-69-32-116-35v72" id="ct"/><path fill="#2b9644" d="M85 4C-2 5 27-109 22-190h50c7 57-23 150 33 157 60-5 35-97 40-157h50l1 190h-47c-2-12 1-28-3-38-12 25-28 42-61 42" id="cu"/><path fill="#2b9644" d="M25-224v-37h50v37H25zM25 0v-190h50V0H25" id="cv"/><path fill="#2b9644" d="M25 0v-261h50V0H25" id="cw"/><path fill="#2b9644" d="M115-3C79 11 28 4 28-45v-112H4v-33h27l15-45h31v45h36v33H77v99c-1 23 16 31 38 25v30" id="cx"/><path fill="#2b9644" d="M14-72v-43h91v43H14" id="cy"/><path fill="#2b9644" d="M135-194c53 0 70 44 70 98 0 56-19 98-73 100-31 1-45-17-59-34 3 33 2 69 2 105H25l-1-265h48c2 10 0 23 3 31 11-24 29-35 60-35zM114-30c33 0 39-31 40-66 0-38-9-64-40-64-56 0-55 130 0 130" id="cz"/><g id="ac"><use transform="matrix(0.061728395061728385,0,0,0.061728395061728385,0,0)" xlink:href="#ct"/><use transform="matrix(0.061728395061728385,0,0,0.061728395061728385,15.987654320987652,0)" xlink:href="#cu"/><use transform="matrix(0.061728395061728385,0,0,0.061728395061728385,29.506172839506167,0)" xlink:href="#cv"/><use transform="matrix(0.061728395061728385,0,0,0.061728395061728385,35.679012345679006,0)" xlink:href="#cw"/><use transform="matrix(0.061728395061728385,0,0,0.061728395061728385,41.85185185185185,0)" xlink:href="#cx"/><use transform="matrix(0.061728395061728385,0,0,0.061728395061728385,49.197530864197525,0)" xlink:href="#cy"/><use transform="matrix(0.061728395061728385,0,0,0.061728395061728385,56.5432098765432,0)" xlink:href="#cu"/><use transform="matrix(0.061728395061728385,0,0,0.061728395061728385,70.06172839506172,0)" xlink:href="#cz"/></g><g id="ad"><use transform="matrix(0.061728395061728385,0,0,0.061728395061728385,0,0)" xlink:href="#cw"/><use transform="matrix(0.061728395061728385,0,0,0.061728395061728385,6.1728395061728385,0)" xlink:href="#cp"/><use transform="matrix(0.061728395061728385,0,0,0.061728395061728385,18.518518518518515,0)" xlink:href="#cq"/><use transform="matrix(0.061728395061728385,0,0,0.061728395061728385,32.03703703703703,0)" xlink:href="#cr"/></g><path fill="#fff" d="M114-157C55-157 80-60 75 0H25v-261h50l-1 109c12-26 28-41 61-42 86-1 58 113 63 194h-50c-7-57 23-157-34-157" id="cA"/><g id="ae"><use transform="matrix(0.061728395061728385,0,0,0.061728395061728385,0,0)" xlink:href="#az"/><use transform="matrix(0.061728395061728385,0,0,0.061728395061728385,17.28395061728395,0)" xlink:href="#aE"/><use transform="matrix(0.061728395061728385,0,0,0.061728395061728385,29.629629629629626,0)" xlink:href="#aC"/><use transform="matrix(0.061728395061728385,0,0,0.061728395061728385,43.14814814814814,0)" xlink:href="#av"/><use transform="matrix(0.061728395061728385,0,0,0.061728395061728385,50.493827160493815,0)" xlink:href="#cA"/><use transform="matrix(0.061728395061728385,0,0,0.061728395061728385,64.01234567901233,0)" xlink:href="#aE"/><use transform="matrix(0.061728395061728385,0,0,0.061728395061728385,76.358024691358,0)" xlink:href="#ax"/><use transform="matrix(0.061728395061728385,0,0,0.061728395061728385,84.99999999999997,0)" xlink:href="#aM"/><use transform="matrix(0.061728395061728385,0,0,0.061728395061728385,104.75308641975306,0)" xlink:href="#au"/><use transform="matrix(0.061728395061728385,0,0,0.061728395061728385,117.09876543209873,0)" xlink:href="#ay"/></g><g id="af"><use transform="matrix(0.061728395061728385,0,0,0.061728395061728385,0,0)" xlink:href="#az"/><use transform="matrix(0.061728395061728385,0,0,0.061728395061728385,17.28395061728395,0)" xlink:href="#aE"/><use transform="matrix(0.061728395061728385,0,0,0.061728395061728385,29.629629629629626,0)" xlink:href="#aC"/><use transform="matrix(0.061728395061728385,0,0,0.061728395061728385,43.14814814814814,0)" xlink:href="#av"/><use transform="matrix(0.061728395061728385,0,0,0.061728395061728385,50.493827160493815,0)" xlink:href="#cA"/><use transform="matrix(0.061728395061728385,0,0,0.061728395061728385,64.01234567901233,0)" xlink:href="#aE"/><use transform="matrix(0.061728395061728385,0,0,0.061728395061728385,76.358024691358,0)" xlink:href="#ax"/><use transform="matrix(0.061728395061728385,0,0,0.061728395061728385,84.99999999999997,0)" xlink:href="#aM"/><use transform="matrix(0.061728395061728385,0,0,0.061728395061728385,104.75308641975306,0)" xlink:href="#au"/><use transform="matrix(0.061728395061728385,0,0,0.061728395061728385,117.09876543209873,0)" xlink:href="#ay"/></g><path fill="#521dd8" d="M67-125c0 54 23 88 75 88 28 0 53-7 68-21v-34h-60v-39h108v91C232-14 192 4 140 4 58 4 20-42 15-125 8-236 126-280 215-234c19 10 29 26 37 47l-47 15c-11-23-29-39-63-39-53 1-75 33-75 86" id="cB"/><path fill="#521dd8" d="M185-48c-13 30-37 53-82 52C43 2 14-33 14-96s30-98 90-98c62 0 83 45 84 108H66c0 31 8 55 39 56 18 0 30-7 34-22zm-45-69c5-46-57-63-70-21-2 6-4 13-4 21h74" id="cC"/><path fill="#521dd8" d="M110-194c64 0 96 36 96 99 0 64-35 99-97 99-61 0-95-36-95-99 0-62 34-99 96-99zm-1 164c35 0 45-28 45-65 0-40-10-65-43-65-34 0-45 26-45 65 0 36 10 65 43 65" id="cD"/><path fill="#521dd8" d="M115-3C79 11 28 4 28-45v-112H4v-33h27l15-45h31v45h36v33H77v99c-1 23 16 31 38 25v30" id="cE"/><path fill="#521dd8" d="M114-157C55-157 80-60 75 0H25v-261h50l-1 109c12-26 28-41 61-42 86-1 58 113 63 194h-50c-7-57 23-157-34-157" id="cF"/><path fill="#521dd8" d="M135-150c-39-12-60 13-60 57V0H25l-1-190h47c2 13-1 29 3 40 6-28 27-53 61-41v41" id="cG"/><path fill="#521dd8" d="M220-157c-53 9-28 100-34 157h-49v-107c1-27-5-49-29-50C55-147 81-57 75 0H25l-1-190h47c2 12-1 28 3 38 10-53 101-56 108 0 13-22 24-43 59-42 82 1 51 116 57 194h-49v-107c-1-25-5-48-29-50" id="cH"/><path fill="#521dd8" d="M133-34C117-15 103 5 69 4 32 3 11-16 11-54c-1-60 55-63 116-61 1-26-3-47-28-47-18 1-26 9-28 27l-52-2c7-38 36-58 82-57s74 22 75 68l1 82c-1 14 12 18 25 15v27c-30 8-71 5-69-32zm-48 3c29 0 43-24 42-57-32 0-66-3-65 30 0 17 8 27 23 27" id="cI"/><path fill="#521dd8" d="M25 0v-261h50V0H25" id="cJ"/><g id="ag"><use transform="matrix(0.061728395061728385,0,0,0.061728395061728385,0,0)" xlink:href="#cB"/><use transform="matrix(0.061728395061728385,0,0,0.061728395061728385,17.28395061728395,0)" xlink:href="#cC"/><use transform="matrix(0.061728395061728385,0,0,0.061728395061728385,29.629629629629626,0)" xlink:href="#cD"/><use transform="matrix(0.061728395061728385,0,0,0.061728395061728385,43.14814814814814,0)" xlink:href="#cE"/><use transform="matrix(0.061728395061728385,0,0,0.061728395061728385,50.493827160493815,0)" xlink:href="#cF"/><use transform="matrix(0.061728395061728385,0,0,0.061728395061728385,64.01234567901233,0)" xlink:href="#cC"/><use transform="matrix(0.061728395061728385,0,0,0.061728395061728385,76.358024691358,0)" xlink:href="#cG"/><use transform="matrix(0.061728395061728385,0,0,0.061728395061728385,84.99999999999997,0)" xlink:href="#cH"/><use transform="matrix(0.061728395061728385,0,0,0.061728395061728385,104.75308641975306,0)" xlink:href="#cI"/><use transform="matrix(0.061728395061728385,0,0,0.061728395061728385,117.09876543209873,0)" xlink:href="#cJ"/></g><path fill="#fff" d="M24-248c120-7 223 5 221 122C244-46 201 0 124 0H24v-248zM76-40c74 7 117-18 117-86 0-67-45-88-117-82v168" id="cK"/><g id="ah"><use transform="matrix(0.061728395061728385,0,0,0.061728395061728385,0,0)" xlink:href="#cK"/><use transform="matrix(0.061728395061728385,0,0,0.061728395061728385,15.987654320987652,0)" xlink:href="#aL"/><use transform="matrix(0.061728395061728385,0,0,0.061728395061728385,22.16049382716049,0)" xlink:href="#aE"/><use transform="matrix(0.061728395061728385,0,0,0.061728395061728385,34.50617283950616,0)" xlink:href="#aA"/><use transform="matrix(0.061728395061728385,0,0,0.061728395061728385,46.85185185185184,0)" xlink:href="#aE"/><use transform="matrix(0.061728395061728385,0,0,0.061728395061728385,59.19753086419752,0)" xlink:href="#ay"/></g><use transform="matrix(0.061728395061728385,0,0,0.061728395061728385,0,0)" xlink:href="#aN" id="ai"/><path fill="#fff" d="M76-208v77h127v40H76V0H24v-248h183v40H76" id="cL"/><path fill="#fff" d="M140-251c80 0 125 45 125 126S219 4 139 4C58 4 15-44 15-125s44-126 125-126zm-1 214c52 0 73-35 73-88 0-50-21-86-72-86-52 0-73 35-73 86s22 88 72 88" id="cM"/><g id="aj"><use transform="matrix(0.061728395061728385,0,0,0.061728395061728385,0,0)" xlink:href="#aH"/><use transform="matrix(0.061728395061728385,0,0,0.061728395061728385,15.987654320987652,0)" xlink:href="#cL"/><use transform="matrix(0.061728395061728385,0,0,0.061728395061728385,29.506172839506167,0)" xlink:href="#cM"/></g><g id="ak"><use transform="matrix(0.061728395061728385,0,0,0.061728395061728385,0,0)" xlink:href="#cM"/><use transform="matrix(0.061728395061728385,0,0,0.061728395061728385,17.28395061728395,0)" xlink:href="#aL"/><use transform="matrix(0.061728395061728385,0,0,0.061728395061728385,23.456790123456788,0)" xlink:href="#ay"/></g><g id="al"><use transform="matrix(0.061728395061728385,0,0,0.061728395061728385,0,0)" xlink:href="#aL"/><use transform="matrix(0.061728395061728385,0,0,0.061728395061728385,6.1728395061728385,0)" xlink:href="#aM"/><use transform="matrix(0.061728395061728385,0,0,0.061728395061728385,25.92592592592592,0)" xlink:href="#aB"/><use transform="matrix(0.061728395061728385,0,0,0.061728395061728385,39.444444444444436,0)" xlink:href="#aC"/><use transform="matrix(0.061728395061728385,0,0,0.061728395061728385,52.96296296296295,0)" xlink:href="#ax"/><use transform="matrix(0.061728395061728385,0,0,0.061728395061728385,61.60493827160492,0)" xlink:href="#av"/><use transform="matrix(0.061728395061728385,0,0,0.061728395061728385,68.9506172839506,0)" xlink:href="#aA"/><use transform="matrix(0.061728395061728385,0,0,0.061728395061728385,81.29629629629628,0)" xlink:href="#aN"/></g><g id="am"><use transform="matrix(0.061728395061728385,0,0,0.061728395061728385,0,0)" xlink:href="#aJ"/><use transform="matrix(0.061728395061728385,0,0,0.061728395061728385,13.518518518518515,0)" xlink:href="#aC"/><use transform="matrix(0.061728395061728385,0,0,0.061728395061728385,27.03703703703703,0)" xlink:href="#aM"/><use transform="matrix(0.061728395061728385,0,0,0.061728395061728385,46.79012345679011,0)" xlink:href="#aE"/><use transform="matrix(0.061728395061728385,0,0,0.061728395061728385,59.13580246913579,0)" xlink:href="#aA"/><use transform="matrix(0.061728395061728385,0,0,0.061728395061728385,71.48148148148147,0)" xlink:href="#av"/><use transform="matrix(0.061728395061728385,0,0,0.061728395061728385,78.82716049382715,0)" xlink:href="#aL"/><use transform="matrix(0.061728395061728385,0,0,0.061728395061728385,84.99999999999999,0)" xlink:href="#aP"/></g><path fill="#fff" d="M24 0v-54h51V0H24" id="cN"/><g id="an"><use transform="matrix(0.061728395061728385,0,0,0.061728395061728385,0,0)" xlink:href="#aB"/><use transform="matrix(0.061728395061728385,0,0,0.061728395061728385,13.518518518518515,0)" xlink:href="#ax"/><use transform="matrix(0.061728395061728385,0,0,0.061728395061728385,22.16049382716049,0)" xlink:href="#aC"/><use transform="matrix(0.061728395061728385,0,0,0.061728395061728385,35.679012345679006,0)" xlink:href="#aJ"/><use transform="matrix(0.061728395061728385,0,0,0.061728395061728385,49.19753086419752,0)" xlink:href="#cN"/></g><path fill="#e24f15" d="M24-248c120-7 223 5 221 122C244-46 201 0 124 0H24v-248zM76-40c74 7 117-18 117-86 0-67-45-88-117-82v168" id="cO"/><path fill="#e24f15" d="M25-224v-37h50v37H25zM25 0v-190h50V0H25" id="cP"/><path fill="#e24f15" d="M185-48c-13 30-37 53-82 52C43 2 14-33 14-96s30-98 90-98c62 0 83 45 84 108H66c0 31 8 55 39 56 18 0 30-7 34-22zm-45-69c5-46-57-63-70-21-2 6-4 13-4 21h74" id="cQ"/><path fill="#e24f15" d="M137-138c1-29-70-34-71-4 15 46 118 7 119 86 1 83-164 76-172 9l43-7c4 19 20 25 44 25 33 8 57-30 24-41C81-84 22-81 20-136c-2-80 154-74 161-7" id="cR"/><path fill="#e24f15" d="M25 0v-261h50V0H25" id="cS"/><g id="ao"><use transform="matrix(0.061728395061728385,0,0,0.061728395061728385,0,0)" xlink:href="#cO"/><use transform="matrix(0.061728395061728385,0,0,0.061728395061728385,15.987654320987652,0)" xlink:href="#cP"/><use transform="matrix(0.061728395061728385,0,0,0.061728395061728385,22.16049382716049,0)" xlink:href="#cQ"/><use transform="matrix(0.061728395061728385,0,0,0.061728395061728385,34.50617283950616,0)" xlink:href="#cR"/><use transform="matrix(0.061728395061728385,0,0,0.061728395061728385,46.85185185185184,0)" xlink:href="#cQ"/><use transform="matrix(0.061728395061728385,0,0,0.061728395061728385,59.19753086419752,0)" xlink:href="#cS"/></g><path fill="#e24f15" d="M4 7l51-268h42L46 7H4" id="cT"/><use transform="matrix(0.061728395061728385,0,0,0.061728395061728385,0,0)" xlink:href="#cT" id="ap"/><path fill="#e24f15" d="M186 0v-106H76V0H24v-248h52v99h110v-99h50V0h-50" id="cU"/><path fill="#e24f15" d="M76-208v77h127v40H76V0H24v-248h183v40H76" id="cV"/><path fill="#e24f15" d="M140-251c80 0 125 45 125 126S219 4 139 4C58 4 15-44 15-125s44-126 125-126zm-1 214c52 0 73-35 73-88 0-50-21-86-72-86-52 0-73 35-73 86s22 88 72 88" id="cW"/><g id="aq"><use transform="matrix(0.061728395061728385,0,0,0.061728395061728385,0,0)" xlink:href="#cU"/><use transform="matrix(0.061728395061728385,0,0,0.061728395061728385,15.987654320987652,0)" xlink:href="#cV"/><use transform="matrix(0.061728395061728385,0,0,0.061728395061728385,29.506172839506167,0)" xlink:href="#cW"/></g><path fill="#fff" d="M182-130c37 4 62 22 62 59C244 23 116-4 24 0v-248c84 5 203-23 205 63 0 31-19 50-47 55zM76-148c40-3 101 13 101-30 0-44-60-28-101-31v61zm0 110c48-3 116 14 116-37 0-48-69-32-116-35v72" id="cX"/><g id="ar"><use transform="matrix(0.061728395061728385,0,0,0.061728395061728385,0,0)" xlink:href="#cX"/><use transform="matrix(0.061728395061728385,0,0,0.061728395061728385,15.987654320987652,0)" xlink:href="#aL"/><use transform="matrix(0.061728395061728385,0,0,0.061728395061728385,22.16049382716049,0)" xlink:href="#aC"/><use transform="matrix(0.061728395061728385,0,0,0.061728395061728385,35.679012345679006,0)" xlink:href="#aM"/><use transform="matrix(0.061728395061728385,0,0,0.061728395061728385,55.43209876543209,0)" xlink:href="#au"/><use transform="matrix(0.061728395061728385,0,0,0.061728395061728385,67.77777777777777,0)" xlink:href="#aA"/><use transform="matrix(0.061728395061728385,0,0,0.061728395061728385,80.12345679012344,0)" xlink:href="#aA"/></g><path fill="#724a11" d="M182-130c37 4 62 22 62 59C244 23 116-4 24 0v-248c84 5 203-23 205 63 0 31-19 50-47 55zM76-148c40-3 101 13 101-30 0-44-60-28-101-31v61zm0 110c48-3 116 14 116-37 0-48-69-32-116-35v72" id="cY"/><path fill="#724a11" d="M25-224v-37h50v37H25zM25 0v-190h50V0H25" id="cZ"/><path fill="#724a11" d="M110-194c64 0 96 36 96 99 0 64-35 99-97 99-61 0-95-36-95-99 0-62 34-99 96-99zm-1 164c35 0 45-28 45-65 0-40-10-65-43-65-34 0-45 26-45 65 0 36 10 65 43 65" id="da"/><path fill="#724a11" d="M220-157c-53 9-28 100-34 157h-49v-107c1-27-5-49-29-50C55-147 81-57 75 0H25l-1-190h47c2 12-1 28 3 38 10-53 101-56 108 0 13-22 24-43 59-42 82 1 51 116 57 194h-49v-107c-1-25-5-48-29-50" id="db"/><path fill="#724a11" d="M133-34C117-15 103 5 69 4 32 3 11-16 11-54c-1-60 55-63 116-61 1-26-3-47-28-47-18 1-26 9-28 27l-52-2c7-38 36-58 82-57s74 22 75 68l1 82c-1 14 12 18 25 15v27c-30 8-71 5-69-32zm-48 3c29 0 43-24 42-57-32 0-66-3-65 30 0 17 8 27 23 27" id="dc"/><path fill="#724a11" d="M137-138c1-29-70-34-71-4 15 46 118 7 119 86 1 83-164 76-172 9l43-7c4 19 20 25 44 25 33 8 57-30 24-41C81-84 22-81 20-136c-2-80 154-74 161-7" id="dd"/><g id="as"><use transform="matrix(0.061728395061728385,0,0,0.061728395061728385,0,0)" xlink:href="#cY"/><use transform="matrix(0.061728395061728385,0,0,0.061728395061728385,15.987654320987652,0)" xlink:href="#cZ"/><use transform="matrix(0.061728395061728385,0,0,0.061728395061728385,22.16049382716049,0)" xlink:href="#da"/><use transform="matrix(0.061728395061728385,0,0,0.061728395061728385,35.679012345679006,0)" xlink:href="#db"/><use transform="matrix(0.061728395061728385,0,0,0.061728395061728385,55.43209876543209,0)" xlink:href="#dc"/><use transform="matrix(0.061728395061728385,0,0,0.061728395061728385,67.77777777777777,0)" xlink:href="#dd"/><use transform="matrix(0.061728395061728385,0,0,0.061728395061728385,80.12345679012344,0)" xlink:href="#dd"/></g></defs></g></svg>